<svg width="15" height="15" viewBox="0 0 15 15" fill="none" xmlns="http://www.w3.org/2000/svg">
<path d="M10.6055 6.65039C10.7373 6.65039 10.8691 6.71631 10.968 6.81519C11.0669 6.91406 11.1328 7.0459 11.1328 7.17773V7.70508C11.1328 7.85339 11.0669 7.98523 10.968 8.08411C10.8691 8.18298 10.7373 8.23242 10.6055 8.23242H8.23242V10.6055C8.23242 10.7538 8.1665 10.8856 8.06763 10.9845C7.96875 11.0834 7.83691 11.1328 7.70508 11.1328H7.17773C7.02942 11.1328 6.89758 11.0834 6.79871 10.9845C6.69983 10.8856 6.65039 10.7538 6.65039 10.6055V8.23242H4.27734C4.12903 8.23242 3.99719 8.18298 3.89832 8.08411C3.79944 7.98523 3.75 7.85339 3.75 7.70508V7.17773C3.75 7.0459 3.79944 6.91406 3.89832 6.81519C3.99719 6.71631 4.12903 6.65039 4.27734 6.65039H6.65039V4.27734C6.65039 4.14551 6.69983 4.01367 6.79871 3.91479C6.89758 3.81592 7.02942 3.75 7.17773 3.75H7.70508C7.83691 3.75 7.96875 3.81592 8.06763 3.91479C8.1665 4.01367 8.23242 4.14551 8.23242 4.27734V6.65039H10.6055Z" fill="white"/>
<circle cx="7.5" cy="7.5" r="7" stroke="white"/>
</svg>

