<svg width="182" height="106" viewBox="0 0 182 106" fill="none" xmlns="http://www.w3.org/2000/svg">
<path d="M86.736 19.876V26.12H87.758V19.876H86.736ZM83.194 15.116V15.998H91.384V15.116H83.194ZM83.446 21.304V22.2H91.412V21.304H83.446ZM86.498 21.682C85.742 23.026 84.286 24.37 82.9 25C83.138 25.182 83.46 25.56 83.614 25.812C85 25.028 86.47 23.516 87.268 21.976L86.498 21.682ZM87.996 21.808L87.296 22.088C88.08 23.488 89.55 24.944 90.852 25.672C91.02 25.392 91.342 25.028 91.58 24.832C90.264 24.258 88.766 22.998 87.996 21.808ZM86.442 13.366V18.154H90.082V13.366H89.102V17.356H87.38V13.366H86.442ZM84.104 13.646V20.072H91.034V19.204H85.056V13.646H84.104ZM80.59 13.254V16.306H81.388V13.254H80.59ZM79.4 15.746V16.642H82.312V20.128H79.4V21.038H83.096V15.746H79.4ZM78.952 15.746V21.766H79.736V15.746H78.952ZM80.66 16.152V20.268H80.604V23.88H81.388V20.268H81.332V16.152H80.66ZM78.532 24.272L78.728 25.224C79.876 24.86 81.36 24.398 82.788 23.936L82.704 23.068C81.164 23.53 79.596 24.006 78.532 24.272ZM82.018 22.046C82.354 22.928 82.69 24.09 82.816 24.846L83.558 24.608C83.432 23.852 83.082 22.704 82.732 21.822L82.018 22.046ZM101.464 13.24V18.742H102.514V13.24H101.464ZM99.644 24.454V25.42H104.642V24.454H99.644ZM98.216 15.228V16.194H105.86V15.228H98.216ZM98.664 18.294V19.26H105.552V18.294H98.664ZM99.112 20.786V26.106H100.092V21.738H104.138V26.078H105.16V20.786H99.112ZM95.15 13.254C94.786 14.178 94.142 15.522 93.61 16.334L94.338 16.642C94.884 15.886 95.556 14.64 96.088 13.604L95.15 13.254ZM96.844 14.85C96.074 16.334 94.744 18.434 93.666 19.68L94.338 20.03C95.402 18.826 96.774 16.81 97.754 15.242L96.844 14.85ZM92.938 16.194C93.694 16.866 94.576 17.832 94.954 18.49L95.514 17.692C95.136 17.076 94.254 16.152 93.47 15.494L92.938 16.194ZM96.396 18.098C96.97 19.022 97.53 20.24 97.74 21.024L98.58 20.632C98.37 19.862 97.768 18.658 97.18 17.762L96.396 18.098ZM92.91 19.512L92.994 20.45C94.296 20.394 96.06 20.282 97.796 20.17L97.81 19.316C95.99 19.4 94.17 19.47 92.91 19.512ZM96.746 21.444C97.138 22.312 97.516 23.446 97.642 24.174L98.496 23.88C98.342 23.152 97.95 22.046 97.544 21.192L96.746 21.444ZM93.68 21.248C93.512 22.48 93.232 23.726 92.77 24.58C92.994 24.678 93.414 24.874 93.596 24.986C94.044 24.09 94.394 22.732 94.59 21.416L93.68 21.248ZM95.29 19.918V26.162H96.242V19.918H95.29ZM116.836 14.878L115.744 15.186C116.57 18.056 117.522 20.142 119.076 21.794L119.804 20.814C117.746 18.952 117.13 16.572 116.836 14.878ZM108.086 15.62L108.17 16.796C108.464 16.754 108.702 16.712 108.968 16.684C109.472 16.614 110.62 16.474 111.334 16.362C110.102 17.762 108.73 19.764 108.73 22.382C108.73 24.692 110.326 25.924 112.538 25.924C116.92 25.924 117.718 21.598 116.99 17.594L115.968 15.704C117.032 21.192 115.898 24.776 112.566 24.776C111.124 24.776 109.822 24.118 109.822 22.144C109.822 19.26 111.964 16.81 112.846 16.152C113.056 16.068 113.406 15.97 113.588 15.914L113.266 14.92C112.44 15.242 110.088 15.564 108.842 15.62C108.59 15.634 108.296 15.634 108.086 15.62ZM118.068 14.08L117.368 14.332C117.676 14.864 118.04 15.69 118.292 16.32L119.02 16.054C118.782 15.48 118.348 14.612 118.068 14.08ZM119.496 13.534L118.81 13.8C119.132 14.332 119.496 15.144 119.748 15.774L120.49 15.494C120.224 14.906 119.79 14.052 119.496 13.534Z" fill="#4A4A4A"/>
<rect x="53" y="70" width="25" height="1" fill="#4A4A4A"/>
<path d="M85.808 59.588V60.56C86.756 60.644 87.788 60.692 88.988 60.692C90.092 60.692 91.4 60.608 92.216 60.548V59.564C91.352 59.66 90.14 59.732 88.988 59.732C87.776 59.732 86.672 59.684 85.808 59.588ZM86.288 64.424L85.316 64.328C85.208 64.808 85.076 65.372 85.076 65.996C85.076 67.508 86.492 68.3 88.928 68.3C90.632 68.3 92.156 68.12 93.02 67.892L93.008 66.86C92.096 67.148 90.548 67.328 88.904 67.328C86.984 67.328 86.048 66.704 86.048 65.78C86.048 65.336 86.144 64.892 86.288 64.424ZM100.436 58.604L99.356 58.556C99.38 58.88 99.356 59.168 99.308 59.552C99.164 60.704 98.528 63.68 97.616 65.468L98.504 65.78C98.624 65.576 98.732 65.408 98.876 65.228C99.668 64.28 101 63.788 102.428 63.788C103.832 63.788 104.564 64.484 104.564 65.372C104.564 67.352 101.876 67.82 99.092 67.436L99.344 68.396C102.992 68.78 105.548 67.856 105.548 65.348C105.548 63.944 104.432 62.972 102.524 62.972C101.276 62.972 100.196 63.272 99.152 64.004C99.56 62.888 100.04 60.572 100.208 59.612C100.28 59.3 100.34 58.928 100.436 58.604ZM96.704 60.14L96.716 61.076C97.4 61.136 98.168 61.196 98.984 61.196C100.628 61.196 103.076 60.956 104.78 60.656L104.756 59.732C102.872 60.152 100.508 60.332 98.972 60.332C98.252 60.332 97.34 60.248 96.704 60.14ZM111.728 58.592L111.488 59.516C112.412 59.756 115.004 60.284 116.156 60.44L116.384 59.528C115.316 59.42 112.76 58.928 111.728 58.592ZM111.464 60.788L110.456 60.656C110.384 61.904 110.084 64.424 109.844 65.516L110.744 65.732C110.816 65.54 110.924 65.348 111.104 65.144C111.944 64.124 113.24 63.536 114.812 63.536C116.036 63.536 116.936 64.22 116.936 65.168C116.936 66.812 115.088 67.904 111.296 67.448L111.584 68.42C116.036 68.792 117.944 67.34 117.944 65.204C117.944 63.788 116.72 62.684 114.884 62.684C113.444 62.684 112.124 63.152 110.972 64.16C111.092 63.38 111.308 61.604 111.464 60.788ZM125.54 59.9L125.552 60.872C126.86 61.016 129.188 61.016 130.472 60.872V59.9C129.284 60.08 126.848 60.128 125.54 59.9ZM126.008 64.796L125.144 64.712C125.012 65.288 124.952 65.72 124.952 66.116C124.952 67.244 125.852 67.916 127.856 67.916C129.104 67.916 130.112 67.82 130.856 67.664L130.832 66.656C129.872 66.884 128.936 66.98 127.868 66.98C126.224 66.98 125.84 66.44 125.84 65.888C125.84 65.564 125.9 65.228 126.008 64.796ZM123.26 58.976L122.192 58.892C122.18 59.156 122.144 59.456 122.108 59.732C121.964 60.728 121.568 62.78 121.568 64.544C121.568 66.176 121.772 67.556 122.012 68.408L122.864 68.348C122.852 68.216 122.84 68.048 122.828 67.928C122.828 67.784 122.852 67.556 122.888 67.388C122.996 66.812 123.44 65.552 123.74 64.7L123.236 64.304C123.032 64.796 122.756 65.516 122.552 66.056C122.48 65.468 122.444 64.964 122.444 64.388C122.444 63.032 122.816 60.896 123.044 59.78C123.092 59.564 123.188 59.18 123.26 58.976ZM137.36 58.424H136.304C136.34 58.616 136.364 59.036 136.364 59.264C136.364 59.756 136.316 61.712 136.316 63.092C136.316 64.424 136.376 66.092 136.376 66.788C136.376 67.184 136.22 67.376 135.944 67.376C135.476 67.376 134.636 66.896 134.636 66.356C134.636 65.744 135.56 64.94 136.736 64.484C137.756 64.076 138.74 63.848 139.82 63.848C140.948 63.848 141.872 64.388 141.872 65.408C141.872 66.524 140.912 67.088 139.868 67.292C139.412 67.388 138.908 67.376 138.452 67.376L138.788 68.336C139.208 68.312 139.748 68.288 140.276 68.168C141.932 67.784 142.844 66.86 142.844 65.408C142.844 63.968 141.584 63.02 139.82 63.02C138.872 63.02 137.672 63.236 136.604 63.656C135.116 64.22 133.688 65.336 133.688 66.392C133.688 67.472 135.248 68.384 136.184 68.384C136.844 68.384 137.252 68.024 137.252 66.92C137.252 66.164 137.192 64.292 137.192 63.044C137.192 61.796 137.252 59.96 137.288 59.252C137.3 58.964 137.324 58.64 137.36 58.424ZM141.092 59.756L140.648 60.476C141.416 60.884 142.76 61.712 143.348 62.264L143.828 61.496C143.252 61.016 141.944 60.2 141.092 59.756ZM133.892 60.572L133.916 61.496C134.312 61.532 134.768 61.556 135.44 61.556C136.52 61.556 138.488 61.292 139.724 60.992L139.7 60.056C138.512 60.416 136.604 60.668 135.416 60.668C134.984 60.668 134.552 60.656 133.892 60.572ZM149.168 67.652V68.48H154.964V67.652H149.168ZM148.76 59.132V59.936H153.164V59.132H148.76ZM149.3 57.884C148.604 59.192 147.224 60.74 145.244 61.82C145.448 61.976 145.748 62.288 145.88 62.516C147.968 61.28 149.408 59.648 150.308 58.088L149.3 57.884ZM152.864 59.132V59.288C151.616 62.444 148.292 64.796 145.184 65.696C145.376 65.888 145.604 66.26 145.712 66.5C148.976 65.444 152.36 63.032 153.8 59.408L153.2 59.084L153.032 59.132H152.864ZM147.26 61.268C148.208 61.94 149.348 62.948 149.852 63.632L150.584 62.984C150.032 62.3 148.88 61.34 147.932 60.692L147.26 61.268ZM154.52 63.86V68.984H155.444V63.86H154.52ZM149.576 63.86H149.396L148.676 64.568V68.96H149.576V64.688H154.976V63.86H149.576ZM157.796 59.816V60.656H168.524V59.816H157.796ZM159.032 63.68V64.388H162.392V63.68H159.032ZM159.032 65.6V66.308H162.392V65.6H159.032ZM164.396 61.832V66.764H165.248V61.832H164.396ZM162.068 61.724V67.916C162.068 68.072 162.02 68.12 161.852 68.132C161.684 68.144 161.132 68.144 160.532 68.12C160.652 68.348 160.784 68.684 160.832 68.912C161.648 68.912 162.176 68.912 162.5 68.768C162.836 68.624 162.944 68.384 162.944 67.928V61.724H162.068ZM166.832 61.472V67.844C166.832 68.012 166.772 68.06 166.58 68.072C166.376 68.084 165.728 68.084 164.996 68.06C165.128 68.3 165.272 68.684 165.32 68.924C166.256 68.924 166.856 68.9 167.228 68.768C167.6 68.624 167.72 68.372 167.72 67.844V61.472H166.832ZM159.656 58.22C160.112 58.736 160.604 59.468 160.796 59.924L161.684 59.6C161.456 59.132 160.952 58.424 160.484 57.908L159.656 58.22ZM165.824 57.872C165.524 58.52 164.984 59.444 164.552 60.02L165.344 60.32C165.788 59.756 166.328 58.928 166.784 58.184L165.824 57.872ZM158.552 61.724V68.9H159.404V62.504H162.356V61.724H158.552ZM174.608 58.688L173.492 58.568C173.492 59.492 173.336 60.572 173.108 61.532C172.784 62.996 171.824 66.2 170.456 68.036L171.44 68.42C172.796 66.236 173.648 63.248 174.056 61.556C174.224 60.812 174.38 59.828 174.464 59.396C174.512 59.168 174.56 58.904 174.608 58.688ZM178.736 60.068L177.86 60.464C178.7 61.46 179.648 63.548 179.996 64.772L180.932 64.328C180.524 63.224 179.48 61.04 178.736 60.068ZM170.288 61.316L170.384 62.36C170.696 62.312 171.188 62.252 171.464 62.216C172.196 62.144 174.452 61.868 175.256 61.868C176.024 61.868 176.528 62.072 176.528 63.176C176.528 64.472 176.336 66.032 175.952 66.848C175.712 67.364 175.352 67.46 174.908 67.46C174.572 67.46 173.936 67.376 173.432 67.22L173.6 68.216C173.972 68.312 174.548 68.396 175.004 68.396C175.784 68.396 176.384 68.192 176.756 67.388C177.26 66.392 177.452 64.484 177.452 63.056C177.452 61.436 176.576 61.028 175.508 61.028C174.692 61.028 172.256 61.292 171.356 61.316C170.972 61.328 170.66 61.34 170.288 61.316ZM178.868 58.328L178.22 58.604C178.556 59.06 178.964 59.78 179.204 60.272L179.852 59.984C179.6 59.492 179.168 58.76 178.868 58.328ZM180.188 57.848L179.552 58.124C179.9 58.568 180.296 59.252 180.548 59.78L181.208 59.492C180.968 59.048 180.512 58.292 180.188 57.848ZM85.724 72.652V73.564H89.12V72.652H85.724ZM88.664 72.652C88.664 74.908 89.06 80.02 93.86 82.924C94.028 82.708 94.388 82.324 94.592 82.168C89.852 79.36 89.588 74.8 89.588 72.652H88.664ZM88.328 75.004C87.596 78.4 86.096 80.824 83.432 82.216C83.672 82.384 84.08 82.756 84.248 82.948C86.9 81.388 88.484 78.856 89.348 75.196L88.328 75.004ZM99.416 72.532L98.372 72.496C98.348 72.832 98.324 73.168 98.276 73.528C98.132 74.512 97.904 76.276 97.904 77.416C97.904 78.196 97.964 78.868 98.024 79.324L98.96 79.252C98.876 78.652 98.876 78.232 98.936 77.776C99.08 76.204 100.472 74.02 101.972 74.02C103.232 74.02 103.868 75.388 103.868 77.284C103.868 80.296 101.84 81.352 99.224 81.748L99.8 82.612C102.764 82.072 104.864 80.596 104.864 77.272C104.864 74.752 103.712 73.144 102.128 73.144C100.604 73.144 99.356 74.644 98.864 75.88C98.936 75.04 99.164 73.42 99.416 72.532ZM114.584 72.484H113.564C113.6 72.64 113.612 73 113.612 73.204C113.612 74.044 113.612 75.304 113.612 76.384C113.612 77.44 113.732 79.744 113.732 80.668C113.732 81.508 113.144 81.712 112.448 81.712C111.26 81.712 110.792 81.304 110.792 80.74C110.792 80.188 111.404 79.744 112.556 79.744C114.692 79.744 116.468 80.944 117.548 81.94L118.1 81.088C117.176 80.332 115.196 78.964 112.664 78.964C110.936 78.964 109.892 79.696 109.892 80.788C109.892 81.952 110.84 82.564 112.568 82.564C114.128 82.564 114.68 81.712 114.68 80.872C114.68 80.068 114.5 77.968 114.5 76.384C114.5 75.376 114.5 73.768 114.524 73.288C114.536 72.928 114.56 72.688 114.584 72.484ZM110 73.78L110.012 74.668C110.768 74.764 112.244 74.872 113.072 74.872C114.68 74.872 116.396 74.716 117.752 74.56V73.684C116.192 73.936 114.584 74.044 113.06 74.044C112.268 74.044 110.768 73.924 110 73.78ZM109.94 76.336L109.952 77.236C110.804 77.332 112.124 77.392 112.952 77.392C114.752 77.392 116.216 77.308 117.848 77.104V76.204C116.288 76.432 114.692 76.552 112.952 76.552C112.16 76.552 110.792 76.468 109.94 76.336ZM127.604 72.496H126.5C126.524 72.604 126.56 72.94 126.584 73.264C126.62 73.924 126.632 76.312 126.632 76.84L127.544 77.308C127.532 76.348 127.508 74.032 127.544 73.252C127.544 73.108 127.58 72.64 127.604 72.496ZM121.22 74.176L121.244 75.1C123.056 74.968 125.624 74.884 127.688 74.884C129.452 74.884 130.532 74.908 131.204 74.944L131.216 74.056C130.652 74.044 129.164 74.044 127.7 74.044C125.852 74.044 122.852 74.152 121.22 74.176ZM127.52 77.656L126.86 77.32C127.052 78.604 126.572 79.228 125.828 79.228C125.168 79.228 124.604 78.796 124.604 78.04C124.604 77.26 125.192 76.768 125.828 76.768C126.476 76.768 127.004 77.224 127.004 78.304C127.004 80.284 125.732 81.352 123.548 81.868L124.352 82.648C127.136 81.82 127.928 80.02 127.928 78.388C127.928 77.008 127.22 75.976 125.828 75.976C124.688 75.976 123.704 76.864 123.704 78.052C123.704 79.36 124.676 80.068 125.684 80.068C126.776 80.068 127.52 79.264 127.52 77.656Z" fill="#4A4A4A"/>
<circle cx="33.55" cy="67.0022" r="5.05" stroke="#4A4A4A"/>
<circle cx="33.55" cy="79.9523" r="5.05" stroke="#4A4A4A"/>
<circle cx="33.55" cy="92.9021" r="5.05" stroke="#4A4A4A"/>
<g clip-path="url(#clip0_1301_8747)">
<path d="M58.6266 12.1537L55.0925 8.98371L54.5 8.45215L53.9078 8.98371L50.3734 12.1537L50 12.487L50.052 13.0024L51.0255 22.6532L51.0623 23.0107L51.3086 23.2596L53.8694 25.8214L54.5 26.4521L55.1306 25.8214L57.6914 23.2596L57.9381 23.0107L57.9748 22.6532L58.9484 13.0021L59.0003 12.4867L58.6266 12.1534V12.1537ZM57.5107 18.0934L57.0608 22.5491L54.5 25.1127L51.9392 22.5491L51.4893 18.0934L51.48 17.9893L50.9659 12.898L54.5 9.72832L58.0341 12.898L57.5196 17.9893L57.5104 18.0934H57.5107Z" fill="url(#paint0_linear_1301_8747)"/>
<path d="M54.4998 10.5801L52.0694 12.7601L51.8738 12.9348L51.8741 12.9352L51.8701 12.9387L52.8864 14.018L53.6021 14.7837V14.7781L53.6074 14.7837V12.7647H54.2198V15.0797L54.0529 15.2566L53.9887 15.3248L53.9414 15.3698H53.9463L53.941 15.3754H54.1648L54.2198 15.4341V17.3375H54.7799V15.4341L54.8351 15.3754H54.9636L55.0546 15.3796L55.051 15.3754H55.0586L54.9467 15.2566L54.7799 15.0797V12.7647H55.3923V13.9488L55.3883 14.7798L55.3923 14.776V14.7837L56.9915 13.0853L57.1262 12.9429L57.1259 12.9426L57.1295 12.9387L54.4998 10.5801Z" fill="url(#paint1_linear_1301_8747)"/>
<path d="M53.6075 21.2323V21.2246L52.6277 22.2652L52.6257 22.2673L52.6221 22.2716L53.6075 23.3185V23.2876V22.0849L53.6115 21.2285L53.6075 21.2323Z" fill="url(#paint2_linear_1301_8747)"/>
<path d="M55.8027 21.6605L55.3979 21.2246V21.2302L55.3926 21.2246V23.2876V23.3185L56.3724 22.2775L56.3744 22.2754L56.3784 22.2716L55.8027 21.6605Z" fill="url(#paint3_linear_1301_8747)"/>
<path d="M53.6075 17.3372V16.3975L53.6115 15.7334L53.6075 15.7376V15.7295L52.725 16.6671L52.0938 17.3316H52.0994L52.0938 17.3372H53.6075Z" fill="url(#paint4_linear_1301_8747)"/>
<path d="M53.6074 20.3433V18.7338H52.7222L52.0959 18.73L52.0996 18.7338H52.0923L53.6074 20.3433Z" fill="url(#paint5_linear_1301_8747)"/>
<path d="M54.2197 18.7339V20.574V20.9934V23.9001V23.9683L54.4998 24.2657L54.7798 23.9683V23.9001V20.9934V20.574V18.7339H54.2197Z" fill="url(#paint6_linear_1301_8747)"/>
<path d="M55.3979 15.7295V15.7351L55.3926 15.7295V17.3372H56.9064L56.0242 16.4003L55.3979 15.7295Z" fill="url(#paint7_linear_1301_8747)"/>
<path d="M56.9024 18.7395L56.9077 18.7339H55.3926V20.3433L56.7657 18.8851L56.8471 18.7982L56.908 18.7395H56.9024Z" fill="url(#paint8_linear_1301_8747)"/>
<path d="M55.3926 17.6631H54.7802H54.2201H53.6077H52.0035L51.8813 17.7932V18.2808L52.0022 18.4091H53.6077H54.2201H54.7802H55.3926H56.9981L57.1192 18.2808V17.7932L56.9967 17.6631H55.3926Z" fill="url(#paint9_linear_1301_8747)"/>
</g>
<path d="M65.9102 1H1V104.904H65.9102V1Z" stroke="url(#paint10_linear_1301_8747)" stroke-miterlimit="10"/>
<rect x="1" y="48" width="65" height="0.567165" fill="url(#paint11_linear_1301_8747)"/>
<path d="M29.5676 50.4254C27.9817 50.5953 26.3958 50.8409 24.8037 50.9167C20.498 51.1276 16.2436 50.7591 12.2008 49.1602C8.99207 47.893 7.43083 45.029 8.18885 42.0974C8.7168 40.0563 10.087 38.7441 11.9666 37.9211C14.3783 36.8668 16.8989 36.789 19.4195 37.3274C24.475 38.4083 28.9369 40.7032 32.8359 44.0852C33.8548 44.9696 33.8527 44.9942 34.7936 44.034C38.2324 40.5149 42.6655 38.9508 47.2732 37.7471C49.8534 37.0736 52.4644 36.8484 55.0815 37.5587C58.2697 38.4247 60.1617 40.7524 59.9891 43.6451C59.8577 45.856 58.7196 47.4917 56.8749 48.6607C54.6254 50.0855 52.0843 50.6301 49.5042 51.0334C46.1578 51.5575 42.8258 51.4305 39.5061 50.7918C39.2329 50.7386 38.8713 50.4643 38.6803 50.8307C38.5406 51.0989 38.8713 51.3057 39.0377 51.5104C42.8669 56.2312 46.696 60.95 50.5292 65.6688C51.1209 66.3976 51.0456 67.0534 50.3033 67.6361C50.1143 67.7835 49.9171 67.9228 49.7486 68.0906C49.2536 68.5799 48.8858 68.5533 48.4216 67.9739C45.3053 64.0822 42.154 60.2192 39.0151 56.3459C37.5751 54.5689 36.0939 52.8206 34.7114 51.0006C34.1013 50.1981 33.7583 50.3107 33.1913 51.015C29.0602 56.1493 24.9044 61.2632 20.7527 66.3812C20.1714 67.0977 19.5715 67.7979 19.0004 68.5205C18.7437 68.846 18.493 68.9586 18.1438 68.6741C17.6405 68.2646 17.129 67.8634 16.6319 67.4478C16.1286 67.0281 16.5579 66.7108 16.7942 66.4181C18.3739 64.4466 19.97 62.4874 21.56 60.5242C24.1402 57.3408 26.7224 54.1595 29.2985 50.974C29.4197 50.8246 29.6333 50.712 29.5655 50.4274L29.5676 50.4254ZM45.3361 48.3331C46.2009 48.2676 47.1952 48.2349 48.1771 48.11C50.5231 47.8111 52.8588 47.4467 54.9562 46.247C55.9751 45.6636 56.7742 44.8979 56.879 43.6451C57.0228 41.9315 55.9751 40.8404 53.8715 40.4146C51.1866 39.87 48.6332 40.4821 46.1023 41.2457C42.8381 42.2304 39.7053 43.4854 37.2258 45.9502C36.4904 46.6831 36.5212 46.7957 37.534 47.115C40.032 47.9012 42.606 48.2144 45.3361 48.3331ZM22.1948 47.9176C25.4385 47.938 27.8317 47.5777 30.2023 47.0413C30.4591 46.984 30.833 46.896 30.911 46.7179C31.0651 46.3658 30.6337 46.2266 30.4242 46.0423C29.1115 44.8877 27.6674 43.9071 26.1246 43.0964C22.8378 41.3686 19.4585 39.9151 15.6068 40.1648C14.3516 40.2467 13.1725 40.5456 12.168 41.3297C10.8183 42.384 10.7402 44.2674 11.979 45.4445C12.7719 46.1979 13.758 46.5787 14.7892 46.851C17.4782 47.5613 20.2207 47.8746 22.1928 47.9155L22.1948 47.9176Z" fill="url(#paint12_linear_1301_8747)"/>
<path d="M35.88 10.8321V19.2521H36.56V11.5021H38.09V10.8321H35.88ZM37.74 10.8321V16.9421C37.74 17.0521 37.7 17.0821 37.61 17.0821C37.5 17.0821 37.22 17.0821 36.87 17.0821C36.97 17.2721 37.07 17.5821 37.09 17.7721C37.61 17.7721 37.92 17.7621 38.14 17.6321C38.35 17.5021 38.41 17.2821 38.41 16.9521V10.8321H37.74ZM32.68 10.0521C32.48 11.0321 32.12 12.0221 31.64 12.6721C31.81 12.7521 32.1 12.9421 32.23 13.0421C32.71 12.3321 33.11 11.2621 33.36 10.1821L32.68 10.0521ZM32.67 11.1321L32.45 11.8121H35.48V11.1321H32.67ZM31.86 13.3821V14.0621H35.54V13.3821H31.86ZM33.87 15.2821V15.9421H35.48V15.2821H33.87ZM32.13 14.8221V18.3021L32.73 18.1721V14.8221H32.13ZM31.56 18.0321L31.74 18.7221C32.81 18.5521 34.3 18.3221 35.7 18.0721L35.68 17.4421C34.15 17.6721 32.57 17.9021 31.56 18.0321ZM33.58 11.4021V18.0921L34.24 17.9621V11.4021H33.58ZM30.98 10.0521C30.62 10.7121 29.91 11.5321 29.27 12.0521C29.39 12.1821 29.59 12.4621 29.68 12.6121C30.39 12.0121 31.17 11.1121 31.66 10.3121L30.98 10.0521ZM31.19 12.0621C30.69 13.1121 29.91 14.1821 29.16 14.9021C29.29 15.0521 29.52 15.4021 29.6 15.5521C30.41 14.7321 31.28 13.4721 31.85 12.2921L31.19 12.0621ZM30.47 13.8821V19.2421H31.15V13.2121V13.1921L30.47 13.8821ZM36.19 29.4821V33.2221C36.19 33.9621 36.35 34.1921 37.06 34.1921C37.2 34.1921 37.79 34.1921 37.93 34.1921C38.56 34.1921 38.73 33.8021 38.79 32.4021C38.6 32.3521 38.31 32.2321 38.15 32.1121C38.12 33.3421 38.08 33.5621 37.86 33.5621C37.74 33.5621 37.28 33.5621 37.18 33.5621C36.96 33.5621 36.92 33.5121 36.92 33.2221V29.4821H36.19ZM34.2 26.4121H37.47V28.9421H34.2V26.4121ZM33.49 25.7221V29.6221H38.21V25.7221H33.49ZM29.55 26.9321V27.6221H32.67V26.9321H29.55ZM31.01 29.9221V34.2521H31.74V29.0421L31.01 29.9221ZM31.01 25.0621V27.2721H31.74V25.0621H31.01ZM31.74 29.1421L31.3 29.5421C31.7 29.9021 32.61 30.8621 32.95 31.3121L33.41 30.6821C33.15 30.4221 32.06 29.4021 31.74 29.1421ZM32.42 26.9321V27.0921C31.84 28.6121 30.48 30.1321 29.19 30.9321C29.31 31.0621 29.5 31.4121 29.57 31.6021C30.94 30.6821 32.41 29.0121 33.12 27.1821L32.7 26.9021L32.57 26.9321H32.42ZM34.49 29.3621C34.41 31.4821 34.2 32.9121 32.55 33.6921C32.72 33.8321 32.94 34.1021 33.03 34.2821C34.84 33.3721 35.12 31.7421 35.22 29.3621H34.49Z" fill="#4A4A4A"/>
<defs>
<linearGradient id="paint0_linear_1301_8747" x1="48.8143" y1="-2.95856" x2="68.8546" y2="-0.770121" gradientUnits="userSpaceOnUse">
<stop offset="0.0493823" stop-color="#FEAA69"/>
<stop offset="0.398301" stop-color="#FF8B7B"/>
<stop offset="0.952115" stop-color="#927DED"/>
</linearGradient>
<linearGradient id="paint1_linear_1301_8747" x1="51.1773" y1="6.29638" x2="62.6947" y2="8.25414" gradientUnits="userSpaceOnUse">
<stop offset="0.0493823" stop-color="#FEAA69"/>
<stop offset="0.398301" stop-color="#FF8B7B"/>
<stop offset="0.952115" stop-color="#927DED"/>
</linearGradient>
<linearGradient id="paint2_linear_1301_8747" x1="52.4917" y1="19.8972" x2="54.6976" y2="20.1249" gradientUnits="userSpaceOnUse">
<stop offset="0.0493823" stop-color="#FEAA69"/>
<stop offset="0.398301" stop-color="#FF8B7B"/>
<stop offset="0.952115" stop-color="#927DED"/>
</linearGradient>
<linearGradient id="paint3_linear_1301_8747" x1="55.2627" y1="19.8972" x2="57.4606" y2="20.1232" gradientUnits="userSpaceOnUse">
<stop offset="0.0493823" stop-color="#FEAA69"/>
<stop offset="0.398301" stop-color="#FF8B7B"/>
<stop offset="0.952115" stop-color="#927DED"/>
</linearGradient>
<linearGradient id="paint4_linear_1301_8747" x1="51.8938" y1="14.7103" x2="55.1741" y2="15.3867" gradientUnits="userSpaceOnUse">
<stop offset="0.0493823" stop-color="#FEAA69"/>
<stop offset="0.398301" stop-color="#FF8B7B"/>
<stop offset="0.952115" stop-color="#927DED"/>
</linearGradient>
<linearGradient id="paint5_linear_1301_8747" x1="51.8927" y1="17.7073" x2="55.1687" y2="18.3792" gradientUnits="userSpaceOnUse">
<stop offset="0.0493823" stop-color="#FEAA69"/>
<stop offset="0.398301" stop-color="#FF8B7B"/>
<stop offset="0.952115" stop-color="#927DED"/>
</linearGradient>
<linearGradient id="paint6_linear_1301_8747" x1="54.1459" y1="15.2271" x2="55.4073" y2="15.255" gradientUnits="userSpaceOnUse">
<stop offset="0.0493823" stop-color="#FEAA69"/>
<stop offset="0.398301" stop-color="#FF8B7B"/>
<stop offset="0.952115" stop-color="#927DED"/>
</linearGradient>
<linearGradient id="paint7_linear_1301_8747" x1="55.1932" y1="14.7103" x2="58.4656" y2="15.3833" gradientUnits="userSpaceOnUse">
<stop offset="0.0493823" stop-color="#FEAA69"/>
<stop offset="0.398301" stop-color="#FF8B7B"/>
<stop offset="0.952115" stop-color="#927DED"/>
</linearGradient>
<linearGradient id="paint8_linear_1301_8747" x1="55.1929" y1="17.7136" x2="58.469" y2="18.3873" gradientUnits="userSpaceOnUse">
<stop offset="0.0493823" stop-color="#FEAA69"/>
<stop offset="0.398301" stop-color="#FF8B7B"/>
<stop offset="0.952115" stop-color="#927DED"/>
</linearGradient>
<linearGradient id="paint9_linear_1301_8747" x1="51.1913" y1="17.1902" x2="54.7129" y2="22.5901" gradientUnits="userSpaceOnUse">
<stop offset="0.0493823" stop-color="#FEAA69"/>
<stop offset="0.398301" stop-color="#FF8B7B"/>
<stop offset="0.952115" stop-color="#927DED"/>
</linearGradient>
<linearGradient id="paint10_linear_1301_8747" x1="-7.55105" y1="-64.8677" x2="136.029" y2="-45.2783" gradientUnits="userSpaceOnUse">
<stop offset="0.0493823" stop-color="#FEAA69"/>
<stop offset="0.398301" stop-color="#FF8B7B"/>
<stop offset="0.952115" stop-color="#927DED"/>
</linearGradient>
<linearGradient id="paint11_linear_1301_8747" x1="-7.56288" y1="47.6405" x2="-7.32947" y2="53.4825" gradientUnits="userSpaceOnUse">
<stop offset="0.0493823" stop-color="#FEAA69"/>
<stop offset="0.398301" stop-color="#FF8B7B"/>
<stop offset="0.952115" stop-color="#927DED"/>
</linearGradient>
<linearGradient id="paint12_linear_1301_8747" x1="1.1497" y1="16.8178" x2="105.088" y2="53.8942" gradientUnits="userSpaceOnUse">
<stop offset="0.0493823" stop-color="#FEAA69"/>
<stop offset="0.398301" stop-color="#FF8B7B"/>
<stop offset="0.952115" stop-color="#927DED"/>
</linearGradient>
<clipPath id="clip0_1301_8747">
<rect width="9" height="18" fill="white" transform="translate(50 8.45215)"/>
</clipPath>
</defs>
</svg>
