<svg width="182" height="106" viewBox="0 0 182 106" fill="none" xmlns="http://www.w3.org/2000/svg">
<path d="M87.044 13.24V18.742H88.094V13.24H87.044ZM85.224 24.454V25.42H90.222V24.454H85.224ZM83.796 15.228V16.194H91.44V15.228H83.796ZM84.244 18.294V19.26H91.132V18.294H84.244ZM84.692 20.786V26.106H85.672V21.738H89.718V26.078H90.74V20.786H84.692ZM80.73 13.254C80.366 14.178 79.722 15.522 79.19 16.334L79.918 16.642C80.464 15.886 81.136 14.64 81.668 13.604L80.73 13.254ZM82.424 14.85C81.654 16.334 80.324 18.434 79.246 19.68L79.918 20.03C80.982 18.826 82.354 16.81 83.334 15.242L82.424 14.85ZM78.518 16.194C79.274 16.866 80.156 17.832 80.534 18.49L81.094 17.692C80.716 17.076 79.834 16.152 79.05 15.494L78.518 16.194ZM81.976 18.098C82.55 19.022 83.11 20.24 83.32 21.024L84.16 20.632C83.95 19.862 83.348 18.658 82.76 17.762L81.976 18.098ZM78.49 19.512L78.574 20.45C79.876 20.394 81.64 20.282 83.376 20.17L83.39 19.316C81.57 19.4 79.75 19.47 78.49 19.512ZM82.326 21.444C82.718 22.312 83.096 23.446 83.222 24.174L84.076 23.88C83.922 23.152 83.53 22.046 83.124 21.192L82.326 21.444ZM79.26 21.248C79.092 22.48 78.812 23.726 78.35 24.58C78.574 24.678 78.994 24.874 79.176 24.986C79.624 24.09 79.974 22.732 80.17 21.416L79.26 21.248ZM80.87 19.918V26.162H81.822V19.918H80.87ZM102.416 14.878L101.324 15.186C102.15 18.056 103.102 20.142 104.656 21.794L105.384 20.814C103.326 18.952 102.71 16.572 102.416 14.878ZM93.666 15.62L93.75 16.796C94.044 16.754 94.282 16.712 94.548 16.684C95.052 16.614 96.2 16.474 96.914 16.362C95.682 17.762 94.31 19.764 94.31 22.382C94.31 24.692 95.906 25.924 98.118 25.924C102.5 25.924 103.298 21.598 102.57 17.594L101.548 15.704C102.612 21.192 101.478 24.776 98.146 24.776C96.704 24.776 95.402 24.118 95.402 22.144C95.402 19.26 97.544 16.81 98.426 16.152C98.636 16.068 98.986 15.97 99.168 15.914L98.846 14.92C98.02 15.242 95.668 15.564 94.422 15.62C94.17 15.634 93.876 15.634 93.666 15.62ZM103.648 14.08L102.948 14.332C103.256 14.864 103.62 15.69 103.872 16.32L104.6 16.054C104.362 15.48 103.928 14.612 103.648 14.08ZM105.076 13.534L104.39 13.8C104.712 14.332 105.076 15.144 105.328 15.774L106.07 15.494C105.804 14.906 105.37 14.052 105.076 13.534ZM109.346 15.41L109.416 16.432C111.418 16.628 113.378 16.628 114.792 16.488C115.912 16.39 117.102 16.152 118.012 15.886L117.858 14.864C116.85 15.2 115.702 15.438 114.554 15.536C113.126 15.676 111.292 15.648 109.346 15.41ZM109.066 18.28L109.136 19.33C111.544 19.512 114.134 19.47 115.856 19.246C117.032 19.106 118.096 18.896 118.866 18.686L118.684 17.65C117.942 17.874 116.808 18.154 115.478 18.294C113.84 18.49 111.46 18.532 109.066 18.28ZM113.854 15.228C114.05 15.928 114.26 16.67 114.61 17.636C115.016 18.77 115.604 20.114 116.374 21.318C115.94 21.262 115.03 21.164 114.274 21.094L114.19 21.948C115.156 22.046 116.458 22.186 117.242 22.382L117.83 21.528C117.62 21.346 117.452 21.15 117.298 20.926C116.57 19.848 115.954 18.504 115.576 17.412C115.226 16.418 114.792 15.004 114.652 13.828L113.462 13.982C113.616 14.388 113.742 14.822 113.854 15.228ZM111.11 21.304L110.018 21.066C109.696 21.682 109.458 22.27 109.458 23.068C109.486 24.874 111.026 25.686 113.756 25.686C114.96 25.686 116.052 25.602 117.032 25.434L117.088 24.328C116.066 24.524 115.044 24.622 113.742 24.622C111.544 24.622 110.522 24.034 110.522 22.886C110.522 22.256 110.774 21.78 111.11 21.304ZM125.992 13.954L124.774 13.912C124.746 14.304 124.718 14.696 124.662 15.116C124.494 16.264 124.228 18.322 124.228 19.652C124.228 20.562 124.298 21.346 124.368 21.878L125.46 21.794C125.362 21.094 125.362 20.604 125.432 20.072C125.6 18.238 127.224 15.69 128.974 15.69C130.444 15.69 131.186 17.286 131.186 19.498C131.186 23.012 128.82 24.244 125.768 24.706L126.44 25.714C129.898 25.084 132.348 23.362 132.348 19.484C132.348 16.544 131.004 14.668 129.156 14.668C127.378 14.668 125.922 16.418 125.348 17.86C125.432 16.88 125.698 14.99 125.992 13.954Z" fill="#4A4A4A"/>
<rect x="53" y="70" width="25" height="1" fill="#4A4A4A"/>
<path d="M85.808 59.588V60.56C86.756 60.644 87.788 60.692 88.988 60.692C90.092 60.692 91.4 60.608 92.216 60.548V59.564C91.352 59.66 90.14 59.732 88.988 59.732C87.776 59.732 86.672 59.684 85.808 59.588ZM86.288 64.424L85.316 64.328C85.208 64.808 85.076 65.372 85.076 65.996C85.076 67.508 86.492 68.3 88.928 68.3C90.632 68.3 92.156 68.12 93.02 67.892L93.008 66.86C92.096 67.148 90.548 67.328 88.904 67.328C86.984 67.328 86.048 66.704 86.048 65.78C86.048 65.336 86.144 64.892 86.288 64.424ZM100.436 58.604L99.356 58.556C99.38 58.88 99.356 59.168 99.308 59.552C99.164 60.704 98.528 63.68 97.616 65.468L98.504 65.78C98.624 65.576 98.732 65.408 98.876 65.228C99.668 64.28 101 63.788 102.428 63.788C103.832 63.788 104.564 64.484 104.564 65.372C104.564 67.352 101.876 67.82 99.092 67.436L99.344 68.396C102.992 68.78 105.548 67.856 105.548 65.348C105.548 63.944 104.432 62.972 102.524 62.972C101.276 62.972 100.196 63.272 99.152 64.004C99.56 62.888 100.04 60.572 100.208 59.612C100.28 59.3 100.34 58.928 100.436 58.604ZM96.704 60.14L96.716 61.076C97.4 61.136 98.168 61.196 98.984 61.196C100.628 61.196 103.076 60.956 104.78 60.656L104.756 59.732C102.872 60.152 100.508 60.332 98.972 60.332C98.252 60.332 97.34 60.248 96.704 60.14ZM111.728 58.592L111.488 59.516C112.412 59.756 115.004 60.284 116.156 60.44L116.384 59.528C115.316 59.42 112.76 58.928 111.728 58.592ZM111.464 60.788L110.456 60.656C110.384 61.904 110.084 64.424 109.844 65.516L110.744 65.732C110.816 65.54 110.924 65.348 111.104 65.144C111.944 64.124 113.24 63.536 114.812 63.536C116.036 63.536 116.936 64.22 116.936 65.168C116.936 66.812 115.088 67.904 111.296 67.448L111.584 68.42C116.036 68.792 117.944 67.34 117.944 65.204C117.944 63.788 116.72 62.684 114.884 62.684C113.444 62.684 112.124 63.152 110.972 64.16C111.092 63.38 111.308 61.604 111.464 60.788ZM125.54 59.9L125.552 60.872C126.86 61.016 129.188 61.016 130.472 60.872V59.9C129.284 60.08 126.848 60.128 125.54 59.9ZM126.008 64.796L125.144 64.712C125.012 65.288 124.952 65.72 124.952 66.116C124.952 67.244 125.852 67.916 127.856 67.916C129.104 67.916 130.112 67.82 130.856 67.664L130.832 66.656C129.872 66.884 128.936 66.98 127.868 66.98C126.224 66.98 125.84 66.44 125.84 65.888C125.84 65.564 125.9 65.228 126.008 64.796ZM123.26 58.976L122.192 58.892C122.18 59.156 122.144 59.456 122.108 59.732C121.964 60.728 121.568 62.78 121.568 64.544C121.568 66.176 121.772 67.556 122.012 68.408L122.864 68.348C122.852 68.216 122.84 68.048 122.828 67.928C122.828 67.784 122.852 67.556 122.888 67.388C122.996 66.812 123.44 65.552 123.74 64.7L123.236 64.304C123.032 64.796 122.756 65.516 122.552 66.056C122.48 65.468 122.444 64.964 122.444 64.388C122.444 63.032 122.816 60.896 123.044 59.78C123.092 59.564 123.188 59.18 123.26 58.976ZM87.92 72.424H86.864C86.9 72.616 86.924 73.036 86.924 73.264C86.924 73.756 86.876 75.712 86.876 77.092C86.876 78.424 86.936 80.092 86.936 80.788C86.936 81.184 86.78 81.376 86.504 81.376C86.036 81.376 85.196 80.896 85.196 80.356C85.196 79.744 86.12 78.94 87.296 78.484C88.316 78.076 89.3 77.848 90.38 77.848C91.508 77.848 92.432 78.388 92.432 79.408C92.432 80.524 91.472 81.088 90.428 81.292C89.972 81.388 89.468 81.376 89.012 81.376L89.348 82.336C89.768 82.312 90.308 82.288 90.836 82.168C92.492 81.784 93.404 80.86 93.404 79.408C93.404 77.968 92.144 77.02 90.38 77.02C89.432 77.02 88.232 77.236 87.164 77.656C85.676 78.22 84.248 79.336 84.248 80.392C84.248 81.472 85.808 82.384 86.744 82.384C87.404 82.384 87.812 82.024 87.812 80.92C87.812 80.164 87.752 78.292 87.752 77.044C87.752 75.796 87.812 73.96 87.848 73.252C87.86 72.964 87.884 72.64 87.92 72.424ZM91.652 73.756L91.208 74.476C91.976 74.884 93.32 75.712 93.908 76.264L94.388 75.496C93.812 75.016 92.504 74.2 91.652 73.756ZM84.452 74.572L84.476 75.496C84.872 75.532 85.328 75.556 86 75.556C87.08 75.556 89.048 75.292 90.284 74.992L90.26 74.056C89.072 74.416 87.164 74.668 85.976 74.668C85.544 74.668 85.112 74.656 84.452 74.572ZM99.728 81.652V82.48H105.524V81.652H99.728ZM99.32 73.132V73.936H103.724V73.132H99.32ZM99.86 71.884C99.164 73.192 97.784 74.74 95.804 75.82C96.008 75.976 96.308 76.288 96.44 76.516C98.528 75.28 99.968 73.648 100.868 72.088L99.86 71.884ZM103.424 73.132V73.288C102.176 76.444 98.852 78.796 95.744 79.696C95.936 79.888 96.164 80.26 96.272 80.5C99.536 79.444 102.92 77.032 104.36 73.408L103.76 73.084L103.592 73.132H103.424ZM97.82 75.268C98.768 75.94 99.908 76.948 100.412 77.632L101.144 76.984C100.592 76.3 99.44 75.34 98.492 74.692L97.82 75.268ZM105.08 77.86V82.984H106.004V77.86H105.08ZM100.136 77.86H99.956L99.236 78.568V82.96H100.136V78.688H105.536V77.86H100.136ZM108.356 73.816V74.656H119.084V73.816H108.356ZM109.592 77.68V78.388H112.952V77.68H109.592ZM109.592 79.6V80.308H112.952V79.6H109.592ZM114.956 75.832V80.764H115.808V75.832H114.956ZM112.628 75.724V81.916C112.628 82.072 112.58 82.12 112.412 82.132C112.244 82.144 111.692 82.144 111.092 82.12C111.212 82.348 111.344 82.684 111.392 82.912C112.208 82.912 112.736 82.912 113.06 82.768C113.396 82.624 113.504 82.384 113.504 81.928V75.724H112.628ZM117.392 75.472V81.844C117.392 82.012 117.332 82.06 117.14 82.072C116.936 82.084 116.288 82.084 115.556 82.06C115.688 82.3 115.832 82.684 115.88 82.924C116.816 82.924 117.416 82.9 117.788 82.768C118.16 82.624 118.28 82.372 118.28 81.844V75.472H117.392ZM110.216 72.22C110.672 72.736 111.164 73.468 111.356 73.924L112.244 73.6C112.016 73.132 111.512 72.424 111.044 71.908L110.216 72.22ZM116.384 71.872C116.084 72.52 115.544 73.444 115.112 74.02L115.904 74.32C116.348 73.756 116.888 72.928 117.344 72.184L116.384 71.872ZM109.112 75.724V82.9H109.964V76.504H112.916V75.724H109.112ZM125.168 72.688L124.052 72.568C124.052 73.492 123.896 74.572 123.668 75.532C123.344 76.996 122.384 80.2 121.016 82.036L122 82.42C123.356 80.236 124.208 77.248 124.616 75.556C124.784 74.812 124.94 73.828 125.024 73.396C125.072 73.168 125.12 72.904 125.168 72.688ZM129.296 74.068L128.42 74.464C129.26 75.46 130.208 77.548 130.556 78.772L131.492 78.328C131.084 77.224 130.04 75.04 129.296 74.068ZM120.848 75.316L120.944 76.36C121.256 76.312 121.748 76.252 122.024 76.216C122.756 76.144 125.012 75.868 125.816 75.868C126.584 75.868 127.088 76.072 127.088 77.176C127.088 78.472 126.896 80.032 126.512 80.848C126.272 81.364 125.912 81.46 125.468 81.46C125.132 81.46 124.496 81.376 123.992 81.22L124.16 82.216C124.532 82.312 125.108 82.396 125.564 82.396C126.344 82.396 126.944 82.192 127.316 81.388C127.82 80.392 128.012 78.484 128.012 77.056C128.012 75.436 127.136 75.028 126.068 75.028C125.252 75.028 122.816 75.292 121.916 75.316C121.532 75.328 121.22 75.34 120.848 75.316ZM129.428 72.328L128.78 72.604C129.116 73.06 129.524 73.78 129.764 74.272L130.412 73.984C130.16 73.492 129.728 72.76 129.428 72.328ZM130.748 71.848L130.112 72.124C130.46 72.568 130.856 73.252 131.108 73.78L131.768 73.492C131.528 73.048 131.072 72.292 130.748 71.848ZM135.164 72.652V73.564H138.56V72.652H135.164ZM138.104 72.652C138.104 74.908 138.5 80.02 143.3 82.924C143.468 82.708 143.828 82.324 144.032 82.168C139.292 79.36 139.028 74.8 139.028 72.652H138.104ZM137.768 75.004C137.036 78.4 135.536 80.824 132.872 82.216C133.112 82.384 133.52 82.756 133.688 82.948C136.34 81.388 137.924 78.856 138.788 75.196L137.768 75.004ZM148.856 72.532L147.812 72.496C147.788 72.832 147.764 73.168 147.716 73.528C147.572 74.512 147.344 76.276 147.344 77.416C147.344 78.196 147.404 78.868 147.464 79.324L148.4 79.252C148.316 78.652 148.316 78.232 148.376 77.776C148.52 76.204 149.912 74.02 151.412 74.02C152.672 74.02 153.308 75.388 153.308 77.284C153.308 80.296 151.28 81.352 148.664 81.748L149.24 82.612C152.204 82.072 154.304 80.596 154.304 77.272C154.304 74.752 153.152 73.144 151.568 73.144C150.044 73.144 148.796 74.644 148.304 75.88C148.376 75.04 148.604 73.42 148.856 72.532ZM164.024 72.484H163.004C163.04 72.64 163.052 73 163.052 73.204C163.052 74.044 163.052 75.304 163.052 76.384C163.052 77.44 163.172 79.744 163.172 80.668C163.172 81.508 162.584 81.712 161.888 81.712C160.7 81.712 160.232 81.304 160.232 80.74C160.232 80.188 160.844 79.744 161.996 79.744C164.132 79.744 165.908 80.944 166.988 81.94L167.54 81.088C166.616 80.332 164.636 78.964 162.104 78.964C160.376 78.964 159.332 79.696 159.332 80.788C159.332 81.952 160.28 82.564 162.008 82.564C163.568 82.564 164.12 81.712 164.12 80.872C164.12 80.068 163.94 77.968 163.94 76.384C163.94 75.376 163.94 73.768 163.964 73.288C163.976 72.928 164 72.688 164.024 72.484ZM159.44 73.78L159.452 74.668C160.208 74.764 161.684 74.872 162.512 74.872C164.12 74.872 165.836 74.716 167.192 74.56V73.684C165.632 73.936 164.024 74.044 162.5 74.044C161.708 74.044 160.208 73.924 159.44 73.78ZM159.38 76.336L159.392 77.236C160.244 77.332 161.564 77.392 162.392 77.392C164.192 77.392 165.656 77.308 167.288 77.104V76.204C165.728 76.432 164.132 76.552 162.392 76.552C161.6 76.552 160.232 76.468 159.38 76.336ZM177.044 72.496H175.94C175.964 72.604 176 72.94 176.024 73.264C176.06 73.924 176.072 76.312 176.072 76.84L176.984 77.308C176.972 76.348 176.948 74.032 176.984 73.252C176.984 73.108 177.02 72.64 177.044 72.496ZM170.66 74.176L170.684 75.1C172.496 74.968 175.064 74.884 177.128 74.884C178.892 74.884 179.972 74.908 180.644 74.944L180.656 74.056C180.092 74.044 178.604 74.044 177.14 74.044C175.292 74.044 172.292 74.152 170.66 74.176ZM176.96 77.656L176.3 77.32C176.492 78.604 176.012 79.228 175.268 79.228C174.608 79.228 174.044 78.796 174.044 78.04C174.044 77.26 174.632 76.768 175.268 76.768C175.916 76.768 176.444 77.224 176.444 78.304C176.444 80.284 175.172 81.352 172.988 81.868L173.792 82.648C176.576 81.82 177.368 80.02 177.368 78.388C177.368 77.008 176.66 75.976 175.268 75.976C174.128 75.976 173.144 76.864 173.144 78.052C173.144 79.36 174.116 80.068 175.124 80.068C176.216 80.068 176.96 79.264 176.96 77.656Z" fill="#4A4A4A"/>
<path d="M35.88 10.8321V19.2521H36.56V11.5021H38.09V10.8321H35.88ZM37.74 10.8321V16.9421C37.74 17.0521 37.7 17.0821 37.61 17.0821C37.5 17.0821 37.22 17.0821 36.87 17.0821C36.97 17.2721 37.07 17.5821 37.09 17.7721C37.61 17.7721 37.92 17.7621 38.14 17.6321C38.35 17.5021 38.41 17.2821 38.41 16.9521V10.8321H37.74ZM32.68 10.0521C32.48 11.0321 32.12 12.0221 31.64 12.6721C31.81 12.7521 32.1 12.9421 32.23 13.0421C32.71 12.3321 33.11 11.2621 33.36 10.1821L32.68 10.0521ZM32.67 11.1321L32.45 11.8121H35.48V11.1321H32.67ZM31.86 13.3821V14.0621H35.54V13.3821H31.86ZM33.87 15.2821V15.9421H35.48V15.2821H33.87ZM32.13 14.8221V18.3021L32.73 18.1721V14.8221H32.13ZM31.56 18.0321L31.74 18.7221C32.81 18.5521 34.3 18.3221 35.7 18.0721L35.68 17.4421C34.15 17.6721 32.57 17.9021 31.56 18.0321ZM33.58 11.4021V18.0921L34.24 17.9621V11.4021H33.58ZM30.98 10.0521C30.62 10.7121 29.91 11.5321 29.27 12.0521C29.39 12.1821 29.59 12.4621 29.68 12.6121C30.39 12.0121 31.17 11.1121 31.66 10.3121L30.98 10.0521ZM31.19 12.0621C30.69 13.1121 29.91 14.1821 29.16 14.9021C29.29 15.0521 29.52 15.4021 29.6 15.5521C30.41 14.7321 31.28 13.4721 31.85 12.2921L31.19 12.0621ZM30.47 13.8821V19.2421H31.15V13.2121V13.1921L30.47 13.8821ZM36.19 29.4821V33.2221C36.19 33.9621 36.35 34.1921 37.06 34.1921C37.2 34.1921 37.79 34.1921 37.93 34.1921C38.56 34.1921 38.73 33.8021 38.79 32.4021C38.6 32.3521 38.31 32.2321 38.15 32.1121C38.12 33.3421 38.08 33.5621 37.86 33.5621C37.74 33.5621 37.28 33.5621 37.18 33.5621C36.96 33.5621 36.92 33.5121 36.92 33.2221V29.4821H36.19ZM34.2 26.4121H37.47V28.9421H34.2V26.4121ZM33.49 25.7221V29.6221H38.21V25.7221H33.49ZM29.55 26.9321V27.6221H32.67V26.9321H29.55ZM31.01 29.9221V34.2521H31.74V29.0421L31.01 29.9221ZM31.01 25.0621V27.2721H31.74V25.0621H31.01ZM31.74 29.1421L31.3 29.5421C31.7 29.9021 32.61 30.8621 32.95 31.3121L33.41 30.6821C33.15 30.4221 32.06 29.4021 31.74 29.1421ZM32.42 26.9321V27.0921C31.84 28.6121 30.48 30.1321 29.19 30.9321C29.31 31.0621 29.5 31.4121 29.57 31.6021C30.94 30.6821 32.41 29.0121 33.12 27.1821L32.7 26.9021L32.57 26.9321H32.42ZM34.49 29.3621C34.41 31.4821 34.2 32.9121 32.55 33.6921C32.72 33.8321 32.94 34.1021 33.03 34.2821C34.84 33.3721 35.12 31.7421 35.22 29.3621H34.49Z" fill="#4A4A4A"/>
<path d="M1 46.9395V48.9401H28.971C27.785 48.4417 26.359 47.784 24.7802 46.9395H1Z" fill="url(#paint0_linear_1301_8744)"/>
<path d="M35.8355 45.4683H33.2891V49.4557H35.8355V45.4683Z" fill="url(#paint1_linear_1301_8744)"/>
<path d="M9.64721 28.4521L7.85742 29.5009C15.7514 41.7091 27.6761 46.8942 31.7868 48.3861V46.2227C27.356 44.4747 16.6972 39.3554 9.64721 28.4521Z" fill="url(#paint2_linear_1301_8744)"/>
<path d="M65.9999 46.9395V48.9401H40.1606C41.3466 48.4417 42.7726 47.784 44.3514 46.9395H65.9999Z" fill="url(#paint3_linear_1301_8744)"/>
<path d="M59.4848 28.4521L61.2746 29.5009C53.3806 41.7091 41.4559 46.8942 37.3452 48.3861V46.2227C41.776 44.4747 52.4311 39.3589 59.4848 28.4521Z" fill="url(#paint4_linear_1301_8744)"/>
<circle cx="34.55" cy="67.0022" r="5.05" stroke="#4A4A4A"/>
<circle cx="34.55" cy="79.9523" r="5.05" stroke="#4A4A4A"/>
<circle cx="34.55" cy="92.9021" r="5.05" stroke="#4A4A4A"/>
<g clip-path="url(#clip0_1301_8744)">
<path d="M58.6266 12.1537L55.0925 8.98371L54.5 8.45215L53.9078 8.98371L50.3734 12.1537L50 12.487L50.052 13.0024L51.0255 22.6532L51.0623 23.0107L51.3086 23.2596L53.8694 25.8214L54.5 26.4521L55.1306 25.8214L57.6914 23.2596L57.9381 23.0107L57.9748 22.6532L58.9484 13.0021L59.0003 12.4867L58.6266 12.1534V12.1537ZM57.5107 18.0934L57.0608 22.5491L54.5 25.1127L51.9392 22.5491L51.4893 18.0934L51.48 17.9893L50.9659 12.898L54.5 9.72832L58.0341 12.898L57.5196 17.9893L57.5104 18.0934H57.5107Z" fill="url(#paint5_linear_1301_8744)"/>
<path d="M54.4998 10.5801L52.0694 12.7601L51.8738 12.9348L51.8741 12.9352L51.8701 12.9387L52.8864 14.018L53.6021 14.7837V14.7781L53.6074 14.7837V12.7647H54.2198V15.0797L54.0529 15.2566L53.9887 15.3248L53.9414 15.3698H53.9463L53.941 15.3754H54.1648L54.2198 15.4341V17.3375H54.7799V15.4341L54.8351 15.3754H54.9636L55.0546 15.3796L55.051 15.3754H55.0586L54.9467 15.2566L54.7799 15.0797V12.7647H55.3923V13.9488L55.3883 14.7798L55.3923 14.776V14.7837L56.9915 13.0853L57.1262 12.9429L57.1259 12.9426L57.1295 12.9387L54.4998 10.5801Z" fill="url(#paint6_linear_1301_8744)"/>
<path d="M53.6075 21.2323V21.2246L52.6277 22.2652L52.6257 22.2673L52.6221 22.2716L53.6075 23.3185V23.2876V22.0849L53.6115 21.2285L53.6075 21.2323Z" fill="url(#paint7_linear_1301_8744)"/>
<path d="M55.8027 21.6605L55.3979 21.2246V21.2302L55.3926 21.2246V23.2876V23.3185L56.3724 22.2775L56.3744 22.2754L56.3784 22.2716L55.8027 21.6605Z" fill="url(#paint8_linear_1301_8744)"/>
<path d="M53.6075 17.3372V16.3975L53.6115 15.7334L53.6075 15.7376V15.7295L52.725 16.6671L52.0938 17.3316H52.0994L52.0938 17.3372H53.6075Z" fill="url(#paint9_linear_1301_8744)"/>
<path d="M53.6074 20.3433V18.7338H52.7222L52.0959 18.73L52.0996 18.7338H52.0923L53.6074 20.3433Z" fill="url(#paint10_linear_1301_8744)"/>
<path d="M54.2197 18.7339V20.574V20.9934V23.9001V23.9683L54.4998 24.2657L54.7798 23.9683V23.9001V20.9934V20.574V18.7339H54.2197Z" fill="url(#paint11_linear_1301_8744)"/>
<path d="M55.3979 15.7295V15.7351L55.3926 15.7295V17.3372H56.9064L56.0242 16.4003L55.3979 15.7295Z" fill="url(#paint12_linear_1301_8744)"/>
<path d="M56.9024 18.7395L56.9077 18.7339H55.3926V20.3433L56.7657 18.8851L56.8471 18.7982L56.908 18.7395H56.9024Z" fill="url(#paint13_linear_1301_8744)"/>
<path d="M55.3926 17.6631H54.7802H54.2201H53.6077H52.0035L51.8813 17.7932V18.2808L52.0022 18.4091H53.6077H54.2201H54.7802H55.3926H56.9981L57.1192 18.2808V17.7932L56.9967 17.6631H55.3926Z" fill="url(#paint14_linear_1301_8744)"/>
</g>
<path d="M65.9102 1H1V104.904H65.9102V1Z" stroke="url(#paint15_linear_1301_8744)" stroke-miterlimit="10"/>
<defs>
<linearGradient id="paint0_linear_1301_8744" x1="-2.6848" y1="45.6712" x2="3.42027" y2="64.3122" gradientUnits="userSpaceOnUse">
<stop offset="0.0493823" stop-color="#FEAA69"/>
<stop offset="0.398301" stop-color="#FF8B7B"/>
<stop offset="0.952115" stop-color="#927DED"/>
</linearGradient>
<linearGradient id="paint1_linear_1301_8744" x1="32.9536" y1="42.9405" x2="38.5817" y2="43.7254" gradientUnits="userSpaceOnUse">
<stop offset="0.0493823" stop-color="#FEAA69"/>
<stop offset="0.398301" stop-color="#FF8B7B"/>
<stop offset="0.952115" stop-color="#927DED"/>
</linearGradient>
<linearGradient id="paint2_linear_1301_8744" x1="4.70505" y1="15.8155" x2="55.1543" y2="29.0418" gradientUnits="userSpaceOnUse">
<stop offset="0.0493823" stop-color="#FEAA69"/>
<stop offset="0.398301" stop-color="#FF8B7B"/>
<stop offset="0.952115" stop-color="#927DED"/>
</linearGradient>
<linearGradient id="paint3_linear_1301_8744" x1="36.7567" y1="45.6712" x2="43.2572" y2="64.0071" gradientUnits="userSpaceOnUse">
<stop offset="0.0493823" stop-color="#FEAA69"/>
<stop offset="0.398301" stop-color="#FF8B7B"/>
<stop offset="0.952115" stop-color="#927DED"/>
</linearGradient>
<linearGradient id="paint4_linear_1301_8744" x1="34.1928" y1="15.8155" x2="84.6421" y2="29.0418" gradientUnits="userSpaceOnUse">
<stop offset="0.0493823" stop-color="#FEAA69"/>
<stop offset="0.398301" stop-color="#FF8B7B"/>
<stop offset="0.952115" stop-color="#927DED"/>
</linearGradient>
<linearGradient id="paint5_linear_1301_8744" x1="48.8143" y1="-2.95856" x2="68.8546" y2="-0.770121" gradientUnits="userSpaceOnUse">
<stop offset="0.0493823" stop-color="#FEAA69"/>
<stop offset="0.398301" stop-color="#FF8B7B"/>
<stop offset="0.952115" stop-color="#927DED"/>
</linearGradient>
<linearGradient id="paint6_linear_1301_8744" x1="51.1773" y1="6.29638" x2="62.6947" y2="8.25414" gradientUnits="userSpaceOnUse">
<stop offset="0.0493823" stop-color="#FEAA69"/>
<stop offset="0.398301" stop-color="#FF8B7B"/>
<stop offset="0.952115" stop-color="#927DED"/>
</linearGradient>
<linearGradient id="paint7_linear_1301_8744" x1="52.4917" y1="19.8972" x2="54.6976" y2="20.1249" gradientUnits="userSpaceOnUse">
<stop offset="0.0493823" stop-color="#FEAA69"/>
<stop offset="0.398301" stop-color="#FF8B7B"/>
<stop offset="0.952115" stop-color="#927DED"/>
</linearGradient>
<linearGradient id="paint8_linear_1301_8744" x1="55.2627" y1="19.8972" x2="57.4606" y2="20.1232" gradientUnits="userSpaceOnUse">
<stop offset="0.0493823" stop-color="#FEAA69"/>
<stop offset="0.398301" stop-color="#FF8B7B"/>
<stop offset="0.952115" stop-color="#927DED"/>
</linearGradient>
<linearGradient id="paint9_linear_1301_8744" x1="51.8938" y1="14.7103" x2="55.1741" y2="15.3867" gradientUnits="userSpaceOnUse">
<stop offset="0.0493823" stop-color="#FEAA69"/>
<stop offset="0.398301" stop-color="#FF8B7B"/>
<stop offset="0.952115" stop-color="#927DED"/>
</linearGradient>
<linearGradient id="paint10_linear_1301_8744" x1="51.8927" y1="17.7073" x2="55.1687" y2="18.3792" gradientUnits="userSpaceOnUse">
<stop offset="0.0493823" stop-color="#FEAA69"/>
<stop offset="0.398301" stop-color="#FF8B7B"/>
<stop offset="0.952115" stop-color="#927DED"/>
</linearGradient>
<linearGradient id="paint11_linear_1301_8744" x1="54.1459" y1="15.2271" x2="55.4073" y2="15.255" gradientUnits="userSpaceOnUse">
<stop offset="0.0493823" stop-color="#FEAA69"/>
<stop offset="0.398301" stop-color="#FF8B7B"/>
<stop offset="0.952115" stop-color="#927DED"/>
</linearGradient>
<linearGradient id="paint12_linear_1301_8744" x1="55.1932" y1="14.7103" x2="58.4656" y2="15.3833" gradientUnits="userSpaceOnUse">
<stop offset="0.0493823" stop-color="#FEAA69"/>
<stop offset="0.398301" stop-color="#FF8B7B"/>
<stop offset="0.952115" stop-color="#927DED"/>
</linearGradient>
<linearGradient id="paint13_linear_1301_8744" x1="55.1929" y1="17.7136" x2="58.469" y2="18.3873" gradientUnits="userSpaceOnUse">
<stop offset="0.0493823" stop-color="#FEAA69"/>
<stop offset="0.398301" stop-color="#FF8B7B"/>
<stop offset="0.952115" stop-color="#927DED"/>
</linearGradient>
<linearGradient id="paint14_linear_1301_8744" x1="51.1913" y1="17.1902" x2="54.7129" y2="22.5901" gradientUnits="userSpaceOnUse">
<stop offset="0.0493823" stop-color="#FEAA69"/>
<stop offset="0.398301" stop-color="#FF8B7B"/>
<stop offset="0.952115" stop-color="#927DED"/>
</linearGradient>
<linearGradient id="paint15_linear_1301_8744" x1="-7.55105" y1="-64.8677" x2="136.029" y2="-45.2783" gradientUnits="userSpaceOnUse">
<stop offset="0.0493823" stop-color="#FEAA69"/>
<stop offset="0.398301" stop-color="#FF8B7B"/>
<stop offset="0.952115" stop-color="#927DED"/>
</linearGradient>
<clipPath id="clip0_1301_8744">
<rect width="9" height="18" fill="white" transform="translate(50 8.45215)"/>
</clipPath>
</defs>
</svg>
