<svg width="207" height="106" viewBox="0 0 207 106" fill="none" xmlns="http://www.w3.org/2000/svg">
<path d="M87.044 13.24V18.742H88.094V13.24H87.044ZM85.224 24.454V25.42H90.222V24.454H85.224ZM83.796 15.228V16.194H91.44V15.228H83.796ZM84.244 18.294V19.26H91.132V18.294H84.244ZM84.692 20.786V26.106H85.672V21.738H89.718V26.078H90.74V20.786H84.692ZM80.73 13.254C80.366 14.178 79.722 15.522 79.19 16.334L79.918 16.642C80.464 15.886 81.136 14.64 81.668 13.604L80.73 13.254ZM82.424 14.85C81.654 16.334 80.324 18.434 79.246 19.68L79.918 20.03C80.982 18.826 82.354 16.81 83.334 15.242L82.424 14.85ZM78.518 16.194C79.274 16.866 80.156 17.832 80.534 18.49L81.094 17.692C80.716 17.076 79.834 16.152 79.05 15.494L78.518 16.194ZM81.976 18.098C82.55 19.022 83.11 20.24 83.32 21.024L84.16 20.632C83.95 19.862 83.348 18.658 82.76 17.762L81.976 18.098ZM78.49 19.512L78.574 20.45C79.876 20.394 81.64 20.282 83.376 20.17L83.39 19.316C81.57 19.4 79.75 19.47 78.49 19.512ZM82.326 21.444C82.718 22.312 83.096 23.446 83.222 24.174L84.076 23.88C83.922 23.152 83.53 22.046 83.124 21.192L82.326 21.444ZM79.26 21.248C79.092 22.48 78.812 23.726 78.35 24.58C78.574 24.678 78.994 24.874 79.176 24.986C79.624 24.09 79.974 22.732 80.17 21.416L79.26 21.248ZM80.87 19.918V26.162H81.822V19.918H80.87ZM102.416 14.878L101.324 15.186C102.15 18.056 103.102 20.142 104.656 21.794L105.384 20.814C103.326 18.952 102.71 16.572 102.416 14.878ZM93.666 15.62L93.75 16.796C94.044 16.754 94.282 16.712 94.548 16.684C95.052 16.614 96.2 16.474 96.914 16.362C95.682 17.762 94.31 19.764 94.31 22.382C94.31 24.692 95.906 25.924 98.118 25.924C102.5 25.924 103.298 21.598 102.57 17.594L101.548 15.704C102.612 21.192 101.478 24.776 98.146 24.776C96.704 24.776 95.402 24.118 95.402 22.144C95.402 19.26 97.544 16.81 98.426 16.152C98.636 16.068 98.986 15.97 99.168 15.914L98.846 14.92C98.02 15.242 95.668 15.564 94.422 15.62C94.17 15.634 93.876 15.634 93.666 15.62ZM103.648 14.08L102.948 14.332C103.256 14.864 103.62 15.69 103.872 16.32L104.6 16.054C104.362 15.48 103.928 14.612 103.648 14.08ZM105.076 13.534L104.39 13.8C104.712 14.332 105.076 15.144 105.328 15.774L106.07 15.494C105.804 14.906 105.37 14.052 105.076 13.534ZM109.346 15.41L109.416 16.432C111.418 16.628 113.378 16.628 114.792 16.488C115.912 16.39 117.102 16.152 118.012 15.886L117.858 14.864C116.85 15.2 115.702 15.438 114.554 15.536C113.126 15.676 111.292 15.648 109.346 15.41ZM109.066 18.28L109.136 19.33C111.544 19.512 114.134 19.47 115.856 19.246C117.032 19.106 118.096 18.896 118.866 18.686L118.684 17.65C117.942 17.874 116.808 18.154 115.478 18.294C113.84 18.49 111.46 18.532 109.066 18.28ZM113.854 15.228C114.05 15.928 114.26 16.67 114.61 17.636C115.016 18.77 115.604 20.114 116.374 21.318C115.94 21.262 115.03 21.164 114.274 21.094L114.19 21.948C115.156 22.046 116.458 22.186 117.242 22.382L117.83 21.528C117.62 21.346 117.452 21.15 117.298 20.926C116.57 19.848 115.954 18.504 115.576 17.412C115.226 16.418 114.792 15.004 114.652 13.828L113.462 13.982C113.616 14.388 113.742 14.822 113.854 15.228ZM111.11 21.304L110.018 21.066C109.696 21.682 109.458 22.27 109.458 23.068C109.486 24.874 111.026 25.686 113.756 25.686C114.96 25.686 116.052 25.602 117.032 25.434L117.088 24.328C116.066 24.524 115.044 24.622 113.742 24.622C111.544 24.622 110.522 24.034 110.522 22.886C110.522 22.256 110.774 21.78 111.11 21.304ZM125.992 13.954L124.774 13.912C124.746 14.304 124.718 14.696 124.662 15.116C124.494 16.264 124.228 18.322 124.228 19.652C124.228 20.562 124.298 21.346 124.368 21.878L125.46 21.794C125.362 21.094 125.362 20.604 125.432 20.072C125.6 18.238 127.224 15.69 128.974 15.69C130.444 15.69 131.186 17.286 131.186 19.498C131.186 23.012 128.82 24.244 125.768 24.706L126.44 25.714C129.898 25.084 132.348 23.362 132.348 19.484C132.348 16.544 131.004 14.668 129.156 14.668C127.378 14.668 125.922 16.418 125.348 17.86C125.432 16.88 125.698 14.99 125.992 13.954ZM139.026 27.758L139.81 27.394C138.606 25.406 138.018 23.04 138.018 20.66C138.018 18.28 138.606 15.914 139.81 13.926L139.026 13.548C137.724 15.648 136.954 17.916 136.954 20.66C136.954 23.418 137.724 25.658 139.026 27.758ZM147.144 18.924C148.572 20.212 150.364 22.004 151.204 23.11L152.072 22.438C151.176 21.346 149.356 19.596 147.928 18.364L147.144 18.924ZM147.298 13.24V15.984C147.298 17.916 147.116 20.618 143.616 22.508C143.854 22.69 144.218 23.068 144.358 23.292C147.97 21.178 148.376 18.224 148.376 15.984V13.24H147.298ZM142.202 15.634V26.148H143.252V16.67H152.912V15.634H142.202ZM152.436 15.634V24.734C152.436 24.972 152.352 25.056 152.086 25.07C151.806 25.084 150.854 25.084 149.86 25.042C150 25.336 150.168 25.826 150.21 26.12C151.47 26.12 152.338 26.106 152.828 25.938C153.304 25.756 153.472 25.42 153.472 24.734V15.634H152.436ZM165.316 19.442V24.678C165.316 25.714 165.54 26.036 166.534 26.036C166.73 26.036 167.556 26.036 167.752 26.036C168.634 26.036 168.872 25.49 168.956 23.53C168.69 23.46 168.284 23.292 168.06 23.124C168.018 24.846 167.962 25.154 167.654 25.154C167.486 25.154 166.842 25.154 166.702 25.154C166.394 25.154 166.338 25.084 166.338 24.678V19.442H165.316ZM162.53 15.144H167.108V18.686H162.53V15.144ZM161.536 14.178V19.638H168.144V14.178H161.536ZM156.02 15.872V16.838H160.388V15.872H156.02ZM158.064 20.058V26.12H159.086V18.826L158.064 20.058ZM158.064 13.254V16.348H159.086V13.254H158.064ZM159.086 18.966L158.47 19.526C159.03 20.03 160.304 21.374 160.78 22.004L161.424 21.122C161.06 20.758 159.534 19.33 159.086 18.966ZM160.038 15.872V16.096C159.226 18.224 157.322 20.352 155.516 21.472C155.684 21.654 155.95 22.144 156.048 22.41C157.966 21.122 160.024 18.784 161.018 16.222L160.43 15.83L160.248 15.872H160.038ZM162.936 19.274C162.824 22.242 162.53 24.244 160.22 25.336C160.458 25.532 160.766 25.91 160.892 26.162C163.426 24.888 163.818 22.606 163.958 19.274H162.936ZM171.056 27.758C172.344 25.658 173.114 23.418 173.114 20.66C173.114 17.916 172.344 15.648 171.056 13.548L170.258 13.926C171.462 15.914 172.05 18.28 172.05 20.66C172.05 23.04 171.462 25.406 170.258 27.394L171.056 27.758Z" fill="#4A4A4A"/>
<rect x="53" y="70" width="25" height="1" fill="#4A4A4A"/>
<path d="M90.044 61.976V62.816H94.508V61.976H90.044ZM83.732 59.18V59.948H89.024V59.18H83.732ZM83.6 63.944V64.724H89.084V63.944H83.6ZM83.564 61.928V62.696H89.168V61.928H83.564ZM92.276 62.312V68.9H93.152V62.312H92.276ZM85.952 57.968V59.576H86.828V57.968H85.952ZM85.952 62.552V68.948H86.828V62.552H85.952ZM89.612 58.904V63.104C89.612 64.808 89.444 66.884 87.908 68.396C88.124 68.516 88.448 68.816 88.556 69.02C90.248 67.352 90.464 64.916 90.464 63.116V59.408C90.632 59.384 90.704 59.336 90.716 59.24L89.612 58.904ZM93.632 58.064C92.756 58.496 91.172 58.916 89.828 59.204C89.936 59.384 90.056 59.696 90.104 59.888C91.544 59.636 93.224 59.228 94.352 58.724L93.632 58.064ZM86.744 64.952L86.252 65.36C86.696 65.732 87.824 66.788 88.208 67.232L88.736 66.56C88.436 66.284 87.128 65.216 86.744 64.952ZM84.452 60.164C84.692 60.716 84.884 61.436 84.92 61.904L85.676 61.7C85.616 61.244 85.412 60.536 85.16 60.008L84.452 60.164ZM87.524 59.984C87.392 60.488 87.14 61.232 86.924 61.712L87.644 61.88C87.86 61.436 88.112 60.764 88.34 60.164L87.524 59.984ZM85.964 64.34C85.388 65.516 84.296 66.812 83.324 67.448C83.528 67.592 83.792 67.88 83.936 68.084C84.896 67.34 86 65.924 86.612 64.592L85.964 64.34ZM97.064 61.556V62.3H100.748V61.556H97.064ZM96.632 59.42V67.64L97.472 67.496V59.42H96.632ZM98.516 57.968V59.984H99.38V57.968H98.516ZM95.804 67.508L96.044 68.432C97.268 68.108 98.936 67.64 100.508 67.196L100.412 66.32C98.708 66.764 96.944 67.244 95.804 67.508ZM99.02 65.216C99.752 66.2 100.556 67.544 100.88 68.384L101.684 67.964C101.324 67.124 100.496 65.816 99.74 64.856L99.02 65.216ZM97.028 59.42V60.26H100.4V63.608H97.028V64.448H101.228V59.42H97.028ZM102.2 58.688V69.008H103.076V59.54H106.04V58.688H102.2ZM105.812 58.688V58.988C105.392 59.948 104.684 61.592 104.012 62.804C105.344 63.848 105.752 64.736 105.752 65.492C105.752 65.924 105.656 66.26 105.38 66.416C105.212 66.512 105.008 66.548 104.804 66.56C104.528 66.572 104.156 66.572 103.772 66.536C103.928 66.8 104.024 67.196 104.036 67.448C104.408 67.472 104.84 67.472 105.176 67.436C105.512 67.4 105.788 67.304 106.016 67.172C106.472 66.872 106.664 66.32 106.652 65.576C106.652 64.724 106.328 63.776 104.996 62.672C105.596 61.592 106.28 60.236 106.808 59.084L106.136 58.652L105.992 58.688H105.812ZM114.764 61.976V62.816H119.228V61.976H114.764ZM108.452 59.18V59.948H113.744V59.18H108.452ZM108.32 63.944V64.724H113.804V63.944H108.32ZM108.284 61.928V62.696H113.888V61.928H108.284ZM116.996 62.312V68.9H117.872V62.312H116.996ZM110.672 57.968V59.576H111.548V57.968H110.672ZM110.672 62.552V68.948H111.548V62.552H110.672ZM114.332 58.904V63.104C114.332 64.808 114.164 66.884 112.628 68.396C112.844 68.516 113.168 68.816 113.276 69.02C114.968 67.352 115.184 64.916 115.184 63.116V59.408C115.352 59.384 115.424 59.336 115.436 59.24L114.332 58.904ZM118.352 58.064C117.476 58.496 115.892 58.916 114.548 59.204C114.656 59.384 114.776 59.696 114.824 59.888C116.264 59.636 117.944 59.228 119.072 58.724L118.352 58.064ZM111.464 64.952L110.972 65.36C111.416 65.732 112.544 66.788 112.928 67.232L113.456 66.56C113.156 66.284 111.848 65.216 111.464 64.952ZM109.172 60.164C109.412 60.716 109.604 61.436 109.64 61.904L110.396 61.7C110.336 61.244 110.132 60.536 109.88 60.008L109.172 60.164ZM112.244 59.984C112.112 60.488 111.86 61.232 111.644 61.712L112.364 61.88C112.58 61.436 112.832 60.764 113.06 60.164L112.244 59.984ZM110.684 64.34C110.108 65.516 109.016 66.812 108.044 67.448C108.248 67.592 108.512 67.88 108.656 68.084C109.616 67.34 110.72 65.924 111.332 64.592L110.684 64.34ZM125.564 59.768V60.416H130.28V59.768H125.564ZM125.312 58.304V58.976H129.788V61.232H125.228V61.904H130.652V58.304H125.312ZM124.724 62.6V64.46H125.528V63.284H130.592V64.46H131.42V62.6H124.724ZM127.58 63.164V68.972H128.432V63.164H127.58ZM125.324 64.532V68.12H126.152V65.288H130.412V64.532H125.324ZM129.968 64.532V67.22C129.968 67.34 129.944 67.364 129.824 67.364C129.692 67.376 129.356 67.376 128.924 67.364C129.032 67.58 129.152 67.892 129.176 68.12C129.8 68.12 130.196 68.12 130.472 67.988C130.748 67.844 130.808 67.616 130.808 67.244V64.532H129.968ZM120.56 60.404V61.232H124.076V60.404H120.56ZM122.12 57.932C121.784 60.188 121.172 63.38 120.716 65.18L121.436 65.6C121.916 63.608 122.552 60.392 122.96 58.004L122.12 57.932ZM121.088 64.772C122.276 65.672 123.668 66.98 124.304 67.88L124.844 67.16C124.208 66.284 122.792 65.024 121.604 64.148L121.088 64.772ZM123.716 60.404V60.584C123.5 64.64 122.432 67.196 120.608 68.264C120.812 68.444 121.04 68.756 121.16 68.972C123.188 67.64 124.292 65.096 124.556 60.452L124.028 60.38L123.872 60.404H123.716ZM139.196 59.816L138.2 59.792C138.08 61.04 137.828 62.396 137.48 63.536C136.868 65.564 136.22 66.38 135.656 66.38C135.116 66.38 134.432 65.708 134.432 64.196C134.432 62.432 136.076 60.26 138.716 60.26C141.02 60.26 142.352 61.844 142.352 63.764C142.352 65.84 140.84 66.992 139.304 67.34C139.016 67.4 138.656 67.448 138.272 67.484L138.824 68.372C141.68 68 143.336 66.32 143.336 63.812C143.336 61.376 141.548 59.396 138.74 59.396C135.8 59.396 133.484 61.664 133.484 64.268C133.484 66.26 134.552 67.484 135.632 67.484C136.736 67.484 137.696 66.212 138.428 63.752C138.8 62.468 139.04 61.064 139.196 59.816ZM149.72 58.424H148.664C148.7 58.616 148.724 59.036 148.724 59.264C148.724 59.756 148.676 61.712 148.676 63.092C148.676 64.424 148.736 66.092 148.736 66.788C148.736 67.184 148.58 67.376 148.304 67.376C147.836 67.376 146.996 66.896 146.996 66.356C146.996 65.744 147.92 64.94 149.096 64.484C150.116 64.076 151.1 63.848 152.18 63.848C153.308 63.848 154.232 64.388 154.232 65.408C154.232 66.524 153.272 67.088 152.228 67.292C151.772 67.388 151.268 67.376 150.812 67.376L151.148 68.336C151.568 68.312 152.108 68.288 152.636 68.168C154.292 67.784 155.204 66.86 155.204 65.408C155.204 63.968 153.944 63.02 152.18 63.02C151.232 63.02 150.032 63.236 148.964 63.656C147.476 64.22 146.048 65.336 146.048 66.392C146.048 67.472 147.608 68.384 148.544 68.384C149.204 68.384 149.612 68.024 149.612 66.92C149.612 66.164 149.552 64.292 149.552 63.044C149.552 61.796 149.612 59.96 149.648 59.252C149.66 58.964 149.684 58.64 149.72 58.424ZM153.452 59.756L153.008 60.476C153.776 60.884 155.12 61.712 155.708 62.264L156.188 61.496C155.612 61.016 154.304 60.2 153.452 59.756ZM146.252 60.572L146.276 61.496C146.672 61.532 147.128 61.556 147.8 61.556C148.88 61.556 150.848 61.292 152.084 60.992L152.06 60.056C150.872 60.416 148.964 60.668 147.776 60.668C147.344 60.668 146.912 60.656 146.252 60.572ZM161.528 67.652V68.48H167.324V67.652H161.528ZM161.12 59.132V59.936H165.524V59.132H161.12ZM161.66 57.884C160.964 59.192 159.584 60.74 157.604 61.82C157.808 61.976 158.108 62.288 158.24 62.516C160.328 61.28 161.768 59.648 162.668 58.088L161.66 57.884ZM165.224 59.132V59.288C163.976 62.444 160.652 64.796 157.544 65.696C157.736 65.888 157.964 66.26 158.072 66.5C161.336 65.444 164.72 63.032 166.16 59.408L165.56 59.084L165.392 59.132H165.224ZM159.62 61.268C160.568 61.94 161.708 62.948 162.212 63.632L162.944 62.984C162.392 62.3 161.24 61.34 160.292 60.692L159.62 61.268ZM166.88 63.86V68.984H167.804V63.86H166.88ZM161.936 63.86H161.756L161.036 64.568V68.96H161.936V64.688H167.336V63.86H161.936ZM170.156 59.816V60.656H180.884V59.816H170.156ZM171.392 63.68V64.388H174.752V63.68H171.392ZM171.392 65.6V66.308H174.752V65.6H171.392ZM176.756 61.832V66.764H177.608V61.832H176.756ZM174.428 61.724V67.916C174.428 68.072 174.38 68.12 174.212 68.132C174.044 68.144 173.492 68.144 172.892 68.12C173.012 68.348 173.144 68.684 173.192 68.912C174.008 68.912 174.536 68.912 174.86 68.768C175.196 68.624 175.304 68.384 175.304 67.928V61.724H174.428ZM179.192 61.472V67.844C179.192 68.012 179.132 68.06 178.94 68.072C178.736 68.084 178.088 68.084 177.356 68.06C177.488 68.3 177.632 68.684 177.68 68.924C178.616 68.924 179.216 68.9 179.588 68.768C179.96 68.624 180.08 68.372 180.08 67.844V61.472H179.192ZM172.016 58.22C172.472 58.736 172.964 59.468 173.156 59.924L174.044 59.6C173.816 59.132 173.312 58.424 172.844 57.908L172.016 58.22ZM178.184 57.872C177.884 58.52 177.344 59.444 176.912 60.02L177.704 60.32C178.148 59.756 178.688 58.928 179.144 58.184L178.184 57.872ZM170.912 61.724V68.9H171.764V62.504H174.716V61.724H170.912ZM183.032 60.44L183.104 61.34C183.548 61.352 184.064 61.364 184.508 61.364C185.972 61.376 187.544 61.112 188.72 60.788L188.696 59.9C187.316 60.356 185.804 60.512 184.508 60.512C183.992 60.512 183.476 60.488 183.032 60.44ZM187.292 58.484L186.236 58.376C186.2 59.216 185.936 60.272 185.672 61.028C185.18 62.444 184.064 64.58 182.996 65.828L183.92 66.308C184.916 64.964 186.02 62.78 186.596 61.052C186.884 60.2 187.136 59.072 187.292 58.484ZM190.124 62.192H189.176C189.224 63.512 189.356 65.66 189.356 66.572C189.356 67.22 189.02 67.748 188.024 67.748C187.088 67.748 186.62 67.364 186.62 66.812C186.62 66.26 187.22 65.852 188.108 65.852C189.872 65.852 191.252 66.92 192.176 67.76L192.68 66.944C191.696 66.092 190.148 65.084 188.132 65.084C186.788 65.084 185.744 65.78 185.744 66.884C185.744 68.084 186.812 68.612 188.132 68.612C189.62 68.612 190.232 67.832 190.232 66.872C190.232 66.08 190.124 64.256 190.1 63.476C190.088 63.044 190.088 62.684 190.124 62.192ZM192.524 62.504L193.064 61.712C192.488 61.28 191.132 60.5 190.256 60.128L189.776 60.848C190.568 61.22 191.876 61.952 192.524 62.504ZM203.36 61.16L202.88 60.284C202.628 60.5 202.364 60.656 202.016 60.86C201.236 61.292 199.832 61.952 198.608 62.768C197.204 63.704 196.328 64.724 196.328 66.02C196.328 67.82 197.96 68.492 200.216 68.492C201.716 68.492 203.108 68.36 204.008 68.204L204.02 67.124C203.084 67.364 201.476 67.532 200.168 67.532C198.272 67.532 197.324 66.908 197.324 65.912C197.324 65.012 197.996 64.22 199.112 63.488C200.288 62.708 201.62 62.084 202.436 61.664C202.784 61.484 203.084 61.328 203.36 61.16ZM197.612 58.82L196.664 59.228C197.312 60.716 198.032 62.336 198.632 63.32L199.46 62.816C198.896 61.856 198.164 60.356 197.612 58.82ZM203.564 58.7L202.916 58.976C203.252 59.432 203.648 60.164 203.888 60.656L204.536 60.356C204.296 59.864 203.864 59.144 203.564 58.7ZM204.884 58.22L204.248 58.496C204.596 58.94 204.98 59.636 205.244 60.152L205.892 59.864C205.664 59.42 205.196 58.664 204.884 58.22ZM88.088 72.688L86.972 72.568C86.972 73.492 86.816 74.572 86.588 75.532C86.264 76.996 85.304 80.2 83.936 82.036L84.92 82.42C86.276 80.236 87.128 77.248 87.536 75.556C87.704 74.812 87.86 73.828 87.944 73.396C87.992 73.168 88.04 72.904 88.088 72.688ZM92.216 74.068L91.34 74.464C92.18 75.46 93.128 77.548 93.476 78.772L94.412 78.328C94.004 77.224 92.96 75.04 92.216 74.068ZM83.768 75.316L83.864 76.36C84.176 76.312 84.668 76.252 84.944 76.216C85.676 76.144 87.932 75.868 88.736 75.868C89.504 75.868 90.008 76.072 90.008 77.176C90.008 78.472 89.816 80.032 89.432 80.848C89.192 81.364 88.832 81.46 88.388 81.46C88.052 81.46 87.416 81.376 86.912 81.22L87.08 82.216C87.452 82.312 88.028 82.396 88.484 82.396C89.264 82.396 89.864 82.192 90.236 81.388C90.74 80.392 90.932 78.484 90.932 77.056C90.932 75.436 90.056 75.028 88.988 75.028C88.172 75.028 85.736 75.292 84.836 75.316C84.452 75.328 84.14 75.34 83.768 75.316ZM92.348 72.328L91.7 72.604C92.036 73.06 92.444 73.78 92.684 74.272L93.332 73.984C93.08 73.492 92.648 72.76 92.348 72.328ZM93.668 71.848L93.032 72.124C93.38 72.568 93.776 73.252 94.028 73.78L94.688 73.492C94.448 73.048 93.992 72.292 93.668 71.848ZM98.084 72.652V73.564H101.48V72.652H98.084ZM101.024 72.652C101.024 74.908 101.42 80.02 106.22 82.924C106.388 82.708 106.748 82.324 106.952 82.168C102.212 79.36 101.948 74.8 101.948 72.652H101.024ZM100.688 75.004C99.956 78.4 98.456 80.824 95.792 82.216C96.032 82.384 96.44 82.756 96.608 82.948C99.26 81.388 100.844 78.856 101.708 75.196L100.688 75.004ZM111.776 72.532L110.732 72.496C110.708 72.832 110.684 73.168 110.636 73.528C110.492 74.512 110.264 76.276 110.264 77.416C110.264 78.196 110.324 78.868 110.384 79.324L111.32 79.252C111.236 78.652 111.236 78.232 111.296 77.776C111.44 76.204 112.832 74.02 114.332 74.02C115.592 74.02 116.228 75.388 116.228 77.284C116.228 80.296 114.2 81.352 111.584 81.748L112.16 82.612C115.124 82.072 117.224 80.596 117.224 77.272C117.224 74.752 116.072 73.144 114.488 73.144C112.964 73.144 111.716 74.644 111.224 75.88C111.296 75.04 111.524 73.42 111.776 72.532ZM126.944 72.484H125.924C125.96 72.64 125.972 73 125.972 73.204C125.972 74.044 125.972 75.304 125.972 76.384C125.972 77.44 126.092 79.744 126.092 80.668C126.092 81.508 125.504 81.712 124.808 81.712C123.62 81.712 123.152 81.304 123.152 80.74C123.152 80.188 123.764 79.744 124.916 79.744C127.052 79.744 128.828 80.944 129.908 81.94L130.46 81.088C129.536 80.332 127.556 78.964 125.024 78.964C123.296 78.964 122.252 79.696 122.252 80.788C122.252 81.952 123.2 82.564 124.928 82.564C126.488 82.564 127.04 81.712 127.04 80.872C127.04 80.068 126.86 77.968 126.86 76.384C126.86 75.376 126.86 73.768 126.884 73.288C126.896 72.928 126.92 72.688 126.944 72.484ZM122.36 73.78L122.372 74.668C123.128 74.764 124.604 74.872 125.432 74.872C127.04 74.872 128.756 74.716 130.112 74.56V73.684C128.552 73.936 126.944 74.044 125.42 74.044C124.628 74.044 123.128 73.924 122.36 73.78ZM122.3 76.336L122.312 77.236C123.164 77.332 124.484 77.392 125.312 77.392C127.112 77.392 128.576 77.308 130.208 77.104V76.204C128.648 76.432 127.052 76.552 125.312 76.552C124.52 76.552 123.152 76.468 122.3 76.336ZM139.964 72.496H138.86C138.884 72.604 138.92 72.94 138.944 73.264C138.98 73.924 138.992 76.312 138.992 76.84L139.904 77.308C139.892 76.348 139.868 74.032 139.904 73.252C139.904 73.108 139.94 72.64 139.964 72.496ZM133.58 74.176L133.604 75.1C135.416 74.968 137.984 74.884 140.048 74.884C141.812 74.884 142.892 74.908 143.564 74.944L143.576 74.056C143.012 74.044 141.524 74.044 140.06 74.044C138.212 74.044 135.212 74.152 133.58 74.176ZM139.88 77.656L139.22 77.32C139.412 78.604 138.932 79.228 138.188 79.228C137.528 79.228 136.964 78.796 136.964 78.04C136.964 77.26 137.552 76.768 138.188 76.768C138.836 76.768 139.364 77.224 139.364 78.304C139.364 80.284 138.092 81.352 135.908 81.868L136.712 82.648C139.496 81.82 140.288 80.02 140.288 78.388C140.288 77.008 139.58 75.976 138.188 75.976C137.048 75.976 136.064 76.864 136.064 78.052C136.064 79.36 137.036 80.068 138.044 80.068C139.136 80.068 139.88 79.264 139.88 77.656Z" fill="#4A4A4A"/>
<path d="M33.51 14.1121C34.53 15.0321 35.81 16.3121 36.41 17.1021L37.03 16.6221C36.39 15.8421 35.09 14.5921 34.07 13.7121L33.51 14.1121ZM33.62 10.0521V12.0121C33.62 13.3921 33.49 15.3221 30.99 16.6721C31.16 16.8021 31.42 17.0721 31.52 17.2321C34.1 15.7221 34.39 13.6121 34.39 12.0121V10.0521H33.62ZM29.98 11.7621V19.2721H30.73V12.5021H37.63V11.7621H29.98ZM37.29 11.7621V18.2621C37.29 18.4321 37.23 18.4921 37.04 18.5021C36.84 18.5121 36.16 18.5121 35.45 18.4821C35.55 18.6921 35.67 19.0421 35.7 19.2521C36.6 19.2521 37.22 19.2421 37.57 19.1221C37.91 18.9921 38.03 18.7521 38.03 18.2621V11.7621H37.29ZM36.19 29.4821V33.2221C36.19 33.9621 36.35 34.1921 37.06 34.1921C37.2 34.1921 37.79 34.1921 37.93 34.1921C38.56 34.1921 38.73 33.8021 38.79 32.4021C38.6 32.3521 38.31 32.2321 38.15 32.1121C38.12 33.3421 38.08 33.5621 37.86 33.5621C37.74 33.5621 37.28 33.5621 37.18 33.5621C36.96 33.5621 36.92 33.5121 36.92 33.2221V29.4821H36.19ZM34.2 26.4121H37.47V28.9421H34.2V26.4121ZM33.49 25.7221V29.6221H38.21V25.7221H33.49ZM29.55 26.9321V27.6221H32.67V26.9321H29.55ZM31.01 29.9221V34.2521H31.74V29.0421L31.01 29.9221ZM31.01 25.0621V27.2721H31.74V25.0621H31.01ZM31.74 29.1421L31.3 29.5421C31.7 29.9021 32.61 30.8621 32.95 31.3121L33.41 30.6821C33.15 30.4221 32.06 29.4021 31.74 29.1421ZM32.42 26.9321V27.0921C31.84 28.6121 30.48 30.1321 29.19 30.9321C29.31 31.0621 29.5 31.4121 29.57 31.6021C30.94 30.6821 32.41 29.0121 33.12 27.1821L32.7 26.9021L32.57 26.9321H32.42ZM34.49 29.3621C34.41 31.4821 34.2 32.9121 32.55 33.6921C32.72 33.8321 32.94 34.1021 33.03 34.2821C34.84 33.3721 35.12 31.7421 35.22 29.3621H34.49Z" fill="#4A4A4A"/>
<path d="M1 46.9395V48.9401H28.971C27.785 48.4417 26.359 47.784 24.7802 46.9395H1Z" fill="url(#paint0_linear_1301_8745)"/>
<path d="M35.8355 45.4683H33.2891V49.4557H35.8355V45.4683Z" fill="url(#paint1_linear_1301_8745)"/>
<path d="M9.64721 28.4521L7.85742 29.5009C15.7514 41.7091 27.6761 46.8942 31.7868 48.3861V46.2227C27.356 44.4747 16.6972 39.3554 9.64721 28.4521Z" fill="url(#paint2_linear_1301_8745)"/>
<path d="M65.9999 46.9395V48.9401H40.1606C41.3466 48.4417 42.7726 47.784 44.3514 46.9395H65.9999Z" fill="url(#paint3_linear_1301_8745)"/>
<path d="M59.4848 28.4521L61.2746 29.5009C53.3806 41.7091 41.4559 46.8942 37.3452 48.3861V46.2227C41.776 44.4747 52.4311 39.3589 59.4848 28.4521Z" fill="url(#paint4_linear_1301_8745)"/>
<circle cx="26.55" cy="67.0022" r="5.05" stroke="#4A4A4A"/>
<circle cx="26.55" cy="79.9523" r="5.05" stroke="#4A4A4A"/>
<circle cx="26.55" cy="92.9021" r="5.05" stroke="#4A4A4A"/>
<circle cx="40.55" cy="67.0022" r="5.05" stroke="#4A4A4A"/>
<circle cx="40.55" cy="79.9523" r="5.05" stroke="#4A4A4A"/>
<circle cx="40.55" cy="92.9021" r="5.05" stroke="#4A4A4A"/>
<g clip-path="url(#clip0_1301_8745)">
<path d="M58.6266 12.1537L55.0925 8.98371L54.5 8.45215L53.9078 8.98371L50.3734 12.1537L50 12.487L50.052 13.0024L51.0255 22.6532L51.0623 23.0107L51.3086 23.2596L53.8694 25.8214L54.5 26.4521L55.1306 25.8214L57.6914 23.2596L57.9381 23.0107L57.9748 22.6532L58.9484 13.0021L59.0003 12.4867L58.6266 12.1534V12.1537ZM57.5107 18.0934L57.0608 22.5491L54.5 25.1127L51.9392 22.5491L51.4893 18.0934L51.48 17.9893L50.9659 12.898L54.5 9.72832L58.0341 12.898L57.5196 17.9893L57.5104 18.0934H57.5107Z" fill="url(#paint5_linear_1301_8745)"/>
<path d="M54.4998 10.5801L52.0694 12.7601L51.8738 12.9348L51.8741 12.9352L51.8701 12.9387L52.8864 14.018L53.6021 14.7837V14.7781L53.6074 14.7837V12.7647H54.2198V15.0797L54.0529 15.2566L53.9887 15.3248L53.9414 15.3698H53.9463L53.941 15.3754H54.1648L54.2198 15.4341V17.3375H54.7799V15.4341L54.8351 15.3754H54.9636L55.0546 15.3796L55.051 15.3754H55.0586L54.9467 15.2566L54.7799 15.0797V12.7647H55.3923V13.9488L55.3883 14.7798L55.3923 14.776V14.7837L56.9915 13.0853L57.1262 12.9429L57.1259 12.9426L57.1295 12.9387L54.4998 10.5801Z" fill="url(#paint6_linear_1301_8745)"/>
<path d="M53.6075 21.2323V21.2246L52.6277 22.2652L52.6257 22.2673L52.6221 22.2716L53.6075 23.3185V23.2876V22.0849L53.6115 21.2285L53.6075 21.2323Z" fill="url(#paint7_linear_1301_8745)"/>
<path d="M55.8027 21.6605L55.3979 21.2246V21.2302L55.3926 21.2246V23.2876V23.3185L56.3724 22.2775L56.3744 22.2754L56.3784 22.2716L55.8027 21.6605Z" fill="url(#paint8_linear_1301_8745)"/>
<path d="M53.6075 17.3372V16.3975L53.6115 15.7334L53.6075 15.7376V15.7295L52.725 16.6671L52.0938 17.3316H52.0994L52.0938 17.3372H53.6075Z" fill="url(#paint9_linear_1301_8745)"/>
<path d="M53.6074 20.3433V18.7338H52.7222L52.0959 18.73L52.0996 18.7338H52.0923L53.6074 20.3433Z" fill="url(#paint10_linear_1301_8745)"/>
<path d="M54.2197 18.7339V20.574V20.9934V23.9001V23.9683L54.4998 24.2657L54.7798 23.9683V23.9001V20.9934V20.574V18.7339H54.2197Z" fill="url(#paint11_linear_1301_8745)"/>
<path d="M55.3979 15.7295V15.7351L55.3926 15.7295V17.3372H56.9064L56.0242 16.4003L55.3979 15.7295Z" fill="url(#paint12_linear_1301_8745)"/>
<path d="M56.9024 18.7395L56.9077 18.7339H55.3926V20.3433L56.7657 18.8851L56.8471 18.7982L56.908 18.7395H56.9024Z" fill="url(#paint13_linear_1301_8745)"/>
<path d="M55.3926 17.6631H54.7802H54.2201H53.6077H52.0035L51.8813 17.7932V18.2808L52.0022 18.4091H53.6077H54.2201H54.7802H55.3926H56.9981L57.1192 18.2808V17.7932L56.9967 17.6631H55.3926Z" fill="url(#paint14_linear_1301_8745)"/>
</g>
<path d="M65.9102 1H1V104.904H65.9102V1Z" stroke="url(#paint15_linear_1301_8745)" stroke-miterlimit="10"/>
<defs>
<linearGradient id="paint0_linear_1301_8745" x1="-2.6848" y1="45.6712" x2="3.42027" y2="64.3122" gradientUnits="userSpaceOnUse">
<stop offset="0.0493823" stop-color="#FEAA69"/>
<stop offset="0.398301" stop-color="#FF8B7B"/>
<stop offset="0.952115" stop-color="#927DED"/>
</linearGradient>
<linearGradient id="paint1_linear_1301_8745" x1="32.9536" y1="42.9405" x2="38.5817" y2="43.7254" gradientUnits="userSpaceOnUse">
<stop offset="0.0493823" stop-color="#FEAA69"/>
<stop offset="0.398301" stop-color="#FF8B7B"/>
<stop offset="0.952115" stop-color="#927DED"/>
</linearGradient>
<linearGradient id="paint2_linear_1301_8745" x1="4.70505" y1="15.8155" x2="55.1543" y2="29.0418" gradientUnits="userSpaceOnUse">
<stop offset="0.0493823" stop-color="#FEAA69"/>
<stop offset="0.398301" stop-color="#FF8B7B"/>
<stop offset="0.952115" stop-color="#927DED"/>
</linearGradient>
<linearGradient id="paint3_linear_1301_8745" x1="36.7567" y1="45.6712" x2="43.2572" y2="64.0071" gradientUnits="userSpaceOnUse">
<stop offset="0.0493823" stop-color="#FEAA69"/>
<stop offset="0.398301" stop-color="#FF8B7B"/>
<stop offset="0.952115" stop-color="#927DED"/>
</linearGradient>
<linearGradient id="paint4_linear_1301_8745" x1="34.1928" y1="15.8155" x2="84.6421" y2="29.0418" gradientUnits="userSpaceOnUse">
<stop offset="0.0493823" stop-color="#FEAA69"/>
<stop offset="0.398301" stop-color="#FF8B7B"/>
<stop offset="0.952115" stop-color="#927DED"/>
</linearGradient>
<linearGradient id="paint5_linear_1301_8745" x1="48.8143" y1="-2.95856" x2="68.8546" y2="-0.770121" gradientUnits="userSpaceOnUse">
<stop offset="0.0493823" stop-color="#FEAA69"/>
<stop offset="0.398301" stop-color="#FF8B7B"/>
<stop offset="0.952115" stop-color="#927DED"/>
</linearGradient>
<linearGradient id="paint6_linear_1301_8745" x1="51.1773" y1="6.29638" x2="62.6947" y2="8.25414" gradientUnits="userSpaceOnUse">
<stop offset="0.0493823" stop-color="#FEAA69"/>
<stop offset="0.398301" stop-color="#FF8B7B"/>
<stop offset="0.952115" stop-color="#927DED"/>
</linearGradient>
<linearGradient id="paint7_linear_1301_8745" x1="52.4917" y1="19.8972" x2="54.6976" y2="20.1249" gradientUnits="userSpaceOnUse">
<stop offset="0.0493823" stop-color="#FEAA69"/>
<stop offset="0.398301" stop-color="#FF8B7B"/>
<stop offset="0.952115" stop-color="#927DED"/>
</linearGradient>
<linearGradient id="paint8_linear_1301_8745" x1="55.2627" y1="19.8972" x2="57.4606" y2="20.1232" gradientUnits="userSpaceOnUse">
<stop offset="0.0493823" stop-color="#FEAA69"/>
<stop offset="0.398301" stop-color="#FF8B7B"/>
<stop offset="0.952115" stop-color="#927DED"/>
</linearGradient>
<linearGradient id="paint9_linear_1301_8745" x1="51.8938" y1="14.7103" x2="55.1741" y2="15.3867" gradientUnits="userSpaceOnUse">
<stop offset="0.0493823" stop-color="#FEAA69"/>
<stop offset="0.398301" stop-color="#FF8B7B"/>
<stop offset="0.952115" stop-color="#927DED"/>
</linearGradient>
<linearGradient id="paint10_linear_1301_8745" x1="51.8927" y1="17.7073" x2="55.1687" y2="18.3792" gradientUnits="userSpaceOnUse">
<stop offset="0.0493823" stop-color="#FEAA69"/>
<stop offset="0.398301" stop-color="#FF8B7B"/>
<stop offset="0.952115" stop-color="#927DED"/>
</linearGradient>
<linearGradient id="paint11_linear_1301_8745" x1="54.1459" y1="15.2271" x2="55.4073" y2="15.255" gradientUnits="userSpaceOnUse">
<stop offset="0.0493823" stop-color="#FEAA69"/>
<stop offset="0.398301" stop-color="#FF8B7B"/>
<stop offset="0.952115" stop-color="#927DED"/>
</linearGradient>
<linearGradient id="paint12_linear_1301_8745" x1="55.1932" y1="14.7103" x2="58.4656" y2="15.3833" gradientUnits="userSpaceOnUse">
<stop offset="0.0493823" stop-color="#FEAA69"/>
<stop offset="0.398301" stop-color="#FF8B7B"/>
<stop offset="0.952115" stop-color="#927DED"/>
</linearGradient>
<linearGradient id="paint13_linear_1301_8745" x1="55.1929" y1="17.7136" x2="58.469" y2="18.3873" gradientUnits="userSpaceOnUse">
<stop offset="0.0493823" stop-color="#FEAA69"/>
<stop offset="0.398301" stop-color="#FF8B7B"/>
<stop offset="0.952115" stop-color="#927DED"/>
</linearGradient>
<linearGradient id="paint14_linear_1301_8745" x1="51.1913" y1="17.1902" x2="54.7129" y2="22.5901" gradientUnits="userSpaceOnUse">
<stop offset="0.0493823" stop-color="#FEAA69"/>
<stop offset="0.398301" stop-color="#FF8B7B"/>
<stop offset="0.952115" stop-color="#927DED"/>
</linearGradient>
<linearGradient id="paint15_linear_1301_8745" x1="-7.55105" y1="-64.8677" x2="136.029" y2="-45.2783" gradientUnits="userSpaceOnUse">
<stop offset="0.0493823" stop-color="#FEAA69"/>
<stop offset="0.398301" stop-color="#FF8B7B"/>
<stop offset="0.952115" stop-color="#927DED"/>
</linearGradient>
<clipPath id="clip0_1301_8745">
<rect width="9" height="18" fill="white" transform="translate(50 8.45215)"/>
</clipPath>
</defs>
</svg>
