<svg width="194" height="106" viewBox="0 0 194 106" fill="none" xmlns="http://www.w3.org/2000/svg">
<path d="M86.736 19.876V26.12H87.758V19.876H86.736ZM83.194 15.116V15.998H91.384V15.116H83.194ZM83.446 21.304V22.2H91.412V21.304H83.446ZM86.498 21.682C85.742 23.026 84.286 24.37 82.9 25C83.138 25.182 83.46 25.56 83.614 25.812C85 25.028 86.47 23.516 87.268 21.976L86.498 21.682ZM87.996 21.808L87.296 22.088C88.08 23.488 89.55 24.944 90.852 25.672C91.02 25.392 91.342 25.028 91.58 24.832C90.264 24.258 88.766 22.998 87.996 21.808ZM86.442 13.366V18.154H90.082V13.366H89.102V17.356H87.38V13.366H86.442ZM84.104 13.646V20.072H91.034V19.204H85.056V13.646H84.104ZM80.59 13.254V16.306H81.388V13.254H80.59ZM79.4 15.746V16.642H82.312V20.128H79.4V21.038H83.096V15.746H79.4ZM78.952 15.746V21.766H79.736V15.746H78.952ZM80.66 16.152V20.268H80.604V23.88H81.388V20.268H81.332V16.152H80.66ZM78.532 24.272L78.728 25.224C79.876 24.86 81.36 24.398 82.788 23.936L82.704 23.068C81.164 23.53 79.596 24.006 78.532 24.272ZM82.018 22.046C82.354 22.928 82.69 24.09 82.816 24.846L83.558 24.608C83.432 23.852 83.082 22.704 82.732 21.822L82.018 22.046ZM101.464 13.24V18.742H102.514V13.24H101.464ZM99.644 24.454V25.42H104.642V24.454H99.644ZM98.216 15.228V16.194H105.86V15.228H98.216ZM98.664 18.294V19.26H105.552V18.294H98.664ZM99.112 20.786V26.106H100.092V21.738H104.138V26.078H105.16V20.786H99.112ZM95.15 13.254C94.786 14.178 94.142 15.522 93.61 16.334L94.338 16.642C94.884 15.886 95.556 14.64 96.088 13.604L95.15 13.254ZM96.844 14.85C96.074 16.334 94.744 18.434 93.666 19.68L94.338 20.03C95.402 18.826 96.774 16.81 97.754 15.242L96.844 14.85ZM92.938 16.194C93.694 16.866 94.576 17.832 94.954 18.49L95.514 17.692C95.136 17.076 94.254 16.152 93.47 15.494L92.938 16.194ZM96.396 18.098C96.97 19.022 97.53 20.24 97.74 21.024L98.58 20.632C98.37 19.862 97.768 18.658 97.18 17.762L96.396 18.098ZM92.91 19.512L92.994 20.45C94.296 20.394 96.06 20.282 97.796 20.17L97.81 19.316C95.99 19.4 94.17 19.47 92.91 19.512ZM96.746 21.444C97.138 22.312 97.516 23.446 97.642 24.174L98.496 23.88C98.342 23.152 97.95 22.046 97.544 21.192L96.746 21.444ZM93.68 21.248C93.512 22.48 93.232 23.726 92.77 24.58C92.994 24.678 93.414 24.874 93.596 24.986C94.044 24.09 94.394 22.732 94.59 21.416L93.68 21.248ZM95.29 19.918V26.162H96.242V19.918H95.29ZM116.836 14.878L115.744 15.186C116.57 18.056 117.522 20.142 119.076 21.794L119.804 20.814C117.746 18.952 117.13 16.572 116.836 14.878ZM108.086 15.62L108.17 16.796C108.464 16.754 108.702 16.712 108.968 16.684C109.472 16.614 110.62 16.474 111.334 16.362C110.102 17.762 108.73 19.764 108.73 22.382C108.73 24.692 110.326 25.924 112.538 25.924C116.92 25.924 117.718 21.598 116.99 17.594L115.968 15.704C117.032 21.192 115.898 24.776 112.566 24.776C111.124 24.776 109.822 24.118 109.822 22.144C109.822 19.26 111.964 16.81 112.846 16.152C113.056 16.068 113.406 15.97 113.588 15.914L113.266 14.92C112.44 15.242 110.088 15.564 108.842 15.62C108.59 15.634 108.296 15.634 108.086 15.62ZM118.068 14.08L117.368 14.332C117.676 14.864 118.04 15.69 118.292 16.32L119.02 16.054C118.782 15.48 118.348 14.612 118.068 14.08ZM119.496 13.534L118.81 13.8C119.132 14.332 119.496 15.144 119.748 15.774L120.49 15.494C120.224 14.906 119.79 14.052 119.496 13.534ZM124.606 27.758L125.39 27.394C124.186 25.406 123.598 23.04 123.598 20.66C123.598 18.28 124.186 15.914 125.39 13.926L124.606 13.548C123.304 15.648 122.534 17.916 122.534 20.66C122.534 23.418 123.304 25.658 124.606 27.758ZM132.724 18.924C134.152 20.212 135.944 22.004 136.784 23.11L137.652 22.438C136.756 21.346 134.936 19.596 133.508 18.364L132.724 18.924ZM132.878 13.24V15.984C132.878 17.916 132.696 20.618 129.196 22.508C129.434 22.69 129.798 23.068 129.938 23.292C133.55 21.178 133.956 18.224 133.956 15.984V13.24H132.878ZM127.782 15.634V26.148H128.832V16.67H138.492V15.634H127.782ZM138.016 15.634V24.734C138.016 24.972 137.932 25.056 137.666 25.07C137.386 25.084 136.434 25.084 135.44 25.042C135.58 25.336 135.748 25.826 135.79 26.12C137.05 26.12 137.918 26.106 138.408 25.938C138.884 25.756 139.052 25.42 139.052 24.734V15.634H138.016ZM150.896 19.442V24.678C150.896 25.714 151.12 26.036 152.114 26.036C152.31 26.036 153.136 26.036 153.332 26.036C154.214 26.036 154.452 25.49 154.536 23.53C154.27 23.46 153.864 23.292 153.64 23.124C153.598 24.846 153.542 25.154 153.234 25.154C153.066 25.154 152.422 25.154 152.282 25.154C151.974 25.154 151.918 25.084 151.918 24.678V19.442H150.896ZM148.11 15.144H152.688V18.686H148.11V15.144ZM147.116 14.178V19.638H153.724V14.178H147.116ZM141.6 15.872V16.838H145.968V15.872H141.6ZM143.644 20.058V26.12H144.666V18.826L143.644 20.058ZM143.644 13.254V16.348H144.666V13.254H143.644ZM144.666 18.966L144.05 19.526C144.61 20.03 145.884 21.374 146.36 22.004L147.004 21.122C146.64 20.758 145.114 19.33 144.666 18.966ZM145.618 15.872V16.096C144.806 18.224 142.902 20.352 141.096 21.472C141.264 21.654 141.53 22.144 141.628 22.41C143.546 21.122 145.604 18.784 146.598 16.222L146.01 15.83L145.828 15.872H145.618ZM148.516 19.274C148.404 22.242 148.11 24.244 145.8 25.336C146.038 25.532 146.346 25.91 146.472 26.162C149.006 24.888 149.398 22.606 149.538 19.274H148.516ZM156.636 27.758C157.924 25.658 158.694 23.418 158.694 20.66C158.694 17.916 157.924 15.648 156.636 13.548L155.838 13.926C157.042 15.914 157.63 18.28 157.63 20.66C157.63 23.04 157.042 25.406 155.838 27.394L156.636 27.758Z" fill="#4A4A4A"/>
<rect x="53" y="70" width="25" height="1" fill="#4A4A4A"/>
<path d="M85.808 59.588V60.56C86.756 60.644 87.788 60.692 88.988 60.692C90.092 60.692 91.4 60.608 92.216 60.548V59.564C91.352 59.66 90.14 59.732 88.988 59.732C87.776 59.732 86.672 59.684 85.808 59.588ZM86.288 64.424L85.316 64.328C85.208 64.808 85.076 65.372 85.076 65.996C85.076 67.508 86.492 68.3 88.928 68.3C90.632 68.3 92.156 68.12 93.02 67.892L93.008 66.86C92.096 67.148 90.548 67.328 88.904 67.328C86.984 67.328 86.048 66.704 86.048 65.78C86.048 65.336 86.144 64.892 86.288 64.424ZM100.436 58.604L99.356 58.556C99.38 58.88 99.356 59.168 99.308 59.552C99.164 60.704 98.528 63.68 97.616 65.468L98.504 65.78C98.624 65.576 98.732 65.408 98.876 65.228C99.668 64.28 101 63.788 102.428 63.788C103.832 63.788 104.564 64.484 104.564 65.372C104.564 67.352 101.876 67.82 99.092 67.436L99.344 68.396C102.992 68.78 105.548 67.856 105.548 65.348C105.548 63.944 104.432 62.972 102.524 62.972C101.276 62.972 100.196 63.272 99.152 64.004C99.56 62.888 100.04 60.572 100.208 59.612C100.28 59.3 100.34 58.928 100.436 58.604ZM96.704 60.14L96.716 61.076C97.4 61.136 98.168 61.196 98.984 61.196C100.628 61.196 103.076 60.956 104.78 60.656L104.756 59.732C102.872 60.152 100.508 60.332 98.972 60.332C98.252 60.332 97.34 60.248 96.704 60.14ZM111.728 58.592L111.488 59.516C112.412 59.756 115.004 60.284 116.156 60.44L116.384 59.528C115.316 59.42 112.76 58.928 111.728 58.592ZM111.464 60.788L110.456 60.656C110.384 61.904 110.084 64.424 109.844 65.516L110.744 65.732C110.816 65.54 110.924 65.348 111.104 65.144C111.944 64.124 113.24 63.536 114.812 63.536C116.036 63.536 116.936 64.22 116.936 65.168C116.936 66.812 115.088 67.904 111.296 67.448L111.584 68.42C116.036 68.792 117.944 67.34 117.944 65.204C117.944 63.788 116.72 62.684 114.884 62.684C113.444 62.684 112.124 63.152 110.972 64.16C111.092 63.38 111.308 61.604 111.464 60.788ZM125.54 59.9L125.552 60.872C126.86 61.016 129.188 61.016 130.472 60.872V59.9C129.284 60.08 126.848 60.128 125.54 59.9ZM126.008 64.796L125.144 64.712C125.012 65.288 124.952 65.72 124.952 66.116C124.952 67.244 125.852 67.916 127.856 67.916C129.104 67.916 130.112 67.82 130.856 67.664L130.832 66.656C129.872 66.884 128.936 66.98 127.868 66.98C126.224 66.98 125.84 66.44 125.84 65.888C125.84 65.564 125.9 65.228 126.008 64.796ZM123.26 58.976L122.192 58.892C122.18 59.156 122.144 59.456 122.108 59.732C121.964 60.728 121.568 62.78 121.568 64.544C121.568 66.176 121.772 67.556 122.012 68.408L122.864 68.348C122.852 68.216 122.84 68.048 122.828 67.928C122.828 67.784 122.852 67.556 122.888 67.388C122.996 66.812 123.44 65.552 123.74 64.7L123.236 64.304C123.032 64.796 122.756 65.516 122.552 66.056C122.48 65.468 122.444 64.964 122.444 64.388C122.444 63.032 122.816 60.896 123.044 59.78C123.092 59.564 123.188 59.18 123.26 58.976ZM141.248 64.004C142.004 64.964 142.844 66.284 143.192 67.1L144.056 66.68C143.672 65.852 142.808 64.58 142.04 63.644L141.248 64.004ZM137.948 57.944V62.228H138.872V57.944H137.948ZM133.124 61.94V62.804H143.78V61.94H133.124ZM134.312 59.372V60.236H142.832V59.372H134.312ZM139.46 62.408V67.844C139.46 68 139.412 68.048 139.22 68.048C139.04 68.06 138.416 68.072 137.732 68.048C137.864 68.312 138.008 68.696 138.056 68.948C138.956 68.948 139.544 68.936 139.916 68.792C140.288 68.636 140.396 68.384 140.396 67.856V62.408H139.46ZM134.744 63.704C134.396 64.664 133.652 65.816 132.812 66.536C133.028 66.656 133.352 66.884 133.532 67.052C134.396 66.272 135.188 65.036 135.656 63.944L134.744 63.704ZM136.76 62.3V63.512C136.76 64.988 136.568 66.92 134.348 68.384C134.564 68.54 134.888 68.84 135.02 69.044C137.42 67.424 137.672 65.228 137.672 63.524V62.3H136.76ZM149.876 58.604L148.796 58.556C148.82 58.88 148.796 59.168 148.748 59.552C148.604 60.704 147.968 63.68 147.056 65.468L147.944 65.78C148.064 65.576 148.172 65.408 148.316 65.228C149.108 64.28 150.44 63.788 151.868 63.788C153.272 63.788 154.004 64.484 154.004 65.372C154.004 67.352 151.316 67.82 148.532 67.436L148.784 68.396C152.432 68.78 154.988 67.856 154.988 65.348C154.988 63.944 153.872 62.972 151.964 62.972C150.716 62.972 149.636 63.272 148.592 64.004C149 62.888 149.48 60.572 149.648 59.612C149.72 59.3 149.78 58.928 149.876 58.604ZM146.144 60.14L146.156 61.076C146.84 61.136 147.608 61.196 148.424 61.196C150.068 61.196 152.516 60.956 154.22 60.656L154.196 59.732C152.312 60.152 149.948 60.332 148.412 60.332C147.692 60.332 146.78 60.248 146.144 60.14ZM163.388 62.036L164.06 61.52C163.724 61.16 163.076 60.62 162.752 60.392L162.092 60.896C162.536 61.208 163.052 61.664 163.388 62.036ZM160.496 61.28L159.548 61.664C159.728 61.856 159.92 62.156 160.028 62.336C160.352 62.864 160.88 63.98 161.324 65C161.84 66.236 162.344 67.796 162.644 68.936L163.592 68.684C163.256 67.64 162.668 65.84 162.14 64.64C161.756 63.74 161.132 62.48 160.796 61.856C160.712 61.688 160.592 61.472 160.496 61.28ZM158.516 64.136L158.984 65.072C160.04 64.592 163.316 62.768 164.9 62.768C165.98 62.768 166.34 63.368 166.34 63.872C166.34 64.52 165.944 65.108 164.792 65.108C164.3 65.108 163.76 64.952 163.388 64.772L163.352 65.66C163.688 65.792 164.288 65.96 164.828 65.96C166.496 65.96 167.228 65.12 167.228 63.872C167.228 62.864 166.52 61.94 164.924 61.94C163.4 61.94 160.712 63.344 159.368 63.872C159.2 63.944 158.876 64.052 158.516 64.136ZM176.084 59.096L175.016 58.664C174.872 59.024 174.716 59.312 174.584 59.6C173.924 60.752 171.296 65.672 170.42 68.096L171.452 68.456C171.62 67.868 172.124 66.44 172.496 65.732C172.952 64.784 173.864 63.8 174.824 63.8C175.364 63.8 175.676 64.124 175.7 64.64C175.736 65.3 175.724 66.224 175.76 66.932C175.796 67.64 176.216 68.444 177.5 68.444C179.24 68.444 180.248 67.1 180.884 65.168L180.08 64.52C179.78 65.804 178.988 67.46 177.644 67.46C177.128 67.46 176.72 67.196 176.684 66.596C176.636 66.008 176.66 65.096 176.636 64.388C176.6 63.44 176.024 62.924 175.22 62.924C174.644 62.924 174.02 63.152 173.444 63.668C174.056 62.504 175.16 60.512 175.7 59.684C175.832 59.456 175.976 59.24 176.084 59.096ZM188.636 59.816L187.64 59.792C187.52 61.04 187.268 62.396 186.92 63.536C186.308 65.564 185.66 66.38 185.096 66.38C184.556 66.38 183.872 65.708 183.872 64.196C183.872 62.432 185.516 60.26 188.156 60.26C190.46 60.26 191.792 61.844 191.792 63.764C191.792 65.84 190.28 66.992 188.744 67.34C188.456 67.4 188.096 67.448 187.712 67.484L188.264 68.372C191.12 68 192.776 66.32 192.776 63.812C192.776 61.376 190.988 59.396 188.18 59.396C185.24 59.396 182.924 61.664 182.924 64.268C182.924 66.26 183.992 67.484 185.072 67.484C186.176 67.484 187.136 66.212 187.868 63.752C188.24 62.468 188.48 61.064 188.636 59.816ZM87.92 72.424H86.864C86.9 72.616 86.924 73.036 86.924 73.264C86.924 73.756 86.876 75.712 86.876 77.092C86.876 78.424 86.936 80.092 86.936 80.788C86.936 81.184 86.78 81.376 86.504 81.376C86.036 81.376 85.196 80.896 85.196 80.356C85.196 79.744 86.12 78.94 87.296 78.484C88.316 78.076 89.3 77.848 90.38 77.848C91.508 77.848 92.432 78.388 92.432 79.408C92.432 80.524 91.472 81.088 90.428 81.292C89.972 81.388 89.468 81.376 89.012 81.376L89.348 82.336C89.768 82.312 90.308 82.288 90.836 82.168C92.492 81.784 93.404 80.86 93.404 79.408C93.404 77.968 92.144 77.02 90.38 77.02C89.432 77.02 88.232 77.236 87.164 77.656C85.676 78.22 84.248 79.336 84.248 80.392C84.248 81.472 85.808 82.384 86.744 82.384C87.404 82.384 87.812 82.024 87.812 80.92C87.812 80.164 87.752 78.292 87.752 77.044C87.752 75.796 87.812 73.96 87.848 73.252C87.86 72.964 87.884 72.64 87.92 72.424ZM91.652 73.756L91.208 74.476C91.976 74.884 93.32 75.712 93.908 76.264L94.388 75.496C93.812 75.016 92.504 74.2 91.652 73.756ZM84.452 74.572L84.476 75.496C84.872 75.532 85.328 75.556 86 75.556C87.08 75.556 89.048 75.292 90.284 74.992L90.26 74.056C89.072 74.416 87.164 74.668 85.976 74.668C85.544 74.668 85.112 74.656 84.452 74.572ZM99.728 81.652V82.48H105.524V81.652H99.728ZM99.32 73.132V73.936H103.724V73.132H99.32ZM99.86 71.884C99.164 73.192 97.784 74.74 95.804 75.82C96.008 75.976 96.308 76.288 96.44 76.516C98.528 75.28 99.968 73.648 100.868 72.088L99.86 71.884ZM103.424 73.132V73.288C102.176 76.444 98.852 78.796 95.744 79.696C95.936 79.888 96.164 80.26 96.272 80.5C99.536 79.444 102.92 77.032 104.36 73.408L103.76 73.084L103.592 73.132H103.424ZM97.82 75.268C98.768 75.94 99.908 76.948 100.412 77.632L101.144 76.984C100.592 76.3 99.44 75.34 98.492 74.692L97.82 75.268ZM105.08 77.86V82.984H106.004V77.86H105.08ZM100.136 77.86H99.956L99.236 78.568V82.96H100.136V78.688H105.536V77.86H100.136ZM108.356 73.816V74.656H119.084V73.816H108.356ZM109.592 77.68V78.388H112.952V77.68H109.592ZM109.592 79.6V80.308H112.952V79.6H109.592ZM114.956 75.832V80.764H115.808V75.832H114.956ZM112.628 75.724V81.916C112.628 82.072 112.58 82.12 112.412 82.132C112.244 82.144 111.692 82.144 111.092 82.12C111.212 82.348 111.344 82.684 111.392 82.912C112.208 82.912 112.736 82.912 113.06 82.768C113.396 82.624 113.504 82.384 113.504 81.928V75.724H112.628ZM117.392 75.472V81.844C117.392 82.012 117.332 82.06 117.14 82.072C116.936 82.084 116.288 82.084 115.556 82.06C115.688 82.3 115.832 82.684 115.88 82.924C116.816 82.924 117.416 82.9 117.788 82.768C118.16 82.624 118.28 82.372 118.28 81.844V75.472H117.392ZM110.216 72.22C110.672 72.736 111.164 73.468 111.356 73.924L112.244 73.6C112.016 73.132 111.512 72.424 111.044 71.908L110.216 72.22ZM116.384 71.872C116.084 72.52 115.544 73.444 115.112 74.02L115.904 74.32C116.348 73.756 116.888 72.928 117.344 72.184L116.384 71.872ZM109.112 75.724V82.9H109.964V76.504H112.916V75.724H109.112ZM125.168 72.688L124.052 72.568C124.052 73.492 123.896 74.572 123.668 75.532C123.344 76.996 122.384 80.2 121.016 82.036L122 82.42C123.356 80.236 124.208 77.248 124.616 75.556C124.784 74.812 124.94 73.828 125.024 73.396C125.072 73.168 125.12 72.904 125.168 72.688ZM129.296 74.068L128.42 74.464C129.26 75.46 130.208 77.548 130.556 78.772L131.492 78.328C131.084 77.224 130.04 75.04 129.296 74.068ZM120.848 75.316L120.944 76.36C121.256 76.312 121.748 76.252 122.024 76.216C122.756 76.144 125.012 75.868 125.816 75.868C126.584 75.868 127.088 76.072 127.088 77.176C127.088 78.472 126.896 80.032 126.512 80.848C126.272 81.364 125.912 81.46 125.468 81.46C125.132 81.46 124.496 81.376 123.992 81.22L124.16 82.216C124.532 82.312 125.108 82.396 125.564 82.396C126.344 82.396 126.944 82.192 127.316 81.388C127.82 80.392 128.012 78.484 128.012 77.056C128.012 75.436 127.136 75.028 126.068 75.028C125.252 75.028 122.816 75.292 121.916 75.316C121.532 75.328 121.22 75.34 120.848 75.316ZM129.428 72.328L128.78 72.604C129.116 73.06 129.524 73.78 129.764 74.272L130.412 73.984C130.16 73.492 129.728 72.76 129.428 72.328ZM130.748 71.848L130.112 72.124C130.46 72.568 130.856 73.252 131.108 73.78L131.768 73.492C131.528 73.048 131.072 72.292 130.748 71.848ZM135.164 72.652V73.564H138.56V72.652H135.164ZM138.104 72.652C138.104 74.908 138.5 80.02 143.3 82.924C143.468 82.708 143.828 82.324 144.032 82.168C139.292 79.36 139.028 74.8 139.028 72.652H138.104ZM137.768 75.004C137.036 78.4 135.536 80.824 132.872 82.216C133.112 82.384 133.52 82.756 133.688 82.948C136.34 81.388 137.924 78.856 138.788 75.196L137.768 75.004ZM148.856 72.532L147.812 72.496C147.788 72.832 147.764 73.168 147.716 73.528C147.572 74.512 147.344 76.276 147.344 77.416C147.344 78.196 147.404 78.868 147.464 79.324L148.4 79.252C148.316 78.652 148.316 78.232 148.376 77.776C148.52 76.204 149.912 74.02 151.412 74.02C152.672 74.02 153.308 75.388 153.308 77.284C153.308 80.296 151.28 81.352 148.664 81.748L149.24 82.612C152.204 82.072 154.304 80.596 154.304 77.272C154.304 74.752 153.152 73.144 151.568 73.144C150.044 73.144 148.796 74.644 148.304 75.88C148.376 75.04 148.604 73.42 148.856 72.532ZM164.024 72.484H163.004C163.04 72.64 163.052 73 163.052 73.204C163.052 74.044 163.052 75.304 163.052 76.384C163.052 77.44 163.172 79.744 163.172 80.668C163.172 81.508 162.584 81.712 161.888 81.712C160.7 81.712 160.232 81.304 160.232 80.74C160.232 80.188 160.844 79.744 161.996 79.744C164.132 79.744 165.908 80.944 166.988 81.94L167.54 81.088C166.616 80.332 164.636 78.964 162.104 78.964C160.376 78.964 159.332 79.696 159.332 80.788C159.332 81.952 160.28 82.564 162.008 82.564C163.568 82.564 164.12 81.712 164.12 80.872C164.12 80.068 163.94 77.968 163.94 76.384C163.94 75.376 163.94 73.768 163.964 73.288C163.976 72.928 164 72.688 164.024 72.484ZM159.44 73.78L159.452 74.668C160.208 74.764 161.684 74.872 162.512 74.872C164.12 74.872 165.836 74.716 167.192 74.56V73.684C165.632 73.936 164.024 74.044 162.5 74.044C161.708 74.044 160.208 73.924 159.44 73.78ZM159.38 76.336L159.392 77.236C160.244 77.332 161.564 77.392 162.392 77.392C164.192 77.392 165.656 77.308 167.288 77.104V76.204C165.728 76.432 164.132 76.552 162.392 76.552C161.6 76.552 160.232 76.468 159.38 76.336ZM177.044 72.496H175.94C175.964 72.604 176 72.94 176.024 73.264C176.06 73.924 176.072 76.312 176.072 76.84L176.984 77.308C176.972 76.348 176.948 74.032 176.984 73.252C176.984 73.108 177.02 72.64 177.044 72.496ZM170.66 74.176L170.684 75.1C172.496 74.968 175.064 74.884 177.128 74.884C178.892 74.884 179.972 74.908 180.644 74.944L180.656 74.056C180.092 74.044 178.604 74.044 177.14 74.044C175.292 74.044 172.292 74.152 170.66 74.176ZM176.96 77.656L176.3 77.32C176.492 78.604 176.012 79.228 175.268 79.228C174.608 79.228 174.044 78.796 174.044 78.04C174.044 77.26 174.632 76.768 175.268 76.768C175.916 76.768 176.444 77.224 176.444 78.304C176.444 80.284 175.172 81.352 172.988 81.868L173.792 82.648C176.576 81.82 177.368 80.02 177.368 78.388C177.368 77.008 176.66 75.976 175.268 75.976C174.128 75.976 173.144 76.864 173.144 78.052C173.144 79.36 174.116 80.068 175.124 80.068C176.216 80.068 176.96 79.264 176.96 77.656Z" fill="#4A4A4A"/>
<path d="M33.51 14.1121C34.53 15.0321 35.81 16.3121 36.41 17.1021L37.03 16.6221C36.39 15.8421 35.09 14.5921 34.07 13.7121L33.51 14.1121ZM33.62 10.0521V12.0121C33.62 13.3921 33.49 15.3221 30.99 16.6721C31.16 16.8021 31.42 17.0721 31.52 17.2321C34.1 15.7221 34.39 13.6121 34.39 12.0121V10.0521H33.62ZM29.98 11.7621V19.2721H30.73V12.5021H37.63V11.7621H29.98ZM37.29 11.7621V18.2621C37.29 18.4321 37.23 18.4921 37.04 18.5021C36.84 18.5121 36.16 18.5121 35.45 18.4821C35.55 18.6921 35.67 19.0421 35.7 19.2521C36.6 19.2521 37.22 19.2421 37.57 19.1221C37.91 18.9921 38.03 18.7521 38.03 18.2621V11.7621H37.29ZM36.19 29.4821V33.2221C36.19 33.9621 36.35 34.1921 37.06 34.1921C37.2 34.1921 37.79 34.1921 37.93 34.1921C38.56 34.1921 38.73 33.8021 38.79 32.4021C38.6 32.3521 38.31 32.2321 38.15 32.1121C38.12 33.3421 38.08 33.5621 37.86 33.5621C37.74 33.5621 37.28 33.5621 37.18 33.5621C36.96 33.5621 36.92 33.5121 36.92 33.2221V29.4821H36.19ZM34.2 26.4121H37.47V28.9421H34.2V26.4121ZM33.49 25.7221V29.6221H38.21V25.7221H33.49ZM29.55 26.9321V27.6221H32.67V26.9321H29.55ZM31.01 29.9221V34.2521H31.74V29.0421L31.01 29.9221ZM31.01 25.0621V27.2721H31.74V25.0621H31.01ZM31.74 29.1421L31.3 29.5421C31.7 29.9021 32.61 30.8621 32.95 31.3121L33.41 30.6821C33.15 30.4221 32.06 29.4021 31.74 29.1421ZM32.42 26.9321V27.0921C31.84 28.6121 30.48 30.1321 29.19 30.9321C29.31 31.0621 29.5 31.4121 29.57 31.6021C30.94 30.6821 32.41 29.0121 33.12 27.1821L32.7 26.9021L32.57 26.9321H32.42ZM34.49 29.3621C34.41 31.4821 34.2 32.9121 32.55 33.6921C32.72 33.8321 32.94 34.1021 33.03 34.2821C34.84 33.3721 35.12 31.7421 35.22 29.3621H34.49Z" fill="#4A4A4A"/>
<circle cx="33.55" cy="67.0022" r="5.05" stroke="#4A4A4A"/>
<circle cx="33.55" cy="79.9523" r="5.05" stroke="#4A4A4A"/>
<circle cx="33.55" cy="92.9021" r="5.05" stroke="#4A4A4A"/>
<g clip-path="url(#clip0_1301_8746)">
<path d="M58.6266 12.1537L55.0925 8.98371L54.5 8.45215L53.9078 8.98371L50.3734 12.1537L50 12.487L50.052 13.0024L51.0255 22.6532L51.0623 23.0107L51.3086 23.2596L53.8694 25.8214L54.5 26.4521L55.1306 25.8214L57.6914 23.2596L57.9381 23.0107L57.9748 22.6532L58.9484 13.0021L59.0003 12.4867L58.6266 12.1534V12.1537ZM57.5107 18.0934L57.0608 22.5491L54.5 25.1127L51.9392 22.5491L51.4893 18.0934L51.48 17.9893L50.9659 12.898L54.5 9.72832L58.0341 12.898L57.5196 17.9893L57.5104 18.0934H57.5107Z" fill="url(#paint0_linear_1301_8746)"/>
<path d="M54.4998 10.5801L52.0694 12.7601L51.8738 12.9348L51.8741 12.9352L51.8701 12.9387L52.8864 14.018L53.6021 14.7837V14.7781L53.6074 14.7837V12.7647H54.2198V15.0797L54.0529 15.2566L53.9887 15.3248L53.9414 15.3698H53.9463L53.941 15.3754H54.1648L54.2198 15.4341V17.3375H54.7799V15.4341L54.8351 15.3754H54.9636L55.0546 15.3796L55.051 15.3754H55.0586L54.9467 15.2566L54.7799 15.0797V12.7647H55.3923V13.9488L55.3883 14.7798L55.3923 14.776V14.7837L56.9915 13.0853L57.1262 12.9429L57.1259 12.9426L57.1295 12.9387L54.4998 10.5801Z" fill="url(#paint1_linear_1301_8746)"/>
<path d="M53.6075 21.2323V21.2246L52.6277 22.2652L52.6257 22.2673L52.6221 22.2716L53.6075 23.3185V23.2876V22.0849L53.6115 21.2285L53.6075 21.2323Z" fill="url(#paint2_linear_1301_8746)"/>
<path d="M55.8027 21.6605L55.3979 21.2246V21.2302L55.3926 21.2246V23.2876V23.3185L56.3724 22.2775L56.3744 22.2754L56.3784 22.2716L55.8027 21.6605Z" fill="url(#paint3_linear_1301_8746)"/>
<path d="M53.6075 17.3372V16.3975L53.6115 15.7334L53.6075 15.7376V15.7295L52.725 16.6671L52.0938 17.3316H52.0994L52.0938 17.3372H53.6075Z" fill="url(#paint4_linear_1301_8746)"/>
<path d="M53.6074 20.3433V18.7338H52.7222L52.0959 18.73L52.0996 18.7338H52.0923L53.6074 20.3433Z" fill="url(#paint5_linear_1301_8746)"/>
<path d="M54.2197 18.7339V20.574V20.9934V23.9001V23.9683L54.4998 24.2657L54.7798 23.9683V23.9001V20.9934V20.574V18.7339H54.2197Z" fill="url(#paint6_linear_1301_8746)"/>
<path d="M55.3979 15.7295V15.7351L55.3926 15.7295V17.3372H56.9064L56.0242 16.4003L55.3979 15.7295Z" fill="url(#paint7_linear_1301_8746)"/>
<path d="M56.9024 18.7395L56.9077 18.7339H55.3926V20.3433L56.7657 18.8851L56.8471 18.7982L56.908 18.7395H56.9024Z" fill="url(#paint8_linear_1301_8746)"/>
<path d="M55.3926 17.6631H54.7802H54.2201H53.6077H52.0035L51.8813 17.7932V18.2808L52.0022 18.4091H53.6077H54.2201H54.7802H55.3926H56.9981L57.1192 18.2808V17.7932L56.9967 17.6631H55.3926Z" fill="url(#paint9_linear_1301_8746)"/>
</g>
<path d="M65.9102 1H1V104.904H65.9102V1Z" stroke="url(#paint10_linear_1301_8746)" stroke-miterlimit="10"/>
<rect x="1" y="48" width="65" height="0.567165" fill="url(#paint11_linear_1301_8746)"/>
<path d="M29.5676 50.4254C27.9817 50.5953 26.3958 50.8409 24.8037 50.9167C20.498 51.1276 16.2436 50.7591 12.2008 49.1602C8.99207 47.893 7.43083 45.029 8.18885 42.0974C8.7168 40.0563 10.087 38.7441 11.9666 37.9211C14.3783 36.8668 16.8989 36.789 19.4195 37.3274C24.475 38.4083 28.9369 40.7032 32.8359 44.0852C33.8548 44.9696 33.8527 44.9942 34.7936 44.034C38.2324 40.5149 42.6655 38.9508 47.2732 37.7471C49.8534 37.0736 52.4644 36.8484 55.0815 37.5587C58.2697 38.4247 60.1617 40.7524 59.9891 43.6451C59.8577 45.856 58.7196 47.4917 56.8749 48.6607C54.6254 50.0855 52.0843 50.6301 49.5042 51.0334C46.1578 51.5575 42.8258 51.4305 39.5061 50.7918C39.2329 50.7386 38.8713 50.4643 38.6803 50.8307C38.5406 51.0989 38.8713 51.3057 39.0377 51.5104C42.8669 56.2312 46.696 60.95 50.5292 65.6688C51.1209 66.3976 51.0456 67.0534 50.3033 67.6361C50.1143 67.7835 49.9171 67.9228 49.7486 68.0906C49.2536 68.5799 48.8858 68.5533 48.4216 67.9739C45.3053 64.0822 42.154 60.2192 39.0151 56.3459C37.5751 54.5689 36.0939 52.8206 34.7114 51.0006C34.1013 50.1981 33.7583 50.3107 33.1913 51.015C29.0602 56.1493 24.9044 61.2632 20.7527 66.3812C20.1714 67.0977 19.5715 67.7979 19.0004 68.5205C18.7437 68.846 18.493 68.9586 18.1438 68.6741C17.6405 68.2646 17.129 67.8634 16.6319 67.4478C16.1286 67.0281 16.5579 66.7108 16.7942 66.4181C18.3739 64.4466 19.97 62.4874 21.56 60.5242C24.1402 57.3408 26.7224 54.1595 29.2985 50.974C29.4197 50.8246 29.6333 50.712 29.5655 50.4274L29.5676 50.4254ZM45.3361 48.3331C46.2009 48.2676 47.1952 48.2349 48.1771 48.11C50.5231 47.8111 52.8588 47.4467 54.9562 46.247C55.9751 45.6636 56.7742 44.8979 56.879 43.6451C57.0228 41.9315 55.9751 40.8404 53.8715 40.4146C51.1866 39.87 48.6332 40.4821 46.1023 41.2457C42.8381 42.2304 39.7053 43.4854 37.2258 45.9502C36.4904 46.6831 36.5212 46.7957 37.534 47.115C40.032 47.9012 42.606 48.2144 45.3361 48.3331ZM22.1948 47.9176C25.4385 47.938 27.8317 47.5777 30.2023 47.0413C30.4591 46.984 30.833 46.896 30.911 46.7179C31.0651 46.3658 30.6337 46.2266 30.4242 46.0423C29.1115 44.8877 27.6674 43.9071 26.1246 43.0964C22.8378 41.3686 19.4585 39.9151 15.6068 40.1648C14.3516 40.2467 13.1725 40.5456 12.168 41.3297C10.8183 42.384 10.7402 44.2674 11.979 45.4445C12.7719 46.1979 13.758 46.5787 14.7892 46.851C17.4782 47.5613 20.2207 47.8746 22.1928 47.9155L22.1948 47.9176Z" fill="url(#paint12_linear_1301_8746)"/>
<defs>
<linearGradient id="paint0_linear_1301_8746" x1="48.8143" y1="-2.95856" x2="68.8546" y2="-0.770121" gradientUnits="userSpaceOnUse">
<stop offset="0.0493823" stop-color="#FEAA69"/>
<stop offset="0.398301" stop-color="#FF8B7B"/>
<stop offset="0.952115" stop-color="#927DED"/>
</linearGradient>
<linearGradient id="paint1_linear_1301_8746" x1="51.1773" y1="6.29638" x2="62.6947" y2="8.25414" gradientUnits="userSpaceOnUse">
<stop offset="0.0493823" stop-color="#FEAA69"/>
<stop offset="0.398301" stop-color="#FF8B7B"/>
<stop offset="0.952115" stop-color="#927DED"/>
</linearGradient>
<linearGradient id="paint2_linear_1301_8746" x1="52.4917" y1="19.8972" x2="54.6976" y2="20.1249" gradientUnits="userSpaceOnUse">
<stop offset="0.0493823" stop-color="#FEAA69"/>
<stop offset="0.398301" stop-color="#FF8B7B"/>
<stop offset="0.952115" stop-color="#927DED"/>
</linearGradient>
<linearGradient id="paint3_linear_1301_8746" x1="55.2627" y1="19.8972" x2="57.4606" y2="20.1232" gradientUnits="userSpaceOnUse">
<stop offset="0.0493823" stop-color="#FEAA69"/>
<stop offset="0.398301" stop-color="#FF8B7B"/>
<stop offset="0.952115" stop-color="#927DED"/>
</linearGradient>
<linearGradient id="paint4_linear_1301_8746" x1="51.8938" y1="14.7103" x2="55.1741" y2="15.3867" gradientUnits="userSpaceOnUse">
<stop offset="0.0493823" stop-color="#FEAA69"/>
<stop offset="0.398301" stop-color="#FF8B7B"/>
<stop offset="0.952115" stop-color="#927DED"/>
</linearGradient>
<linearGradient id="paint5_linear_1301_8746" x1="51.8927" y1="17.7073" x2="55.1687" y2="18.3792" gradientUnits="userSpaceOnUse">
<stop offset="0.0493823" stop-color="#FEAA69"/>
<stop offset="0.398301" stop-color="#FF8B7B"/>
<stop offset="0.952115" stop-color="#927DED"/>
</linearGradient>
<linearGradient id="paint6_linear_1301_8746" x1="54.1459" y1="15.2271" x2="55.4073" y2="15.255" gradientUnits="userSpaceOnUse">
<stop offset="0.0493823" stop-color="#FEAA69"/>
<stop offset="0.398301" stop-color="#FF8B7B"/>
<stop offset="0.952115" stop-color="#927DED"/>
</linearGradient>
<linearGradient id="paint7_linear_1301_8746" x1="55.1932" y1="14.7103" x2="58.4656" y2="15.3833" gradientUnits="userSpaceOnUse">
<stop offset="0.0493823" stop-color="#FEAA69"/>
<stop offset="0.398301" stop-color="#FF8B7B"/>
<stop offset="0.952115" stop-color="#927DED"/>
</linearGradient>
<linearGradient id="paint8_linear_1301_8746" x1="55.1929" y1="17.7136" x2="58.469" y2="18.3873" gradientUnits="userSpaceOnUse">
<stop offset="0.0493823" stop-color="#FEAA69"/>
<stop offset="0.398301" stop-color="#FF8B7B"/>
<stop offset="0.952115" stop-color="#927DED"/>
</linearGradient>
<linearGradient id="paint9_linear_1301_8746" x1="51.1913" y1="17.1902" x2="54.7129" y2="22.5901" gradientUnits="userSpaceOnUse">
<stop offset="0.0493823" stop-color="#FEAA69"/>
<stop offset="0.398301" stop-color="#FF8B7B"/>
<stop offset="0.952115" stop-color="#927DED"/>
</linearGradient>
<linearGradient id="paint10_linear_1301_8746" x1="-7.55105" y1="-64.8677" x2="136.029" y2="-45.2783" gradientUnits="userSpaceOnUse">
<stop offset="0.0493823" stop-color="#FEAA69"/>
<stop offset="0.398301" stop-color="#FF8B7B"/>
<stop offset="0.952115" stop-color="#927DED"/>
</linearGradient>
<linearGradient id="paint11_linear_1301_8746" x1="-7.56288" y1="47.6405" x2="-7.32947" y2="53.4825" gradientUnits="userSpaceOnUse">
<stop offset="0.0493823" stop-color="#FEAA69"/>
<stop offset="0.398301" stop-color="#FF8B7B"/>
<stop offset="0.952115" stop-color="#927DED"/>
</linearGradient>
<linearGradient id="paint12_linear_1301_8746" x1="1.1497" y1="16.8178" x2="105.088" y2="53.8942" gradientUnits="userSpaceOnUse">
<stop offset="0.0493823" stop-color="#FEAA69"/>
<stop offset="0.398301" stop-color="#FF8B7B"/>
<stop offset="0.952115" stop-color="#927DED"/>
</linearGradient>
<clipPath id="clip0_1301_8746">
<rect width="9" height="18" fill="white" transform="translate(50 8.45215)"/>
</clipPath>
</defs>
</svg>
