<svg width="20" height="20" viewBox="0 0 20 20" fill="none" xmlns="http://www.w3.org/2000/svg">
<path d="M19.5 9.99998C19.5 15.2467 15.2467 19.5 10 19.5C4.75329 19.5 0.5 15.2467 0.5 9.99998C0.5 4.75327 4.75329 0.499978 10 0.499978C15.2467 0.499978 19.5 4.75327 19.5 9.99998Z" stroke="#CFCAC4"/>
<path d="M11.6953 10.125L14.0391 12.4688C14.1797 12.6094 14.25 12.7969 14.25 12.9844C14.25 13.1953 14.1797 13.3828 14.0391 13.5234L13.5234 14.0391C13.3594 14.1797 13.1719 14.25 12.9844 14.25C12.7734 14.25 12.6094 14.1797 12.4688 14.0391L10.125 11.6953L7.78125 14.0391C7.64062 14.1797 7.45312 14.25 7.26562 14.25C7.05469 14.25 6.86719 14.1797 6.72656 14.0391L6.21094 13.5234C6.07031 13.3828 6 13.1953 6 12.9844C6 12.7969 6.07031 12.6094 6.21094 12.4688L8.55469 10.125L6.21094 7.78125C6.07031 7.64062 6 7.47656 6 7.26562C6 7.07812 6.07031 6.89062 6.21094 6.72656L6.72656 6.21094C6.86719 6.07031 7.05469 6 7.26562 6C7.45312 6 7.64062 6.07031 7.78125 6.21094L10.125 8.55469L12.4688 6.21094C12.6094 6.07031 12.7734 6 12.9844 6C13.1719 6 13.3594 6.07031 13.5234 6.21094L14.0391 6.72656C14.1797 6.89062 14.25 7.07812 14.25 7.26562C14.25 7.47656 14.1797 7.64062 14.0391 7.78125L11.6953 10.125Z" fill="#CFCAC4"/>
</svg>
