<svg width="30" height="30" viewBox="0 0 30 30" fill="none" xmlns="http://www.w3.org/2000/svg">
<path d="M26.6396 9.92578C26.4659 9.75075 26.2591 9.61195 26.0313 9.5174C25.8035 9.42286 25.5591 9.37446 25.3125 9.375H22.5C21.9822 9.375 21.5625 8.95527 21.5625 8.4375V8.4375C21.5625 6.69702 20.8711 5.02782 19.6404 3.79711C18.4097 2.5664 16.7405 1.875 15 1.875C13.2595 1.875 11.5903 2.5664 10.3596 3.79711C9.1289 5.02782 8.4375 6.69702 8.4375 8.4375V8.4375C8.4375 8.95527 8.01777 9.375 7.5 9.375H4.6875C4.19022 9.375 3.71331 9.57254 3.36167 9.92418C3.01004 10.2758 2.8125 10.7527 2.8125 11.25V23.9062C2.8125 26.1914 4.74609 28.125 7.03125 28.125H22.9687C24.0741 28.1253 25.1357 27.6932 25.9266 26.9209C26.3245 26.5412 26.6415 26.0848 26.8582 25.5793C27.0749 25.0737 27.1869 24.5295 27.1875 23.9795V11.25C27.1883 11.004 27.1402 10.7603 27.0462 10.533C26.9522 10.3057 26.814 10.0993 26.6396 9.92578ZM10.3125 8.4375C10.3125 7.1943 10.8064 6.00201 11.6854 5.12294C12.5645 4.24386 13.7568 3.75 15 3.75C16.2432 3.75 17.4355 4.24386 18.3146 5.12294C19.1936 6.00201 19.6875 7.1943 19.6875 8.4375V8.4375C19.6875 8.95527 19.2678 9.375 18.75 9.375H11.25C10.7322 9.375 10.3125 8.95527 10.3125 8.4375V8.4375Z" fill="url(#paint0_linear_287_1155)"/>
<defs>
<linearGradient id="paint0_linear_287_1155" x1="-0.39858" y1="-14.7656" x2="52.3528" y2="-4.06781" gradientUnits="userSpaceOnUse">
<stop offset="0.0493823" stop-color="#FEAA69"/>
<stop offset="0.398301" stop-color="#FF8B7B"/>
<stop offset="0.952115" stop-color="#927DED"/>
</linearGradient>
</defs>
</svg>
