<svg width="40" height="40" viewBox="0 0 40 40" fill="none" xmlns="http://www.w3.org/2000/svg">
<path d="M40 0H0V40H40V0Z" fill="#00C200"/>
<path d="M34.5181 19.2749C34.5854 18.9207 34.6186 18.6228 34.6339 18.389C34.6592 18.0033 34.6304 17.4306 34.6201 17.2513C34.2648 11.0715 27.8533 6.14795 19.9961 6.14795C11.9108 6.14795 5.35645 11.3613 5.35645 17.7923C5.35645 23.7033 10.8937 28.5855 18.0675 29.3365C18.5061 29.3824 18.8224 29.7783 18.7738 30.2165L18.4683 32.9657C18.399 33.5898 19.0443 34.0438 19.6098 33.7708C25.6707 30.8458 29.295 27.8365 31.4592 25.2295C31.853 24.7551 33.1372 22.9559 33.399 22.4833C33.9548 21.4801 34.3379 20.4028 34.5181 19.2749Z" fill="white"/>
<path d="M11.946 20.1512V15.2464C11.946 14.8328 11.6107 14.4976 11.1971 14.4976C10.7835 14.4976 10.4482 14.8328 10.4482 15.2464V20.9001C10.4482 21.3137 10.7835 21.649 11.1971 21.649H14.1925C14.606 21.649 14.9413 21.3137 14.9413 20.9001C14.9413 20.4865 14.606 20.1512 14.1925 20.1512H11.946Z" fill="#00C500"/>
<path d="M16.5649 21.649H16.2375C15.9143 21.649 15.6523 21.387 15.6523 21.0638V15.0827C15.6523 14.7596 15.9143 14.4976 16.2375 14.4976H16.5649C16.8881 14.4976 17.1501 14.7596 17.1501 15.0827V21.0638C17.1501 21.387 16.8881 21.649 16.5649 21.649Z" fill="#00C500"/>
<path d="M22.6166 15.2464V18.7003C22.6166 18.7003 19.626 14.7995 19.5803 14.7483C19.4375 14.5879 19.2269 14.4892 18.9932 14.4981C18.5858 14.5136 18.2734 14.8696 18.2734 15.2772V20.9C18.2734 21.3136 18.6087 21.6489 19.0223 21.6489C19.4359 21.6489 19.7712 21.3136 19.7712 20.9V17.4671C19.7712 17.4671 22.8072 21.4019 22.8518 21.4442C22.9843 21.5696 23.1622 21.6472 23.3585 21.6489C23.7744 21.6527 24.1143 21.2848 24.1143 20.869V15.2464C24.1143 14.8329 23.779 14.4976 23.3655 14.4976C22.9519 14.4977 22.6166 14.8329 22.6166 15.2464Z" fill="#00C500"/>
<path d="M29.7304 15.2464C29.7304 14.8328 29.3951 14.4976 28.9815 14.4976H25.9862C25.5726 14.4976 25.2373 14.8328 25.2373 15.2464V20.9001C25.2373 21.3137 25.5726 21.649 25.9862 21.649H28.9815C29.3951 21.649 29.7304 21.3137 29.7304 20.9001C29.7304 20.4865 29.3951 20.1512 28.9815 20.1512H26.735V18.822H28.9815C29.3951 18.822 29.7304 18.4867 29.7304 18.0732C29.7304 17.6596 29.3951 17.3243 28.9815 17.3243H26.735V15.9951H28.9815C29.3951 15.9953 29.7304 15.66 29.7304 15.2464Z" fill="#00C500"/>
</svg>
