<svg width="28" height="28" viewBox="0 0 28 28" fill="none" xmlns="http://www.w3.org/2000/svg">
<path d="M15.9507 20.0058L12.5583 23.414C11.5043 24.4785 10.0668 25.0765 8.56918 25.0745H8.56264C6.27986 25.0745 4.22281 23.6979 3.35196 21.5885C2.48112 19.4785 2.9679 17.0517 4.58528 15.4415L7.99472 12.0491C8.56722 11.4785 8.56918 10.5534 7.99865 9.98024C7.42943 9.4084 6.50362 9.40579 5.93048 9.97566L2.52234 13.3681C0.0655262 15.8145 -0.675117 19.4994 0.648488 22.7041C1.97144 25.9087 5.09562 27.9985 8.56264 27.9998H8.57245C10.8487 28.0037 13.0314 27.0949 14.6324 25.4776L18.0248 22.0688C18.3997 21.6991 18.5476 21.1573 18.4121 20.6496C18.2767 20.1412 17.8782 19.7454 17.3699 19.6126C16.8602 19.4785 16.3191 19.6283 15.9521 20.0052L15.9507 20.0058Z" fill="white"/>
<path d="M19.4377 1.26752e-05H19.4273C17.1517 -0.0039131 14.969 0.90423 13.368 2.52227L9.97687 5.93042C9.41615 6.50554 9.42269 7.42349 9.99126 7.98879C10.5592 8.55475 11.4784 8.55736 12.0496 7.99403L15.4427 4.58522C16.4967 3.52136 17.9329 2.92269 19.4312 2.92531H19.4377C21.7198 2.92531 23.7769 4.30126 24.6477 6.41132C25.5192 8.52138 25.0325 10.9481 23.4144 12.5576L20.0063 15.9501C19.4331 16.5206 19.4312 17.4464 20.0011 18.0196C20.5709 18.5914 21.4974 18.594 22.0692 18.0242L25.4787 14.6311C27.9355 12.1854 28.6748 8.49913 27.3519 5.29512C26.0296 2.09044 22.9041 1.26752e-05 19.4377 1.26752e-05Z" fill="white"/>
<path d="M7.8156 20.183C8.38613 20.7542 9.31193 20.7542 9.88377 20.183L20.1847 9.882C20.7559 9.31146 20.7559 8.385 20.1847 7.81316C19.6135 7.24197 18.6871 7.24197 18.1159 7.81316L7.8156 18.1148C7.24376 18.686 7.24376 19.6118 7.8156 20.183Z" fill="white"/>
</svg>
