
        <svg xmlns="http://www.w3.org/2000/svg" xmlns:xlink="http://www.w3.org/1999/xlink" version="1.1" width="3400" height="1208.102692171064" viewBox="0 0 3400 1208.102692171064">
			
			<g transform="scale(20) translate(10, 10)">
				<defs id="SvgjsDefs1054"/><g id="SvgjsG1055" featureKey="K5GtsI-0" transform="matrix(3.2118544298467477,0,0,3.2118544298467477,-3.2118544298467477,-23.831961646039453)" fill="#fff"><path d="M1.26 20 c-0.14 0 -0.26 -0.12 -0.26 -0.26 l0 -1.82 c0 -0.06 0.02 -0.12 0.06 -0.18 l5.26 -7.46 l-4.84 0 c-0.14 0 -0.26 -0.12 -0.26 -0.26 l0 -2.26 c0 -0.14 0.12 -0.26 0.26 -0.26 l8.68 0 c0.14 0 0.26 0.12 0.26 0.26 l0 1.82 c0 0.04 -0.02 0.1 -0.06 0.16 l-5.22 7.48 l5.12 0 c0.08 0 0.14 0.04 0.18 0.08 c0.06 0.04 0.08 0.12 0.08 0.18 l-0.02 2.26 c0 0.14 -0.1 0.26 -0.26 0.26 l-8.98 0 z M13.994 20 l0 -11.98 c0 -0.5 0.1 -0.6 0.26 -0.6 l8.76 0 c0.14 0 0.26 0.1 0.26 0.24 l0 2.26 c0 0.14 -0.12 0.26 -0.26 0.26 l-5.92 0 l0 2.08 l3.74 0 c0.14 0 0.26 0.12 0.26 0.26 l0 2.24 c0 0.14 -0.12 0.26 -0.26 0.26 l-3.74 0 l0 2.14 l5.9 0 c0.14 0 0.26 0.12 0.26 0.26 l0 2.24 c0 0.14 -0.12 0.26 -0.26 0.26 l-8.74 0 c-0.16 0 -0.26 -0.12 -0.26 0.08 z M27.008 20 c-0.14 0 -0.26 -0.12 -0.26 -0.26 l0 -11.98 c0 -0.14 0.12 -0.26 0.26 -0.26 l8.26 0 c0.08 0 0.14 0.02 0.18 0.08 c0.06 0.04 0.08 0.1 0.08 0.18 l-0.02 2.24 c0 0.14 -0.12 0.26 -0.26 0.26 l-5.4 0 l0 2.42 l3.4 0 c0.14 0 0.26 0.12 0.26 0.26 l0 2.26 c0 0.14 -0.12 0.26 -0.26 0.26 l-3.4 0 l0 4.28 c0 0.14 -0.1 0.26 -0.24 0.26 l-2.6 0 z M41.842 20 c-0.14 0 -0.24 -0.12 -0.24 -0.26 l0 -9.44 l-2.74 0 c-0.14 0 -0.26 -0.1 -0.26 -0.24 l0 -2.3 c0 -0.14 0.12 -0.26 0.26 -0.26 l8.58 0 c0.16 0 0.26 0.12 0.26 0.26 l0 2.3 c0 0.14 -0.1 0.24 -0.26 0.24 l-2.74 0 l0 9.44 c0 0.14 -0.12 0.26 -0.26 0.26 l-2.6 0 z"/></g>
			</g>
		</svg>
	