<svg width="41" height="40" viewBox="0 0 41 40" fill="none" xmlns="http://www.w3.org/2000/svg">
<path fill-rule="evenodd" clip-rule="evenodd" d="M20.5 0C8.95169 0 0 8.25281 0 19.4C0 25.2307 2.44935 30.2691 6.43812 33.7492C6.77301 34.0416 6.97512 34.4513 6.98882 34.8896L7.10045 38.4472C7.13608 39.582 8.33757 40.3204 9.40197 39.862L13.4709 38.1095C13.8158 37.9611 14.2023 37.9335 14.5658 38.0311C16.4356 38.5327 18.4257 38.7999 20.4999 38.7999C32.0481 38.7999 40.9999 30.5471 40.9999 19.3999C40.9999 8.25273 32.0482 0 20.5 0V0Z" fill="url(#paint0_radial_425_8384)"/>
<path fill-rule="evenodd" clip-rule="evenodd" d="M8.18952 25.0735L14.2114 15.7527C15.1693 14.2699 17.2205 13.9007 18.6577 14.9523L23.4472 18.4569C23.8867 18.7785 24.4913 18.7767 24.9289 18.4527L31.3974 13.6634C32.2608 13.0241 33.3877 14.0322 32.8099 14.9267L26.7881 24.2476C25.8301 25.7303 23.7789 26.0996 22.3417 25.0479L17.5521 21.5433C17.1127 21.2218 16.508 21.2235 16.0705 21.5475L9.60202 26.3369C8.73862 26.976 7.6116 25.9681 8.18952 25.0735Z" fill="white"/>
<defs>
<radialGradient id="paint0_radial_425_8384" cx="0" cy="0" r="1" gradientUnits="userSpaceOnUse" gradientTransform="translate(7.8957 39.5144) scale(44.6516 43.5624)">
<stop stop-color="#0099FF"/>
<stop offset="0.6098" stop-color="#A033FF"/>
<stop offset="0.9348" stop-color="#FF5280"/>
<stop offset="1" stop-color="#FF7061"/>
</radialGradient>
</defs>
</svg>
