<svg width="87" height="70" viewBox="0 0 87 70" fill="none" xmlns="http://www.w3.org/2000/svg">
<path d="M65.6767 27.188L62.8648 30.0353C61.9912 30.9247 60.7997 31.4243 59.5583 31.4226H59.5529C57.6608 31.4226 55.9557 30.2726 55.2339 28.5103C54.5121 26.7474 54.9156 24.7201 56.2562 23.3748L59.0822 20.5406C59.5567 20.064 59.5583 19.2911 59.0854 18.8122C58.6136 18.3345 57.8463 18.3323 57.3712 18.8084L54.5463 21.6426C52.5099 23.6864 51.896 26.7649 52.9931 29.4422C54.0896 32.1196 56.6792 33.8655 59.5529 33.8665H59.5611C61.4478 33.8698 63.2569 33.1106 64.584 31.7593L67.3959 28.9115C67.7066 28.6027 67.8292 28.1501 67.7169 27.7259C67.6047 27.3012 67.2744 26.9705 66.853 26.8595C66.4306 26.7474 65.9821 26.8726 65.6778 27.1875L65.6767 27.188Z" fill="#FE8B7B"/>
<path d="M68.5663 10.4741H68.5577C66.6715 10.4709 64.8623 11.2296 63.5353 12.5813L60.7245 15.4286C60.2597 15.9091 60.2651 16.676 60.7364 17.1483C61.2071 17.6211 61.9691 17.6233 62.4425 17.1527L65.255 14.3048C66.1286 13.416 67.319 12.9159 68.5609 12.918H68.5663C70.4579 12.918 72.163 14.0676 72.8848 15.8304C73.6072 17.5932 73.2037 19.6206 71.8625 20.9653L69.0376 23.7995C68.5625 24.2761 68.5609 25.0496 69.0333 25.5284C69.5056 26.0062 70.2735 26.0084 70.7475 25.5323L73.5735 22.6975C75.6099 20.6543 76.2227 17.5746 75.1262 14.8979C74.0302 12.2206 71.4395 10.4741 68.5663 10.4741Z" fill="#FE8B7B"/>
<path d="M58.9341 27.3357C59.407 27.8129 60.1744 27.8129 60.6484 27.3357L69.1865 18.7298C69.66 18.2532 69.66 17.4792 69.1865 17.0015C68.7131 16.5243 67.9452 16.5243 67.4717 17.0015L58.9341 25.6079C58.4601 26.0851 58.4601 26.8586 58.9341 27.3357Z" fill="#FE8B7B"/>
<path d="M64.0604 8.809e-07C52.412 -0.00327874 42.7826 9.15142 42.1064 20.8725H8.63906C4.54893 20.8785 1.09601 23.9395 0.568879 28.0282C0.503801 28.2146 0.485905 28.4136 0.514105 28.6087C0.505428 28.7639 0.500005 28.9203 0.500005 29.0772V61.7953C0.497836 63.709 1.16326 65.562 2.37858 67.0324C2.47295 67.2145 2.61124 67.3697 2.78152 67.4839C4.31248 69.0915 6.42859 70.0005 8.63906 70H57.1328C59.3417 70.0005 61.4551 69.0937 62.985 67.4894C63.05 67.4457 63.1102 67.3965 63.1666 67.3418C63.2566 67.2522 63.3331 67.1483 63.3911 67.0352C64.6086 65.5648 65.2746 63.7101 65.2724 61.7953V44.3058C76.8389 43.669 86.0556 33.9841 86.0556 22.1696C86.042 9.93089 76.2022 0.0136663 64.0604 8.809e-07ZM8.63906 23.3164H42.0955C42.3564 28.5781 44.4763 33.5709 48.0713 37.3939C48.6082 37.9667 49.1738 38.5112 49.7671 39.0239L36.1436 50.6706C34.2726 52.2782 31.5199 52.2799 29.6489 50.6733L3.0337 27.9582C3.56679 25.2623 5.91231 23.3208 8.63906 23.3164ZM8.63906 67.5561C7.40204 67.5566 6.19865 67.1516 5.21001 66.4011L22.5701 48.0332C22.8797 47.7221 22.9996 47.2674 22.8841 46.8421C22.7675 46.4179 22.434 46.0889 22.0104 45.9817C21.5863 45.8746 21.1378 46.0052 20.8368 46.3239L3.61886 64.5453C3.16223 63.7019 2.92307 62.7563 2.92415 61.7953V31.0668L28.0821 52.5384C30.8571 54.92 34.9381 54.9184 37.7115 52.534L51.7373 40.5446C55.0287 42.801 58.8726 44.1025 62.8477 44.3064V61.7953C62.8494 62.7595 62.6086 63.709 62.1482 64.5546L44.0869 46.0943C43.6161 45.6215 42.8558 45.6193 42.3824 46.0889C41.9084 46.5578 41.8975 47.3242 42.358 47.8069L60.5543 66.4066C59.5678 67.1538 58.3666 67.5572 57.1328 67.5561H8.63906ZM64.0604 41.8953C59.8938 41.9122 55.8324 40.5746 52.4803 38.0799C52.4293 38.0345 52.3751 37.9935 52.3187 37.9564C51.4293 37.2808 50.5979 36.5308 49.8338 35.7152C43.4578 28.9126 42.7018 18.5319 48.023 10.8629C53.3442 3.19551 63.2789 0.350381 71.8052 4.05369C80.3314 7.75755 85.1022 16.9899 83.2268 26.1544C81.351 35.3189 73.3448 41.8947 64.0604 41.8953Z" fill="#FE8B7B"/>
</svg>

