<svg width="41" height="34" viewBox="0 0 41 34" fill="none" xmlns="http://www.w3.org/2000/svg">
<path d="M36.7855 8.85275C36.8115 9.20807 36.8115 9.56346 36.8115 9.91877C36.8115 20.7563 28.3566 33.2436 12.9035 33.2436C8.14274 33.2436 3.72019 31.8984 0 29.5635C0.67642 29.6396 1.32673 29.6649 2.02918 29.6649C5.95741 29.6649 9.57358 28.3706 12.4613 26.1624C8.76711 26.0863 5.67129 23.7259 4.60465 20.4771C5.125 20.5532 5.64527 20.604 6.19164 20.604C6.94606 20.604 7.70055 20.5024 8.40292 20.3249C4.55268 19.5634 1.6649 16.2639 1.6649 12.2792V12.1777C2.78352 12.7868 4.08438 13.1675 5.46309 13.2182C3.19976 11.7461 1.71695 9.23346 1.71695 6.3908C1.71695 4.86799 2.13312 3.47205 2.86159 2.25377C6.99803 7.22838 13.2157 10.4771 20.1877 10.8324C20.0576 10.2233 19.9796 9.58885 19.9796 8.95432C19.9796 4.4365 23.7258 0.756348 28.3825 0.756348C30.8019 0.756348 32.9871 1.74619 34.5221 3.34518C36.4211 2.98986 38.2422 2.30455 39.8552 1.36549C39.2308 3.26908 37.904 4.86807 36.161 5.88322C37.852 5.70565 39.491 5.24869 40.9998 4.61424C39.8554 6.23854 38.4244 7.68518 36.7855 8.85275Z" fill="#1DA1F2"/>
</svg>
