<svg width="40" height="40" viewBox="0 0 40 40" fill="none" xmlns="http://www.w3.org/2000/svg">
<path d="M33.75 12.5H6.25C5.55964 12.5 5 13.0596 5 13.75V18.75C5 19.4404 5.55964 20 6.25 20H33.75C34.4404 20 35 19.4404 35 18.75V13.75C35 13.0596 34.4404 12.5 33.75 12.5Z" stroke="#4A4A4A" stroke-width="1.5" stroke-linecap="round" stroke-linejoin="round"/>
<path d="M32.5 20V31.25C32.5 31.5815 32.3683 31.8995 32.1339 32.1339C31.8995 32.3683 31.5815 32.5 31.25 32.5H8.75C8.41848 32.5 8.10054 32.3683 7.86612 32.1339C7.6317 31.8995 7.5 31.5815 7.5 31.25V20" stroke="#4A4A4A" stroke-width="1.5" stroke-linecap="round" stroke-linejoin="round"/>
<path d="M20 12.5V32.5" stroke="#4A4A4A" stroke-width="1.5" stroke-linecap="round" stroke-linejoin="round"/>
<path d="M27.0781 10.7343C25.2969 12.4999 20 12.4999 20 12.4999C20 12.4999 20 7.20304 21.7656 5.42179C22.4701 4.71731 23.4256 4.32153 24.4219 4.32153C25.4182 4.32153 26.3736 4.71731 27.0781 5.42179C27.7826 6.12627 28.1784 7.08175 28.1784 8.07804C28.1784 9.07433 27.7826 10.0298 27.0781 10.7343V10.7343Z" stroke="#4A4A4A" stroke-width="1.5" stroke-linecap="round" stroke-linejoin="round"/>
<path d="M12.922 10.7343C14.7033 12.4999 20.0002 12.4999 20.0002 12.4999C20.0002 12.4999 20.0002 7.20304 18.2345 5.42179C17.53 4.71731 16.5746 4.32153 15.5783 4.32153C14.582 4.32153 13.6265 4.71731 12.922 5.42179C12.2176 6.12627 11.8218 7.08175 11.8218 8.07804C11.8218 9.07433 12.2176 10.0298 12.922 10.7343V10.7343Z" stroke="#4A4A4A" stroke-width="1.5" stroke-linecap="round" stroke-linejoin="round"/>
</svg>

