<svg xmlns="http://www.w3.org/2000/svg" width="1300" height="1300" viewBox="0 0 1300 1300">
  <defs>
    <style>
      .cls-1 {
        fill: #333333;
      }
    </style>
  </defs>
  <path id="ig.svg" class="cls-1" d="M6770,9958.12c173.56,0,194.11.66,262.65,3.79,63.38,2.89,97.8,13.48,120.7,22.38,30.34,11.79,51.99,25.91,74.74,48.61,22.74,22.8,36.83,44.4,48.62,74.7,8.9,23,19.49,57.4,22.38,120.7,3.13,68.6,3.79,89.1,3.79,262.7s-0.66,194.1-3.79,262.7c-2.89,63.3-13.48,97.7-22.38,120.6-11.79,30.4-25.88,52-48.62,74.8-22.75,22.7-44.4,36.8-74.74,48.6-22.9,8.9-57.32,19.5-120.7,22.4-68.53,3.1-89.08,3.8-262.65,3.8s-194.13-.7-262.66-3.8c-63.37-2.9-97.79-13.5-120.69-22.4-30.34-11.8-52-25.9-74.74-48.6-22.74-22.8-36.83-44.4-48.62-74.8-8.9-22.9-19.49-57.3-22.38-120.6-3.13-68.6-3.79-89.1-3.79-262.7s0.66-194.1,3.79-262.7c2.89-63.3,13.48-97.7,22.38-120.7,11.79-30.3,25.87-51.9,48.62-74.7,22.74-22.7,44.4-36.82,74.74-48.61,22.9-8.9,57.32-19.49,120.69-22.38,68.54-3.13,89.1-3.79,262.66-3.79m0-117.12c-176.53,0-198.67.75-267.99,3.91-69.19,3.16-116.44,14.14-157.79,30.21-42.74,16.61-78.99,38.84-115.12,74.97s-58.37,72.41-74.98,115.11c-16.06,41.4-27.05,88.6-30.21,157.8-3.16,69.3-3.91,91.5-3.91,268s0.75,198.7,3.91,268c3.16,69.2,14.15,116.4,30.21,157.8,16.61,42.7,38.84,79,74.98,115.1s72.38,58.4,115.12,75c41.35,16,88.6,27,157.79,30.2,69.32,3.2,91.46,3.9,267.99,3.9s198.66-.7,267.99-3.9c69.19-3.2,116.44-14.2,157.78-30.2,42.75-16.6,79-38.9,115.13-75s58.36-72.4,74.97-115.1c16.07-41.4,27.06-88.6,30.22-157.8,3.16-69.3,3.91-91.5,3.91-268s-0.75-198.7-3.91-268c-3.16-69.2-14.15-116.4-30.22-157.8-16.61-42.7-38.83-78.97-74.97-115.11s-72.38-58.36-115.13-74.97c-41.34-16.07-88.59-27.05-157.78-30.21-69.33-3.16-91.46-3.91-267.99-3.91h0Zm0,316.2c-184.34,0-333.78,149.5-333.78,333.8s149.44,333.8,333.78,333.8,333.78-149.5,333.78-333.8S6954.34,10157.2,6770,10157.2Zm0,550.5c-119.66,0-216.67-97-216.67-216.7s97.01-216.7,216.67-216.7,216.67,97,216.67,216.7S6889.66,10707.7,6770,10707.7Zm424.97-563.7a78,78,0,1,1-78-78A77.985,77.985,0,0,1,7194.97,10144Z" transform="translate(-6120 -9841)"/>
</svg>
