<svg width="112" height="30" viewBox="0 0 112 30" fill="none" xmlns="http://www.w3.org/2000/svg">
<path d="M0.623528 30C0.287782 30 0 29.7138 0 29.38V25.0397C0 24.8967 0.0479636 24.7536 0.143891 24.6105L12.7583 6.82035H1.15113C0.815383 6.82035 0.527601 6.53418 0.527601 6.20032V0.810811C0.527601 0.476948 0.815383 0.190779 1.15113 0.190779H21.9674C22.3031 0.190779 22.5909 0.476948 22.5909 0.810811V5.15103C22.5909 5.24642 22.5429 5.38951 22.447 5.53259L9.92848 23.3704H22.2072C22.399 23.3704 22.5429 23.4658 22.6389 23.5612C22.7828 23.6566 22.8307 23.8474 22.8307 23.9905L22.7828 29.38C22.7828 29.7138 22.5429 30 22.1592 30H0.623528ZM31.162 30V1.43084C31.162 0.238475 31.4018 0 31.7855 0H52.7936C53.1294 0 53.4172 0.238473 53.4172 0.572336V5.96184C53.4172 6.29571 53.1294 6.58188 52.7936 6.58188H38.5964V11.5421H47.5656C47.9013 11.5421 48.1891 11.8283 48.1891 12.1622V17.504C48.1891 17.8378 47.9013 18.124 47.5656 18.124H38.5964V23.2273H52.7457C53.0814 23.2273 53.3692 23.5135 53.3692 23.8474V29.1892C53.3692 29.5231 53.0814 29.8092 52.7457 29.8092H31.7855C31.4018 29.8092 31.162 29.5231 31.162 30ZM62.372 30C62.0362 30 61.7485 29.7138 61.7485 29.38V0.810811C61.7485 0.476948 62.0362 0.190779 62.372 0.190779H82.181C82.3728 0.190779 82.5167 0.238473 82.6127 0.381558C82.7566 0.476947 82.8045 0.620032 82.8045 0.810811L82.7565 6.15262C82.7565 6.48649 82.4688 6.77266 82.133 6.77266H69.1828V12.5437H77.3367C77.6724 12.5437 77.9602 12.8299 77.9602 13.1638V18.5533C77.9602 18.8871 77.6724 19.1733 77.3367 19.1733H69.1828V29.38C69.1828 29.7138 68.943 30 68.6073 30H62.372ZM97.9466 30C97.6109 30 97.3711 29.7138 97.3711 29.38V6.86804H90.8001C90.4643 6.86804 90.1765 6.62957 90.1765 6.29571V0.810811C90.1765 0.476948 90.4643 0.190779 90.8001 0.190779H111.376C111.76 0.190779 112 0.476948 112 0.810811V6.29571C112 6.62957 111.76 6.86804 111.376 6.86804H104.805V29.38C104.805 29.7138 104.518 30 104.182 30H97.9466Z" fill="black"/>
</svg>
