<svg width="26" height="22" viewBox="0 0 26 22" fill="none" xmlns="http://www.w3.org/2000/svg">
  <defs>
    <style>
      .cls-1 {
        fill: #333333;
      }
    </style>
  </defs>
  <path class="cls-1" d="M23.3274 6.0068C23.3439 6.23947 23.3439 6.47218 23.3439 6.70485C23.3439 13.8015 17.9823 21.9785 8.18274 21.9785C5.16369 21.9785 2.35915 21.0976 0 19.5687C0.428949 19.6185 0.841344 19.6351 1.2868 19.6351C3.77787 19.6351 6.07105 18.7875 7.90228 17.3416C5.55964 17.2917 3.59643 15.7461 2.92002 13.6187C3.25 13.6685 3.57993 13.7018 3.92641 13.7018C4.40482 13.7018 4.88328 13.6353 5.32868 13.519C2.88707 13.0204 1.05579 10.8598 1.05579 8.25049V8.18404C1.76516 8.58292 2.5901 8.83221 3.4644 8.86541C2.02912 7.90144 1.0888 6.25609 1.0888 4.39465C1.0888 3.39748 1.35271 2.48339 1.81467 1.68563C4.43778 4.94312 8.38069 7.07043 12.802 7.30314C12.7195 6.90427 12.67 6.48881 12.67 6.0733C12.67 3.11493 15.0456 0.705078 17.9987 0.705078C19.5329 0.705078 20.9187 1.35325 21.8921 2.4003C23.0963 2.16764 24.2512 1.71888 25.274 1.10396C24.8781 2.35048 24.0367 3.39753 22.9314 4.06228C24.0037 3.946 25.0431 3.64677 25.9999 3.23132C25.2741 4.29495 24.3667 5.24224 23.3274 6.0068V6.0068Z"/>
</svg>
