<svg width="80" height="57" viewBox="0 0 80 57" fill="none" xmlns="http://www.w3.org/2000/svg">
<path d="M74.22 36.44C77.1029 36.44 79.4399 34.1029 79.4399 31.22C79.4399 28.337 77.1029 26 74.22 26C71.337 26 69 28.337 69 31.22C69 34.1029 71.337 36.44 74.22 36.44Z" fill="#4A4A4A"/>
<path d="M74 1L29 46" stroke="#FE8B7B" stroke-linecap="round" stroke-linejoin="round"/>
<path d="M64.5 57C65.8807 57 67 55.8807 67 54.5C67 53.1193 65.8807 52 64.5 52C63.1193 52 62 53.1193 62 54.5C62 55.8807 63.1193 57 64.5 57Z" fill="#BEB1F4"/>
<path d="M12.9757 45.0775L9.83223 44.431L10.4788 41.2876C10.6571 40.4181 10.0998 39.5709 9.2303 39.3926C8.36084 39.2142 7.51368 39.7716 7.33533 40.6411L6.68881 43.7845L3.54538 43.138C2.67593 42.9596 1.82876 43.517 1.65041 44.3864C1.47206 45.2559 2.02941 46.103 2.89886 46.2814L6.04229 46.9279L5.39577 50.0713C5.21742 50.9408 5.77476 51.7879 6.64422 51.9663C7.51368 52.1446 8.36084 51.5873 8.53919 50.7178L9.18571 47.5744L12.3291 48.2209C13.1986 48.3993 14.0458 47.8419 14.2241 46.9725C14.4025 46.103 13.8451 45.2559 12.9757 45.0775Z" fill="#FE8B7B"/>
<path d="M12.3585 43.7181L9.21504 43.0716L9.86156 39.9282C10.0399 39.0587 9.48257 38.2116 8.61311 38.0332C7.74365 37.8549 6.89649 38.4122 6.71814 39.2817L6.07162 42.4251L2.9282 41.7786C2.05874 41.6002 1.21157 42.1576 1.03322 43.027C0.854874 43.8965 1.41222 44.7437 2.28168 44.922L5.4251 45.5685L4.77858 48.7119C4.60023 49.5814 5.15757 50.4286 6.02703 50.6069C6.89649 50.7853 7.74365 50.2279 7.922 49.3585L8.56852 46.215L11.7119 46.8616C12.5814 47.0399 13.4286 46.4826 13.6069 45.6131C13.7853 44.7437 13.2279 43.8965 12.3585 43.7181V43.7181Z" stroke="#4A4A4A" stroke-miterlimit="10"/>
</svg>
