<svg width="208" height="95" viewBox="0 0 208 95" fill="none" xmlns="http://www.w3.org/2000/svg">
<path d="M86.041 4.35074C83.2563 5.0969 81.6038 7.95924 82.3499 10.7439C83.0961 13.5286 85.9584 15.1812 88.7431 14.435C91.5277 13.6889 93.1803 10.8266 92.4341 8.04188C91.688 5.25719 88.8257 3.60459 86.041 4.35074Z" fill="#FE8B7B"/>
<path d="M183 67L156 94" stroke="#4A4A4A" stroke-linecap="round" stroke-linejoin="round"/>
<path d="M97.4161 24.6475C96.0824 25.0048 95.291 26.3757 95.6483 27.7094C96.0057 29.043 97.3765 29.8345 98.7102 29.4771C100.044 29.1198 100.835 27.7489 100.478 26.4153C100.121 25.0816 98.7498 24.2901 97.4161 24.6475Z" fill="#4A4A4A"/>
<path d="M205.976 75.0785L202.832 74.432L203.479 71.2885C203.657 70.4191 203.1 69.5719 202.23 69.3936C201.361 69.2152 200.514 69.7726 200.335 70.642L199.689 73.7855L196.545 73.1389C195.676 72.9606 194.829 73.5179 194.65 74.3874C194.472 75.2568 195.029 76.104 195.899 76.2824L199.042 76.9289L198.396 80.0723C198.217 80.9418 198.775 81.7889 199.644 81.9673C200.514 82.1456 201.361 81.5883 201.539 80.7188L202.186 77.5754L205.329 78.2219C206.199 78.4003 207.046 77.8429 207.224 76.9735C207.402 76.104 206.845 75.2568 205.976 75.0785Z" fill="#FE8B7B"/>
<path d="M205.358 73.7181L202.215 73.0716L202.862 69.9282C203.04 69.0587 202.483 68.2116 201.613 68.0332C200.744 67.8549 199.896 68.4122 199.718 69.2817L199.072 72.4251L195.928 71.7786C195.059 71.6002 194.212 72.1576 194.033 73.027C193.855 73.8965 194.412 74.7437 195.282 74.922L198.425 75.5685L197.779 78.7119C197.6 79.5814 198.158 80.4286 199.027 80.6069C199.896 80.7853 200.744 80.2279 200.922 79.3585L201.569 76.215L204.712 76.8616C205.581 77.0399 206.429 76.4826 206.607 75.6131C206.785 74.7437 206.228 73.8965 205.358 73.7181V73.7181Z" stroke="#4A4A4A" stroke-miterlimit="10"/>
<path d="M98.5652 93.998L99 93.998C96.9924 69.7992 86.4691 47.3123 68.8501 29.9511C50.3128 11.6849 26.0189 1.15527 8.42506e-06 -1.17743e-05L8.38778e-06 0.426461C52.0927 2.77907 94.2818 43.1698 98.5652 94L98.5652 93.998Z" fill="#FE8B7B"/>
</svg>
