<svg width="82" height="79" viewBox="0 0 82 79" fill="none" xmlns="http://www.w3.org/2000/svg">
<path d="M81 1L21 61" stroke="#BEB1F4" stroke-linecap="round" stroke-linejoin="round"/>
<path d="M12.9757 67.0785L9.83223 66.432L10.4788 63.2885C10.6571 62.4191 10.0998 61.5719 9.2303 61.3936C8.36084 61.2152 7.51368 61.7726 7.33533 62.642L6.68881 65.7855L3.54538 65.1389C2.67593 64.9606 1.82876 65.5179 1.65041 66.3874C1.47206 67.2568 2.02941 68.104 2.89886 68.2824L6.04229 68.9289L5.39577 72.0723C5.21742 72.9418 5.77476 73.7889 6.64422 73.9673C7.51368 74.1456 8.36084 73.5883 8.53919 72.7188L9.18571 69.5754L12.3291 70.2219C13.1986 70.4003 14.0458 69.8429 14.2241 68.9735C14.4025 68.104 13.8451 67.2568 12.9757 67.0785Z" fill="#FE8B7B"/>
<path d="M12.3585 65.7181L9.21504 65.0716L9.86156 61.9282C10.0399 61.0587 9.48257 60.2116 8.61311 60.0332C7.74365 59.8549 6.89649 60.4122 6.71814 61.2817L6.07162 64.4251L2.9282 63.7786C2.05874 63.6002 1.21157 64.1576 1.03322 65.027C0.854874 65.8965 1.41222 66.7437 2.28168 66.922L5.4251 67.5685L4.77858 70.7119C4.60023 71.5814 5.15757 72.4286 6.02703 72.6069C6.89649 72.7853 7.74365 72.2279 7.922 71.3585L8.56852 68.215L11.7119 68.8616C12.5814 69.0399 13.4286 68.4826 13.6069 67.6131C13.7853 66.7437 13.2279 65.8965 12.3585 65.7181V65.7181Z" stroke="#4A4A4A" stroke-miterlimit="10"/>
<path d="M37 76C37 77.6563 35.6563 79 34 79C32.3437 79 31 77.6563 31 76C31 74.3437 32.3437 73 34 73C35.6563 73 37 74.3437 37 76Z" fill="#4A4A4A"/>
</svg>
