<svg width="144" height="94" viewBox="0 0 144 94" fill="none" xmlns="http://www.w3.org/2000/svg">
<path d="M45.4348 0.00200222H45C47.0076 24.2008 57.5309 46.6877 75.1499 64.0489C93.6872 82.3151 117.981 92.8447 144 94V93.5735C91.9073 91.2209 49.7182 50.8302 45.4348 0V0.00200222Z" fill="#FE8B7B"/>
<path d="M43.22 63.44C46.1029 63.44 48.4399 61.1029 48.4399 58.22C48.4399 55.337 46.1029 53 43.22 53C40.337 53 38 55.337 38 58.22C38 61.1029 40.337 63.44 43.22 63.44Z" fill="#FE8B7B"/>
<path d="M52.5 77C53.8807 77 55 75.8807 55 74.5C55 73.1193 53.8807 72 52.5 72C51.1193 72 50 73.1193 50 74.5C50 75.8807 51.1193 77 52.5 77Z" fill="#4A4A4A"/>
<path d="M12.9757 24.0775L9.83223 23.431L10.4788 20.2876C10.6571 19.4181 10.0998 18.5709 9.2303 18.3926C8.36084 18.2142 7.51368 18.7716 7.33533 19.6411L6.68881 22.7845L3.54538 22.138C2.67593 21.9596 1.82876 22.517 1.65041 23.3864C1.47206 24.2559 2.02941 25.103 2.89886 25.2814L6.04229 25.9279L5.39577 29.0713C5.21742 29.9408 5.77476 30.7879 6.64422 30.9663C7.51368 31.1446 8.36084 30.5873 8.53919 29.7178L9.18571 26.5744L12.3291 27.2209C13.1986 27.3993 14.0458 26.8419 14.2241 25.9725C14.4025 25.103 13.8451 24.2559 12.9757 24.0775Z" fill="#FE8B7B"/>
<path d="M12.3585 22.7181L9.21504 22.0716L9.86156 18.9282C10.0399 18.0587 9.48257 17.2116 8.61311 17.0332C7.74365 16.8549 6.89649 17.4122 6.71814 18.2817L6.07162 21.4251L2.9282 20.7786C2.05874 20.6002 1.21157 21.1576 1.03322 22.027C0.854874 22.8965 1.41222 23.7437 2.28168 23.922L5.4251 24.5685L4.77858 27.7119C4.60023 28.5814 5.15757 29.4286 6.02703 29.6069C6.89649 29.7853 7.74365 29.2279 7.922 28.3585L8.56852 25.215L11.7119 25.8616C12.5814 26.0399 13.4286 25.4826 13.6069 24.6131C13.7853 23.7437 13.2279 22.8965 12.3585 22.7181V22.7181Z" stroke="#4A4A4A" stroke-miterlimit="10"/>
</svg>
