<svg xmlns="http://www.w3.org/2000/svg" width="206.245" height="206.245" viewBox="0 0 206.245 206.245">
  <g id="ribbon" transform="translate(-725.504 -9315.736)">
    <path id="パス_46" data-name="パス 46" d="M12.822,12.935,25.757,0V266.2L12.35,252.793.283,240.726.709,25.049Z" transform="translate(913.536 9315.536) rotate(45)" fill="#71a0c0"/>
    <path id="パス_45" data-name="パス 45" d="M10.521,0,68.385,15.759l2,14.736s-46.8,3.9-59.861,5.609S0,31.053,0,24.822V11.283C0,5.051-1.636-2.74,10.521,0Z" transform="translate(771.516 9380.896)" fill="#71a0c0"/>
    <path id="パス_44" data-name="パス 44" d="M59.861,0,2,15.759,0,30.5,59.861,36.1c11.231,1.742,10.521-5.051,10.521-11.283V11.283C70.382,5.051,70.7-2.154,59.861,0Z" transform="translate(836.898 9380.896)" fill="#71a0c0"/>
    <path id="パス_43" data-name="パス 43" d="M0,0H24V78L12.5,71.355,0,78Z" transform="matrix(0.956, 0.292, -0.292, 0.956, 820.947, 9398.947)" fill="#71a0c0"/>
    <path id="パス_42" data-name="パス 42" d="M0,0,11.679,8.188,24,0V78H0Z" transform="translate(882.654 9473.539) rotate(163)" fill="#71a0c0"/>
  </g>
</svg>
