<svg xmlns="http://www.w3.org/2000/svg" width="126" height="126" viewBox="0 0 126 126">
  <g id="ribbon" transform="translate(-142.504 -9315.736)">
    <path id="パス_35" data-name="パス 35" d="M7.661,7.9l7.9-7.9V162.628l-8.191-8.191L0,147.065.26,15.3Z" transform="translate(257.499 9315.736) rotate(45)" fill="#0e0b58"/>
    <path id="パス_36" data-name="パス 36" d="M6.35-.22,41.7,9.408l1.22,9S14.328,20.793,6.35,21.837-.077,18.751-.077,14.944V6.673C-.077,2.866-1.077-1.894,6.35-.22Z" transform="translate(170.691 9355.764)" fill="#0e0b58"/>
    <path id="パス_37" data-name="パス 37" d="M36.571-.151,1.22,9.476l-1.22,9,36.571,3.427C43.432,22.97,43,18.82,43,15.013V6.741C43,2.935,43.19-1.468,36.571-.151Z" transform="translate(210.557 9355.695)" fill="#0e0b58"/>
    <path id="パス_39" data-name="パス 39" d="M0,0H14.662V47.652l-7.023-4.06L0,47.652Z" transform="matrix(0.956, 0.292, -0.292, 0.956, 200.812, 9366.571)" fill="#0e0b58"/>
    <path id="パス_38" data-name="パス 38" d="M0,0,7.135,5l7.527-5V47.652H0Z" transform="translate(238.511 9412.142) rotate(163)" fill="#0e0b58"/>
  </g>
</svg>
