<svg width="33" height="34" viewBox="0 0 33 34" fill="none" xmlns="http://www.w3.org/2000/svg">
<path d="M28.8958 4.375H4.10417C2.49334 4.375 1.1875 5.68084 1.1875 7.29167V29.8958C1.1875 31.5067 2.49334 32.8125 4.10417 32.8125H28.8958C30.5067 32.8125 31.8125 31.5067 31.8125 29.8958V7.29167C31.8125 5.68084 30.5067 4.375 28.8958 4.375Z" stroke="#FE8B7B" stroke-width="2" stroke-miterlimit="10" stroke-linecap="square"/>
<path d="M8.479 8.021V1.4585" stroke="#FE8B7B" stroke-width="2" stroke-miterlimit="10" stroke-linecap="square"/>
<path d="M24.521 8.021V1.4585" stroke="#FE8B7B" stroke-width="2" stroke-miterlimit="10" stroke-linecap="square"/>
<path d="M1.1875 12.396H31.8125" stroke="#FE8B7B" stroke-width="2" stroke-miterlimit="10"/>
<path d="M20.788 18.3438C20.5006 18.0429 20.1481 17.8117 19.7575 17.6681C19.3669 17.5244 18.9486 17.4721 18.5347 17.5151C18.1207 17.5581 17.7221 17.6953 17.3694 17.9162C17.0167 18.1371 16.7192 18.4357 16.4998 18.7894C16.2803 18.4357 15.9828 18.137 15.63 17.9162C15.2772 17.6953 14.8786 17.5581 14.4646 17.5151C14.0506 17.4721 13.6322 17.5244 13.2416 17.6681C12.8509 17.8117 12.4984 18.0429 12.2109 18.3438C11.6875 18.8931 11.3955 19.6228 11.3955 20.3815C11.3955 21.1402 11.6875 21.8699 12.2109 22.4192L16.4998 26.8583L20.7888 22.4192C21.3124 21.8699 21.6044 21.1402 21.6043 20.3814C21.6042 19.6225 21.3119 18.8929 20.788 18.3438Z" stroke="#FE8B7B" stroke-width="2" stroke-miterlimit="10"/>
</svg>
