<svg width="58" height="19" viewBox="0 0 58 19" fill="none" xmlns="http://www.w3.org/2000/svg">
<g clip-path="url(#clip0_1684_8754)">
<path d="M0 16.7266V18.5367H24.9587C23.9005 18.0857 22.6281 17.4907 21.2193 16.7266H0Z" fill="#FE8B7B"/>
<path d="M31.0837 15.3955H28.8115V19.0032H31.0837V15.3955Z" fill="#FE8B7B"/>
<path d="M7.7157 0L6.11865 0.948904C13.1625 11.9944 23.803 16.6857 27.471 18.0354V16.0781C23.5174 14.4966 14.0065 9.86484 7.7157 0Z" fill="#FE8B7B"/>
<path d="M57.9999 16.7266V18.5367H34.9434C36.0016 18.0857 37.274 17.4907 38.6828 16.7266H57.9999Z" fill="#FE8B7B"/>
<path d="M52.1865 0L53.7835 0.948904C46.7396 11.9944 36.0992 16.6857 32.4312 18.0354V16.0781C36.3848 14.4966 45.8924 9.86798 52.1865 0Z" fill="#FE8B7B"/>
</g>
<defs>
<clipPath id="clip0_1684_8754">
<rect width="58" height="19" fill="white"/>
</clipPath>
</defs>
</svg>
