<svg width="49" height="30" viewBox="0 0 49 30" fill="none" xmlns="http://www.w3.org/2000/svg">
<path d="M20.3233 12.6508C18.8289 12.8109 17.3345 13.0424 15.8343 13.1138C11.777 13.3125 7.76802 12.9653 3.95847 11.4586C0.934836 10.2645 -0.536332 7.56575 0.177958 4.80329C0.675445 2.87999 1.96659 1.64344 3.7378 0.867951C6.01036 -0.12553 8.38553 -0.198835 10.7607 0.308515C15.5246 1.32707 19.729 3.48958 23.4031 6.67644C24.3632 7.5098 24.3612 7.53295 25.2478 6.62821C28.4883 3.31211 32.6656 1.83828 37.0075 0.703978C39.4388 0.069308 41.8991 -0.142892 44.3653 0.526502C47.3695 1.34251 49.1524 3.53588 48.9898 6.26168C48.8659 8.3451 47.7935 9.88644 46.0552 10.988C43.9355 12.3306 41.541 12.8437 39.1097 13.2238C35.9564 13.7176 32.8166 13.598 29.6884 12.9961C29.431 12.946 29.0903 12.6875 28.9103 13.0328C28.7786 13.2855 29.0903 13.4803 29.2471 13.6732C32.8553 18.1217 36.4635 22.5683 40.0756 27.0148C40.6331 27.7016 40.5622 28.3195 39.8627 28.8687C39.6846 29.0076 39.4988 29.1387 39.3401 29.2969C38.8735 29.758 38.527 29.7329 38.0896 29.187C35.153 25.5198 32.1836 21.8796 29.2258 18.2297C27.8688 16.5553 26.4731 14.9079 25.1704 13.1929C24.5955 12.4367 24.2722 12.5428 23.7379 13.2064C19.8451 18.0446 15.9291 22.8634 12.017 27.6861C11.4692 28.3613 10.9039 29.0211 10.3658 29.702C10.1238 30.0088 9.88767 30.1149 9.55859 29.8467C9.08433 29.4609 8.60233 29.0828 8.13388 28.6912C7.65962 28.2957 8.06419 27.9967 8.2868 27.7209C9.77539 25.8632 11.2795 24.017 12.7777 22.167C15.209 19.1673 17.6423 16.1695 20.0697 13.1678C20.1839 13.027 20.3852 12.9209 20.3213 12.6528L20.3233 12.6508ZM35.1821 10.6793C35.997 10.6176 36.9339 10.5867 37.8592 10.469C40.0698 10.1874 42.2708 9.844 44.2472 8.71355C45.2073 8.16376 45.9603 7.44229 46.059 6.26168C46.1945 4.64704 45.2073 3.61883 43.2251 3.21758C40.6951 2.70444 38.2889 3.28124 35.9041 4.00079C32.8282 4.92868 29.8762 6.11121 27.5397 8.43384C26.8467 9.12445 26.8758 9.23055 27.8301 9.53149C30.184 10.2723 32.6095 10.5674 35.1821 10.6793ZM13.3759 10.2877C16.4324 10.307 18.6876 9.96746 20.9214 9.46204C21.1634 9.40803 21.5157 9.32508 21.5893 9.15725C21.7344 8.82544 21.3279 8.69426 21.1305 8.52065C19.8935 7.43264 18.5327 6.50861 17.079 5.74469C13.9818 4.11654 10.7975 2.74688 7.16794 2.98223C5.9852 3.0594 4.87408 3.34104 3.9275 4.07988C2.65571 5.07336 2.58216 6.84813 3.74941 7.95735C4.49661 8.66726 5.42577 9.02607 6.39751 9.28264C8.93141 9.95203 11.5156 10.2472 13.3739 10.2858L13.3759 10.2877Z" fill="#FE8B7B"/>
</svg>
