<svg width="26" height="26" viewBox="0 0 26 26" fill="none" xmlns="http://www.w3.org/2000/svg">
<path d="M23.5291 0H2.47089C1.81579 0.000712456 1.18772 0.261267 0.724495 0.724495C0.261267 1.18772 0.000712456 1.81579 0 2.47089L0 23.5291C0.000712456 24.1842 0.261267 24.8123 0.724495 25.2755C1.18772 25.7387 1.81579 25.9993 2.47089 26H23.5291C24.1842 25.9993 24.8123 25.7387 25.2755 25.2755C25.7387 24.8123 25.9993 24.1842 26 23.5291V2.47089C25.9993 1.81579 25.7387 1.18772 25.2755 0.724495C24.8123 0.261267 24.1842 0.000712456 23.5291 0V0ZM24.8121 2.47089V23.5291C24.8119 23.8693 24.6766 24.1955 24.4361 24.4361C24.1955 24.6766 23.8693 24.8119 23.5291 24.8121H2.47089C2.13077 24.8116 1.80471 24.6763 1.5642 24.4358C1.32369 24.1953 1.18837 23.8692 1.18789 23.5291V2.47089C1.18837 2.13077 1.32369 1.80471 1.5642 1.5642C1.80471 1.32369 2.13077 1.18837 2.47089 1.18789H23.5291C23.8692 1.18837 24.1953 1.32369 24.4358 1.5642C24.6763 1.80471 24.8116 2.13077 24.8121 2.47089Z" fill="#4A4A4A"/>
<path d="M11.7534 15.8652L10.1124 15.2686L9.03574 13.8914C8.9286 13.754 8.79154 13.6428 8.63498 13.5664C8.47842 13.4899 8.30649 13.4502 8.13226 13.4502C7.95803 13.4502 7.7861 13.4899 7.62954 13.5664C7.47298 13.6428 7.33592 13.754 7.22878 13.8914L6.15214 15.2677L4.51026 15.8643C4.3462 15.9237 4.19789 16.0199 4.07668 16.1454C3.95546 16.2709 3.86454 16.4225 3.81087 16.5885C3.7572 16.7546 3.74219 16.9307 3.767 17.1034C3.7918 17.2761 3.85576 17.4409 3.95399 17.5851L4.93464 19.0305L4.99385 20.7756C4.9992 20.9499 5.04438 21.1206 5.12593 21.2747C5.20748 21.4289 5.32323 21.5623 5.46432 21.6647C5.60541 21.7672 5.76808 21.836 5.93987 21.8658C6.11166 21.8957 6.28801 21.8858 6.45539 21.837L8.13136 21.3534L9.81003 21.8361C9.97733 21.8842 10.1534 21.8935 10.3249 21.8634C10.4963 21.8332 10.6587 21.7643 10.7995 21.662C10.9403 21.5597 11.056 21.4265 11.1376 21.2728C11.2193 21.119 11.2648 20.9487 11.2707 20.7747L11.3308 19.0287L12.3087 17.5851C12.4068 17.441 12.4707 17.2764 12.4954 17.1038C12.5202 16.9312 12.5052 16.7553 12.4517 16.5894C12.3981 16.4234 12.3073 16.272 12.1863 16.1465C12.0653 16.021 11.9172 15.9248 11.7534 15.8652ZM10.2541 18.5066C10.1913 18.5989 10.1562 18.7072 10.1528 18.8188L10.0891 20.6805L8.29465 20.1655C8.18732 20.135 8.07361 20.135 7.96628 20.1655L6.17188 20.6805L6.10818 18.8188C6.10525 18.7078 6.07171 18.5997 6.01128 18.5066L4.96783 16.9634L6.72007 16.3291C6.82628 16.2916 6.91964 16.2247 6.98923 16.1362L8.13495 14.6674L9.28068 16.1362C9.35026 16.2247 9.44362 16.2916 9.54984 16.3291L11.3003 16.9652L10.2541 18.5066Z" fill="#4A4A4A"/>
<path d="M5.2237 12.3024H11.0358C11.3498 12.3022 11.6509 12.1774 11.8729 11.9553C12.095 11.7333 12.2198 11.4322 12.2201 11.1181V5.30247C12.2198 4.98845 12.095 4.68735 11.8729 4.4653C11.6509 4.24325 11.3498 4.1184 11.0358 4.11816H5.2237C5.06806 4.11805 4.91391 4.14859 4.77007 4.20804C4.62623 4.26749 4.49551 4.35469 4.38537 4.46467C4.27523 4.57464 4.18783 4.70523 4.12816 4.84898C4.06849 4.99273 4.03772 5.14683 4.0376 5.30247V11.1181C4.03772 11.2738 4.06849 11.4279 4.12816 11.5716C4.18783 11.7154 4.27523 11.846 4.38537 11.9559C4.49551 12.0659 4.62623 12.1531 4.77007 12.2126C4.91391 12.272 5.06806 12.3026 5.2237 12.3024ZM5.2237 11.1181V5.30606H11.0322V11.1181H5.2237Z" fill="#4A4A4A"/>
<path d="M19.1452 14.2214C19.0468 14.064 18.91 13.9342 18.7476 13.8442C18.5852 13.7542 18.4027 13.707 18.217 13.707C18.0314 13.707 17.8488 13.7542 17.6865 13.8442C17.5241 13.9342 17.3873 14.064 17.2889 14.2214L13.7001 19.9474C13.5969 20.1128 13.5398 20.3028 13.5346 20.4977C13.5294 20.6926 13.5763 20.8854 13.6705 21.0561C13.7647 21.2269 13.9027 21.3694 14.0704 21.4689C14.238 21.5685 14.4292 21.6215 14.6242 21.6224H21.8018C21.9976 21.6226 22.1898 21.5702 22.3585 21.4709C22.5272 21.3715 22.6662 21.2287 22.761 21.0574C22.8558 20.8862 22.9029 20.6926 22.8976 20.4969C22.8922 20.3012 22.8345 20.1105 22.7304 19.9447L19.1452 14.2214ZM21.6394 20.4372H14.7947L18.2175 14.9777L21.6394 20.4372Z" fill="#4A4A4A"/>
<path d="M18.2133 12.3024C19.0227 12.3026 19.814 12.0628 20.487 11.6132C21.1601 11.1637 21.6847 10.5246 21.9946 9.77692C22.3044 9.02919 22.3856 8.20637 22.2278 7.41252C22.07 6.61866 21.6804 5.88943 21.1081 5.31704C20.5358 4.74466 19.8067 4.35483 19.0129 4.19686C18.219 4.03889 17.3962 4.11988 16.6484 4.42958C15.9006 4.73927 15.2615 5.26377 14.8118 5.93674C14.3621 6.60971 14.1221 7.40092 14.1221 8.2103C14.1235 9.29501 14.555 10.3349 15.3219 11.102C16.0888 11.8691 17.1286 12.3008 18.2133 12.3024ZM15.3136 8.2103C15.3136 7.63571 15.484 7.07402 15.8033 6.59633C16.1226 6.11863 16.5765 5.74639 17.1074 5.52671C17.6384 5.30702 18.2225 5.24977 18.786 5.3622C19.3495 5.47462 19.867 5.75167 20.273 6.15828C20.679 6.5649 20.9552 7.0828 21.0668 7.64647C21.1783 8.21013 21.1202 8.79422 20.8997 9.32482C20.6792 9.85542 20.3062 10.3087 19.828 10.6273C19.3498 10.9459 18.7879 11.1154 18.2133 11.1145C17.4441 11.1126 16.7069 10.8059 16.1634 10.2615C15.6199 9.71717 15.3143 8.97956 15.3136 8.2103Z" fill="#4A4A4A"/>
</svg>
