<svg width="27" height="27" viewBox="0 0 27 27" fill="none" xmlns="http://www.w3.org/2000/svg">
<path d="M13.5 23.625C19.0919 23.625 23.625 19.0919 23.625 13.5C23.625 7.90812 19.0919 3.375 13.5 3.375C7.90812 3.375 3.375 7.90812 3.375 13.5C3.375 19.0919 7.90812 23.625 13.5 23.625Z" stroke="#4A4A4A" stroke-width="1.5" stroke-linecap="round" stroke-linejoin="round"/>
<path d="M9.70312 14.5547C10.2856 14.5547 10.7578 14.0825 10.7578 13.5C10.7578 12.9175 10.2856 12.4453 9.70312 12.4453C9.12064 12.4453 8.64844 12.9175 8.64844 13.5C8.64844 14.0825 9.12064 14.5547 9.70312 14.5547Z" fill="#4A4A4A"/>
<path d="M17.2969 14.5547C17.8794 14.5547 18.3516 14.0825 18.3516 13.5C18.3516 12.9175 17.8794 12.4453 17.2969 12.4453C16.7144 12.4453 16.2422 12.9175 16.2422 13.5C16.2422 14.0825 16.7144 14.5547 17.2969 14.5547Z" fill="#4A4A4A"/>
<path d="M16.2949 17.7188C15.4666 18.2689 14.4944 18.5623 13.5 18.5623C12.5056 18.5623 11.5334 18.2689 10.7051 17.7188" stroke="#4A4A4A" stroke-width="1.5" stroke-linecap="round" stroke-linejoin="round"/>
<path d="M13.5 3.375C11.8125 5.48438 11.8125 7.59375 11.8125 7.59375C11.8125 8.0413 11.9903 8.47052 12.3068 8.78699C12.6232 9.10346 13.0524 9.28125 13.5 9.28125C13.9476 9.28125 14.3768 9.10346 14.6932 8.78699C15.0097 8.47052 15.1875 8.0413 15.1875 7.59375" stroke="#4A4A4A" stroke-width="1.5" stroke-linecap="round" stroke-linejoin="round"/>
</svg>
