<svg width="25" height="25" viewBox="0 0 25 25" fill="none" xmlns="http://www.w3.org/2000/svg">
<path d="M17.9365 11.682L16.0487 13.5581L16.0486 13.5581C15.8543 13.7515 15.8534 14.0664 16.0466 14.2611L16.0467 14.2612C16.24 14.4554 16.5549 14.4565 16.7493 14.2631L18.3312 12.6909V18.7532H1.95312C1.76167 18.7532 1.60625 18.5978 1.60625 18.4063V10.8876H16.0859C16.1199 10.8876 16.1532 10.8841 16.1854 10.8777C16.7645 11.1891 17.4387 11.4799 17.9365 11.682ZM19.325 12.6938L20.8963 14.2651L20.8963 14.2652C21.0906 14.4589 21.405 14.4589 21.5992 14.2652L21.5993 14.2651C21.7931 14.0713 21.7931 13.7563 21.5993 13.5625L21.5463 13.6155L21.5993 13.5625L19.7161 11.6797C20.2082 11.4798 20.8704 11.1941 21.4428 10.8876H23.3937V18.4063C23.3937 18.5978 23.2383 18.7532 23.0469 18.7532H19.325V12.6938ZM17.4711 9.53965C17.6529 9.89682 17.8241 10.2861 17.9668 10.633C17.6201 10.4901 17.2308 10.3189 16.8736 10.1371C16.4566 9.92486 16.0911 9.70193 15.8859 9.49649L15.8858 9.49642C15.6249 9.23591 15.6249 8.81262 15.8858 8.55164C16.1464 8.2911 16.5697 8.2911 16.8302 8.55164C17.0357 8.75711 17.2588 9.12258 17.4711 9.53965ZM18.3312 9.08036C18.0756 8.57809 17.7961 8.11221 17.5333 7.84908L17.5333 7.84904C16.8847 7.20044 15.8314 7.20044 15.1828 7.84904L15.1828 7.84906C14.6287 8.40361 14.5483 9.25361 14.9419 9.89384H1.60625V6.59384C1.60625 6.40238 1.76167 6.24696 1.95312 6.24696H18.3312V9.08036ZM4.38665 5.25321H1.95312C1.21266 5.25321 0.6125 5.85337 0.6125 6.59384V18.4063C0.6125 19.1468 1.21266 19.747 1.95312 19.747H10.0242L14.3707 24.0935C14.6223 24.3451 14.9633 24.4863 15.3185 24.4863C15.6742 24.4863 16.0152 24.3451 16.2668 24.0935L20.6133 19.747H23.0469C23.7873 19.747 24.3875 19.1468 24.3875 18.4063V18.3921V18.3777V18.3633V18.3487V18.334V18.3193V18.3044V18.2894V18.2743V18.2592V18.2439V18.2285V18.2131V18.1975V18.1818V18.1661V18.1502V18.1342V18.1182V18.102V18.0858V18.0694V18.053V18.0365V18.0198V18.0031V17.9863V17.9694V17.9524V17.9353V17.9181V17.9008V17.8835V17.866V17.8485V17.8308V17.8131V17.7953V17.7774V17.7594V17.7413V17.7231V17.7049V17.6866V17.6681V17.6496V17.631V17.6123V17.5936V17.5747V17.5558V17.5368V17.5177V17.4985V17.4792V17.4599V17.4404V17.4209V17.4014V17.3817V17.3619V17.3421V17.3222V17.3022V17.2822V17.262V17.2418V17.2215V17.2011V17.1807V17.1602V17.1396V17.1189V17.0982V17.0773V17.0564V17.0355V17.0144V16.9933V16.9722V16.9509V16.9296V16.9082V16.8867V16.8652V16.8436V16.8219V16.8002V16.7783V16.7565V16.7345V16.7125V16.6904V16.6683V16.6461V16.6238V16.6015V16.579V16.5566V16.534V16.5114V16.4888V16.4661V16.4433V16.4204V16.3975V16.3746V16.3515V16.3284V16.3053V16.2821V16.2588V16.2355V16.2121V16.1887V16.1652V16.1416V16.118V16.0943V16.0706V16.0468V16.023V15.9991V15.9752V15.9512V15.9271V15.903V15.8789V15.8547V15.8304V15.8061V15.7817V15.7573V15.7329V15.7084V15.6838V15.6592V15.6345V15.6098V15.5851V15.5603V15.5354V15.5105V15.4856V15.4606V15.4356V15.4105V15.3854V15.3603V15.3351V15.3098V15.2845V15.2592V15.2338V15.2084V15.1829V15.1574V15.1319V15.1063V15.0807V15.0551V15.0294V15.0036V14.9779V14.9521V14.9262V14.9003V14.8744V14.8485V14.8225V14.7965V14.7704V14.7443V14.7182V14.692V14.6659V14.6396V14.6134V14.5871V14.5608V14.5344V14.5081V14.4816V14.4552V14.4287V14.4022V14.3757V14.3492V14.3226V14.296V14.2693V14.2427V14.216V14.1893V14.1625V14.1358V14.109V14.0822V14.0554V14.0285V14.0016V13.9747V13.9478V13.9208V13.8939V13.8669V13.8399V13.8129V13.7858V13.7587V13.7317V13.7046V13.6774V13.6503V13.6231V13.596V13.5688V13.5416V13.5144V13.4871V13.4599V13.4326V13.4053V13.378V13.3507V13.3234V13.2961V13.2687V13.2414V13.214V13.1867V13.1593V13.1319V13.1045V13.0771V13.0497V13.0222V12.9948V12.9673V12.9399V12.9124V12.885V12.8575V12.83V12.8026V12.7751V12.7476V12.7201V12.6926V12.6651V12.6376V12.6101V12.5826V12.5551V12.5276V12.5001V12.4726V12.4451V12.4176V12.3901V12.3626V12.3351V12.3076V12.2801V12.2526V12.2251V12.1976V12.1701V12.1427V12.1152V12.0877V12.0603V12.0328V12.0054V11.978V11.9505V11.9231V11.8957V11.8683V11.8409V11.8135V11.7861V11.7588V11.7314V11.7041V11.6768V11.6494V11.6221V11.5949V11.5676V11.5403V11.5131V11.4858V11.4586V11.4314V11.4042V11.377V11.3499V11.3227V11.2956V11.2685V11.2414V11.2144V11.1873V11.1603V11.1333V11.1063V11.0793V11.0524V11.0255V10.9986V10.9717V10.9448V10.918V10.8912V10.8644V10.8376V10.8109V10.7842V10.7575V10.7308V10.7042V10.6776V10.651V10.6245V10.5979V10.5714V10.545V10.5185V10.4921V10.4657V10.4394V10.4131V10.3868V10.3605V10.3343V10.3081V10.282V10.2558V10.2298V10.2037V10.1777V10.1517V10.1257V10.0998V10.0739V10.0481V10.0223V9.99653V9.9708V9.94511V9.91946V9.89384V9.86827V9.84273V9.81723V9.79178V9.76636V9.74099V9.71566V9.69037V9.66513V9.63992V9.61476V9.58965V9.56458V9.53955V9.51457V9.48963V9.46474V9.4399V9.4151V9.39035V9.36565V9.34099V9.31638V9.29183V9.26732V9.24286V9.21845V9.19409V9.16978V9.14552V9.12132V9.09716V9.07306V9.04901V9.02502V9.00108V8.97719V8.95336V8.92958V8.90585V8.88219V8.85857V8.83502V8.81152V8.78808V8.7647V8.74137V8.7181V8.69489V8.67175V8.64866V8.62563V8.60266V8.57975V8.5569V8.53412V8.5114V8.48874V8.46614V8.4436V8.42113V8.39873V8.37639V8.35411V8.3319V8.30975V8.28767V8.26566V8.24371V8.22184V8.20003V8.17828V8.15661V8.135V8.11347V8.092V8.07061V8.04928V8.02803V8.00685V7.98574V7.9647V7.94373V7.92284V7.90202V7.88128V7.8606V7.84001V7.81949V7.79904V7.77867V7.75838V7.73816V7.71802V7.69796V7.67798V7.65807V7.63824V7.6185V7.59883V7.57924V7.55973V7.54031V7.52096V7.50169V7.48251V7.46341V7.4444V7.42546V7.40661V7.38785V7.36916V7.35057V7.33205V7.31363V7.29529V7.27703V7.25887V7.24079V7.2228V7.20489V7.18708V7.16935V7.15172V7.13417V7.11671V7.09934V7.08207V7.06488V7.04779V7.03079V7.01388V6.99707V6.98035V6.96372V6.94719V6.93075V6.9144V6.89815V6.882V6.86594V6.84998V6.83412V6.81836V6.80269V6.78712V6.77165V6.75628V6.741V6.72583V6.71076V6.69579V6.68092V6.66615V6.65148V6.63691V6.62245V6.60809V6.59384C24.3875 5.85337 23.7873 5.25321 23.0469 5.25321H14.9758L10.6293 0.906662C10.3777 0.655091 10.0367 0.513867 9.68145 0.513867C9.32575 0.513867 8.98478 0.655081 8.7332 0.906662L4.38665 5.25321ZM15.0732 23.3908L11.4298 19.747H19.2077L15.5643 23.3908H15.0732ZM15.3185 23.4926C15.2269 23.4926 15.1387 23.4559 15.0733 23.3909H15.5642C15.4988 23.4559 15.4107 23.4926 15.3185 23.4926ZM20.7731 10.1371C20.416 10.3189 20.0267 10.4901 19.6798 10.633C19.8227 10.2861 19.9938 9.89681 20.1756 9.53964C20.3879 9.12256 20.6108 8.7571 20.8163 8.55164C21.0768 8.29114 21.5001 8.29106 21.7611 8.5516C22.0217 8.81259 22.0216 9.23594 21.7611 9.49646C21.5557 9.70193 21.1902 9.92486 20.7731 10.1371ZM22.7051 9.89384C23.0987 9.25361 23.0183 8.40359 22.4637 7.84904C21.8151 7.20044 20.7623 7.20044 20.1137 7.84904C19.8538 8.10893 19.5781 8.56681 19.325 9.06183V6.24696H23.0469C23.2383 6.24696 23.3937 6.40238 23.3937 6.59384V9.89384H22.7051ZM13.5702 5.25321H5.79225L9.43566 1.6094C9.50105 1.54435 9.58925 1.50762 9.68145 1.50762C9.77319 1.50762 9.8614 1.54432 9.92683 1.6094L13.5702 5.25321Z" fill="#4A4A4A" stroke="#4A4A4A" stroke-width="0.15"/>
</svg>
