<svg width="70" height="70" viewBox="0 0 70 70" fill="none" xmlns="http://www.w3.org/2000/svg">
<path d="M55.0834 5.16866H48.179V1.39081C48.179 1.17587 48.0032 1 47.7882 1C47.5733 1 47.3974 1.17587 47.3974 1.39081V5.16866H12.7454V1.39081C12.7454 1.17587 12.5696 1 12.3546 1C12.1397 1 11.9638 1.17587 11.9638 1.39081V5.16866H5.05947C2.54525 5.16866 0.5 7.21391 0.5 9.72813V55.5834C0.5 58.0976 2.54525 60.1429 5.05947 60.1429H55.0834C57.5976 60.1429 59.6429 58.0976 59.6429 55.5834V9.72813C59.6429 7.21391 57.5976 5.16866 55.0834 5.16866ZM47.7882 9.07678C48.7223 9.07678 49.4818 9.83626 49.4818 10.7703C49.4818 11.7043 48.7223 12.4638 47.7882 12.4638C46.8542 12.4638 46.0947 11.7043 46.0947 10.7703C46.0947 9.83626 46.8542 9.07678 47.7882 9.07678ZM12.3546 9.07678C13.2887 9.07678 14.0481 9.83626 14.0481 10.7703C14.0481 11.7043 13.2887 12.4638 12.3546 12.4638C11.4206 12.4638 10.6611 11.7043 10.6611 10.7703C10.6611 9.83626 11.4206 9.07678 12.3546 9.07678ZM58.8612 55.5834C58.8612 57.6664 57.1664 59.3612 55.0834 59.3612H5.05947C2.97644 59.3612 1.28162 57.6664 1.28162 55.5834V22.6249H58.8612V55.5834ZM58.8612 21.8433H1.28162V9.72813C1.28162 7.6451 2.97644 5.95028 5.05947 5.95028H11.9638V8.29255L11.53 8.44627C10.9073 8.66643 10.4071 9.11716 10.1218 9.7138C9.8365 10.3104 9.80132 10.9826 10.0215 11.6053C10.4761 12.8924 11.8935 13.5685 13.1805 13.1139C14.4676 12.6592 15.1437 11.2419 14.6891 9.9548C14.439 9.24613 13.8892 8.69639 13.1805 8.44627L12.7467 8.29255V5.95028H47.3974V8.29255L46.9636 8.44627C45.6765 8.90091 45.0004 10.3183 45.4551 11.6053C45.9097 12.8924 47.3271 13.5685 48.6141 13.1139C49.9012 12.6592 50.5773 11.2419 50.1227 9.9548C49.8726 9.24613 49.3228 8.69639 48.6141 8.44627L48.1803 8.29255V5.95028H55.0847C57.1677 5.95028 58.8625 7.6451 58.8625 9.72813V21.8433H58.8612Z" fill="#FE8B7B" stroke="#FE8B7B" stroke-width="0.7"/>
<path d="M38.4082 14.5476H21.7336C21.5186 14.5476 21.3428 14.7235 21.3428 14.9384C21.3428 15.1534 21.5186 15.3292 21.7336 15.3292H38.4082C38.6232 15.3292 38.799 15.1534 38.799 14.9384C38.799 14.7235 38.6232 14.5476 38.4082 14.5476Z" fill="#FE8B7B" stroke="#FE8B7B" stroke-width="0.7"/>
<path d="M7.1435 38.2575H17.5651C17.7801 38.2575 17.956 38.0816 17.956 37.8667V27.445C17.956 27.2301 17.7801 27.0542 17.5651 27.0542H7.1435C6.92855 27.0542 6.75269 27.2301 6.75269 27.445V37.8667C6.75269 38.0816 6.92855 38.2575 7.1435 38.2575ZM7.53431 27.8358H17.1743V37.4758H7.53431V27.8358Z" fill="#FE8B7B" stroke="#FE8B7B" stroke-width="0.7"/>
<path d="M24.8603 38.2575H35.2819C35.4969 38.2575 35.6728 38.0816 35.6728 37.8667V27.445C35.6728 27.2301 35.4969 27.0542 35.2819 27.0542H24.8603C24.6453 27.0542 24.4695 27.2301 24.4695 27.445V37.8667C24.4695 38.0816 24.6453 38.2575 24.8603 38.2575ZM25.2511 27.8358H34.8911V37.4758H25.2511V27.8358Z" fill="#FE8B7B" stroke="#FE8B7B" stroke-width="0.7"/>
<path d="M42.5778 38.2575H52.9995C53.2144 38.2575 53.3903 38.0816 53.3903 37.8667V27.445C53.3903 27.2301 53.2144 27.0542 52.9995 27.0542H42.5778C42.3629 27.0542 42.187 27.2301 42.187 27.445V37.8667C42.187 38.0816 42.3629 38.2575 42.5778 38.2575ZM42.9686 27.8358H52.6087V37.4758H42.9686V27.8358Z" fill="#FE8B7B" stroke="#FE8B7B" stroke-width="0.7"/>
<path d="M7.1435 54.9315H17.5651C17.7801 54.9315 17.956 54.7557 17.956 54.5407V44.1191C17.956 43.9041 17.7801 43.7283 17.5651 43.7283H7.1435C6.92855 43.7283 6.75269 43.9041 6.75269 44.1191V54.5407C6.75269 54.7557 6.92855 54.9315 7.1435 54.9315ZM7.53431 44.5099H17.1743V54.1499H7.53431V44.5099Z" fill="#FE8B7B" stroke="#FE8B7B" stroke-width="0.7"/>
<path d="M24.8603 54.9315H35.2819C35.4969 54.9315 35.6728 54.7557 35.6728 54.5407V44.1191C35.6728 43.9041 35.4969 43.7283 35.2819 43.7283H24.8603C24.6453 43.7283 24.4695 43.9041 24.4695 44.1191V54.5407C24.4695 54.7557 24.6453 54.9315 24.8603 54.9315ZM25.2511 44.5099H34.8911V54.1499H25.2511V44.5099Z" fill="#FE8B7B" stroke="#FE8B7B" stroke-width="0.7"/>
<path d="M42.5778 54.9315H52.9995C53.2144 54.9315 53.3903 54.7557 53.3903 54.5407V44.1191C53.3903 43.9041 53.2144 43.7283 52.9995 43.7283H42.5778C42.3629 43.7283 42.187 43.9041 42.187 44.1191V54.5407C42.187 54.7557 42.3629 54.9315 42.5778 54.9315ZM42.9686 44.5099H52.6087V54.1499H42.9686V44.5099Z" fill="#FE8B7B" stroke="#FE8B7B" stroke-width="0.7"/>
<circle cx="58.3383" cy="58.8383" r="10.6618" fill="white" stroke="#FE8B7B"/>
<path d="M57.4489 60.7346L53.2644 53.7644H56.0122L59.0294 59.5596H57.7004L60.7176 53.7644H63.4115L59.191 60.7346H57.4489ZM57.1257 64.9262V59.7025H59.5682V64.9262H57.1257ZM56.533 57.2892L57.0538 58.7658H53.6236V57.2892H56.533ZM53.6236 61.4173V59.9566H63.0523V61.4173H53.6236ZM59.8375 58.7658L60.52 57.2892H63.0523V58.7658H59.8375Z" fill="#FE8B7B"/>
</svg>
