<svg width="96" height="75" viewBox="0 0 96 75" fill="none" xmlns="http://www.w3.org/2000/svg">
<path d="M33.129 42.6675H6.5483C5.88102 42.6675 5.34009 43.193 5.34009 43.8412V48.5359C5.34009 49.1842 5.88102 49.7096 6.5483 49.7096H33.129C33.7962 49.7096 34.3372 49.1842 34.3372 48.5359V43.8412C34.3372 43.193 33.7962 42.6675 33.129 42.6675Z" stroke="#FE8B7B" stroke-width="1.5" stroke-linecap="round" stroke-linejoin="round"/>
<path d="M31.9208 49.7097V60.2729C31.9208 60.5842 31.7935 60.8828 31.567 61.1029C31.3404 61.323 31.0331 61.4466 30.7126 61.4466H8.9648C8.64437 61.4466 8.33705 61.323 8.11047 61.1029C7.88389 60.8828 7.75659 60.5842 7.75659 60.2729V49.7097" stroke="#FE8B7B" stroke-width="1.5" stroke-linecap="round" stroke-linejoin="round"/>
<path d="M19.8386 42.6675V61.4466" stroke="#FE8B7B" stroke-width="1.5" stroke-linecap="round" stroke-linejoin="round"/>
<path d="M26.6801 41.0098C24.9584 42.6676 19.8386 42.6676 19.8386 42.6676C19.8386 42.6676 19.8386 37.6941 21.5452 36.0216C22.2262 35.3601 23.1497 34.9885 24.1127 34.9885C25.0757 34.9885 25.9992 35.3601 26.6801 36.0216C27.3611 36.6831 27.7436 37.5802 27.7436 38.5157C27.7436 39.4512 27.3611 40.3483 26.6801 41.0098V41.0098Z" stroke="#FE8B7B" stroke-width="1.5" stroke-linecap="round" stroke-linejoin="round"/>
<path d="M12.9973 41.0098C14.719 42.6676 19.8388 42.6676 19.8388 42.6676C19.8388 42.6676 19.8388 37.6941 18.1322 36.0216C17.4513 35.3601 16.5277 34.9885 15.5648 34.9885C14.6018 34.9885 13.6782 35.3601 12.9973 36.0216C12.3164 36.6831 11.9338 37.5802 11.9338 38.5157C11.9338 39.4512 12.3164 40.3483 12.9973 41.0098V41.0098Z" stroke="#FE8B7B" stroke-width="1.5" stroke-linecap="round" stroke-linejoin="round"/>
<path d="M89.4659 42.6675H62.8852C62.2179 42.6675 61.677 43.193 61.677 43.8412V48.5359C61.677 49.1842 62.2179 49.7096 62.8852 49.7096H89.4659C90.1332 49.7096 90.6741 49.1842 90.6741 48.5359V43.8412C90.6741 43.193 90.1332 42.6675 89.4659 42.6675Z" stroke="#FE8B7B" stroke-width="1.5" stroke-linecap="round" stroke-linejoin="round"/>
<path d="M88.2577 49.7097V60.2729C88.2577 60.5842 88.1305 60.8828 87.9039 61.1029C87.6773 61.323 87.37 61.4466 87.0495 61.4466H65.3017C64.9813 61.4466 64.674 61.323 64.4474 61.1029C64.2208 60.8828 64.0935 60.5842 64.0935 60.2729V49.7097" stroke="#FE8B7B" stroke-width="1.5" stroke-linecap="round" stroke-linejoin="round"/>
<path d="M76.1755 42.6675V61.4466" stroke="#FE8B7B" stroke-width="1.5" stroke-linecap="round" stroke-linejoin="round"/>
<path d="M83.017 41.0098C81.2953 42.6676 76.1755 42.6676 76.1755 42.6676C76.1755 42.6676 76.1755 37.6941 77.8821 36.0216C78.5631 35.3601 79.4866 34.9885 80.4496 34.9885C81.4126 34.9885 82.3361 35.3601 83.017 36.0216C83.698 36.6831 84.0805 37.5802 84.0805 38.5157C84.0805 39.4512 83.698 40.3483 83.017 41.0098V41.0098Z" stroke="#FE8B7B" stroke-width="1.5" stroke-linecap="round" stroke-linejoin="round"/>
<path d="M69.3342 41.0098C71.0559 42.6676 76.1757 42.6676 76.1757 42.6676C76.1757 42.6676 76.1757 37.6941 74.4691 36.0216C73.7882 35.3601 72.8647 34.9885 71.9017 34.9885C70.9387 34.9885 70.0152 35.3601 69.3342 36.0216C68.6533 36.6831 68.2708 37.5802 68.2708 38.5157C68.2708 39.4512 68.6533 40.3483 69.3342 41.0098V41.0098Z" stroke="#FE8B7B" stroke-width="1.5" stroke-linecap="round" stroke-linejoin="round"/>
<path d="M27.5023 36.03H68.5125C69.1687 36.03 69.6266 36.5223 69.6266 37.0406V44.0827C69.6266 44.601 69.1687 45.0933 68.5125 45.0933H27.5023C26.846 45.0933 26.3882 44.601 26.3882 44.0827V37.0406C26.3882 36.5223 26.846 36.03 27.5023 36.03Z" fill="white" stroke="#FE8B7B" stroke-width="1.5" stroke-linecap="round" stroke-linejoin="round"/>
<path d="M66.6484 45.8433V61.6881C66.6484 62.155 66.452 62.6028 66.1025 62.933C65.7529 63.2632 65.2787 63.4486 64.7843 63.4486H31.2306C30.7362 63.4486 30.262 63.2632 29.9124 62.933C29.5629 62.6028 29.3665 62.155 29.3665 61.6881V45.8433" fill="white"/>
<path d="M66.6484 45.8433V61.6881C66.6484 62.155 66.452 62.6028 66.1025 62.933C65.7529 63.2632 65.2787 63.4486 64.7843 63.4486H31.2306C30.7362 63.4486 30.262 63.2632 29.9124 62.933C29.5629 62.6028 29.3665 62.155 29.3665 61.6881V45.8433" stroke="#FE8B7B" stroke-width="1.5" stroke-linecap="round" stroke-linejoin="round"/>
<path d="M48.0076 35.28V63.4486" stroke="#FE8B7B" stroke-width="1.5" stroke-linecap="round" stroke-linejoin="round"/>
<path d="M58.563 32.7931C55.9067 35.2799 48.0076 35.2799 48.0076 35.2799C48.0076 35.2799 48.0076 27.8196 50.6406 25.3109C51.6912 24.3187 53.1161 23.7612 54.6018 23.7612C56.0876 23.7612 57.5125 24.3187 58.563 25.3109C59.6136 26.3031 60.2038 27.6488 60.2038 29.052C60.2038 30.4552 59.6136 31.8009 58.563 32.7931V32.7931Z" stroke="#FE8B7B" stroke-width="1.5" stroke-linecap="round" stroke-linejoin="round"/>
<path d="M37.4521 32.7931C40.1084 35.2799 48.0075 35.2799 48.0075 35.2799C48.0075 35.2799 48.0075 27.8196 45.3745 25.3109C44.3239 24.3187 42.899 23.7612 41.4133 23.7612C39.9275 23.7612 38.5026 24.3187 37.4521 25.3109C36.4015 26.3031 35.8113 27.6488 35.8113 29.052C35.8113 30.4552 36.4015 31.8009 37.4521 32.7931V32.7931Z" stroke="#FE8B7B" stroke-width="1.5" stroke-linecap="round" stroke-linejoin="round"/>
<path d="M57.2588 6.75098L46.7572 17.2526L41.5063 12.0018" stroke="#FE8B7B" stroke-width="1.5" stroke-linecap="round" stroke-linejoin="round"/>
</svg>
