<svg width="66" height="65" viewBox="0 0 66 65" fill="none" xmlns="http://www.w3.org/2000/svg">
<path fill-rule="evenodd" clip-rule="evenodd" d="M2.69428 28.6725H29.5953V1.89166H2.69428V28.6725ZM30.5457 30.5641H1.74423C1.21782 30.5641 0.793945 30.1405 0.793945 29.6183L0.794283 0.945781C0.794283 0.42363 1.21753 0 1.74404 0H30.5457C31.0699 0 31.4955 0.423678 31.4955 0.945829L31.4957 29.6183C31.4957 30.1405 31.0699 30.5641 30.5457 30.5641Z" fill="#FE8B7B"/>
<path fill-rule="evenodd" clip-rule="evenodd" d="M36.9892 28.6725H63.8924V1.89166H36.9892V28.6725ZM64.8424 30.5641H36.0392C35.5145 30.5641 35.0889 30.1405 35.0889 29.6183L35.0892 0.945781C35.0892 0.42363 35.5144 0 36.039 0H64.8424C65.367 0 65.7924 0.423678 65.7924 0.945829V29.6183C65.7924 30.1405 65.3668 30.5641 64.8424 30.5641Z" fill="#FE8B7B"/>
<path fill-rule="evenodd" clip-rule="evenodd" d="M30.5457 65.0001H1.74252C1.21784 65.0001 0.791992 64.5765 0.791992 64.0542L0.79204 35.3818C0.79204 34.8597 1.21755 34.436 1.74214 34.436H13.1006C13.6253 34.436 14.0504 34.8597 14.0504 35.3818C14.0506 35.904 13.6249 36.3276 13.1003 36.3276H2.69247V63.1085H29.5953V36.3276H19.2072C18.6825 36.3276 18.2568 35.9041 18.2568 35.3818C18.2572 34.8597 18.6824 34.436 19.207 34.436H30.5457C31.0699 34.436 31.4955 34.8597 31.4955 35.3818L31.4957 64.0542C31.4957 64.5764 31.0699 65.0001 30.5457 65.0001Z" fill="#FE8B7B"/>
<path fill-rule="evenodd" clip-rule="evenodd" d="M30.5457 65.0001H1.74252C1.21784 65.0001 0.791992 64.5765 0.791992 64.0542L0.79204 35.3818C0.79204 34.8597 1.21755 34.436 1.74214 34.436H13.1006C13.6253 34.436 14.0504 34.8597 14.0504 35.3818C14.0504 35.904 13.6249 36.3276 13.1003 36.3276H2.69247V63.1085H29.5953V36.3276H19.2072C18.6825 36.3276 18.2568 35.9041 18.2568 35.3818C18.2568 34.8597 18.6824 34.436 19.207 34.436H30.5457C31.0699 34.436 31.4955 34.8597 31.4955 35.3818L31.4957 64.0542C31.4957 64.5764 31.0699 65.0001 30.5457 65.0001Z" fill="#FE8B7B"/>
<path fill-rule="evenodd" clip-rule="evenodd" d="M44.1324 57.4943C44.3742 57.7012 44.6787 57.8135 44.9993 57.8135C45.3558 57.8135 45.6901 57.6756 45.9415 57.4253C45.9714 57.3957 45.999 57.3642 46.0267 57.3327C46.0448 57.311 46.0643 57.2893 46.0841 57.2677L60.7027 42.7176C61.2194 42.2033 61.2211 41.3698 60.7064 40.8555C60.1941 40.3412 59.3544 40.3393 58.8378 40.8516L45.6725 53.9572C45.3006 54.3257 44.6985 54.3257 44.3283 53.9572L40.0349 49.6833C40.0349 49.6833 40.0349 49.6833 40.0328 49.6833C39.7836 49.433 39.4529 49.2951 39.1006 49.2951C39.0987 49.2951 39.0986 49.2951 39.0966 49.2951C38.7446 49.2951 38.4136 49.431 38.1642 49.6793C37.9148 49.9276 37.7762 50.2567 37.7743 50.6094C37.7746 50.9602 37.9109 51.2912 38.1603 51.5394L44.0611 57.4134C44.0869 57.4391 44.1105 57.4667 44.1324 57.4943ZM44.9995 59.7052C44.1364 59.7052 43.3247 59.3701 42.715 58.7613C42.6818 58.7297 42.6517 58.6962 42.624 58.6588L36.8166 52.8755C36.2068 52.2666 35.872 51.4606 35.874 50.6055C35.8764 49.7483 36.2125 48.9424 36.8241 48.3374C37.4321 47.7344 38.2395 47.4034 39.0966 47.4034H39.1025C39.9636 47.4054 40.7712 47.7404 41.3788 48.3453L44.9995 51.9513L57.496 39.5116C58.7569 38.2624 60.7994 38.2663 62.0545 39.5195C63.3078 40.7727 63.3035 42.8083 62.0445 44.0555L47.4562 58.578C47.4005 58.6431 47.343 58.7042 47.2856 58.7613C46.6741 59.3701 45.8624 59.7052 44.9995 59.7052Z" fill="#FE8B7B"/>
<path fill-rule="evenodd" clip-rule="evenodd" d="M44.1324 57.4943C44.3742 57.7012 44.6787 57.8135 44.9993 57.8135C45.3558 57.8135 45.6901 57.6756 45.9415 57.4253C45.9713 57.3957 45.999 57.3642 46.0267 57.3327C46.0448 57.311 46.0643 57.2893 46.0841 57.2677L60.7027 42.7176C61.2194 42.2033 61.2211 41.3698 60.7064 40.8555C60.1941 40.3412 59.3544 40.3393 58.8378 40.8516L45.6725 53.9572C45.3006 54.3257 44.6985 54.3257 44.3283 53.9572L40.0349 49.6833H40.0328C39.7836 49.433 39.4529 49.2951 39.1006 49.2951H39.0966C38.7446 49.2951 38.4136 49.431 38.1642 49.6793C37.9148 49.9276 37.7743 50.2567 37.7743 50.6094C37.7743 50.9602 37.9109 51.2912 38.1603 51.5394L44.0611 57.4134C44.0869 57.4391 44.1105 57.4667 44.1324 57.4943ZM44.9995 59.7052C44.1364 59.7052 43.3247 59.3701 42.715 58.7613C42.6818 58.7297 42.6517 58.6962 42.624 58.6588L36.8166 52.8755C36.2068 52.2666 35.874 51.4606 35.874 50.6055C35.874 49.7483 36.2125 48.9424 36.8241 48.3374C37.4321 47.7344 38.2395 47.4034 39.0966 47.4034H39.1025C39.9636 47.4054 40.7712 47.7404 41.3788 48.3453L44.9995 51.9513L57.496 39.5116C58.7569 38.2624 60.7994 38.2663 62.0545 39.5195C63.3078 40.7727 63.3035 42.8083 62.0445 44.0555L47.4562 58.578C47.4005 58.6431 47.343 58.7042 47.2856 58.7613C46.6741 59.3701 45.8624 59.7052 44.9995 59.7052Z" fill="#FE8B7B"/>
<path d="M25.1747 10.1418H7.07702C6.6227 10.1418 6.25439 10.4925 6.25439 10.9251V14.0583C6.25439 14.4909 6.6227 14.8415 7.07702 14.8415H25.1747C25.629 14.8415 25.9973 14.4909 25.9973 14.0583V10.9251C25.9973 10.4925 25.629 10.1418 25.1747 10.1418Z" stroke="#FE8B7B" stroke-width="1.2" stroke-linecap="round" stroke-linejoin="round"/>
<path d="M24.3519 14.8416V21.8911C24.3519 22.0988 24.2652 22.2981 24.1109 22.445C23.9567 22.5919 23.7474 22.6744 23.5292 22.6744H8.72204C8.50386 22.6744 8.29463 22.5919 8.14035 22.445C7.98608 22.2981 7.89941 22.0988 7.89941 21.8911V14.8416" stroke="#FE8B7B" stroke-width="1.2" stroke-linecap="round" stroke-linejoin="round"/>
<path d="M16.126 10.1418V22.6744" stroke="#FE8B7B" stroke-width="1.2" stroke-linecap="round" stroke-linejoin="round"/>
<path d="M20.7841 9.0355C19.6118 10.1419 16.126 10.1419 16.126 10.1419C16.126 10.1419 16.126 6.82272 17.2879 5.70654C17.7515 5.26509 18.3804 5.01709 19.036 5.01709C19.6917 5.01709 20.3205 5.26509 20.7841 5.70654C21.2477 6.14799 21.5082 6.74672 21.5082 7.37102C21.5082 7.99532 21.2477 8.59405 20.7841 9.0355V9.0355Z" stroke="#FE8B7B" stroke-width="1.2" stroke-linecap="round" stroke-linejoin="round"/>
<path d="M11.4677 9.0355C12.64 10.1419 16.1258 10.1419 16.1258 10.1419C16.1258 10.1419 16.1258 6.82272 14.9639 5.70654C14.5003 5.26509 13.8715 5.01709 13.2158 5.01709C12.5601 5.01709 11.9313 5.26509 11.4677 5.70654C11.0041 6.14799 10.7437 6.74672 10.7437 7.37102C10.7437 7.99532 11.0041 8.59405 11.4677 9.0355V9.0355Z" stroke="#FE8B7B" stroke-width="1.2" stroke-linecap="round" stroke-linejoin="round"/>
<path d="M59.6278 10.1418H41.5301C41.0758 10.1418 40.7075 10.4925 40.7075 10.9251V14.0583C40.7075 14.4909 41.0758 14.8415 41.5301 14.8415H59.6278C60.0822 14.8415 60.4505 14.4909 60.4505 14.0583V10.9251C60.4505 10.4925 60.0822 10.1418 59.6278 10.1418Z" stroke="#FE8B7B" stroke-width="1.2" stroke-linecap="round" stroke-linejoin="round"/>
<path d="M58.805 14.8416V21.8911C58.805 22.0988 58.7183 22.2981 58.5641 22.445C58.4098 22.5919 58.2005 22.6744 57.9824 22.6744H43.1752C42.957 22.6744 42.7478 22.5919 42.5935 22.445C42.4392 22.2981 42.3525 22.0988 42.3525 21.8911V14.8416" stroke="#FE8B7B" stroke-width="1.2" stroke-linecap="round" stroke-linejoin="round"/>
<path d="M50.5791 10.1418V22.6744" stroke="#FE8B7B" stroke-width="1.2" stroke-linecap="round" stroke-linejoin="round"/>
<path d="M55.2372 9.0355C54.065 10.1419 50.5791 10.1419 50.5791 10.1419C50.5791 10.1419 50.5791 6.82272 51.7411 5.70654C52.2047 5.26509 52.8335 5.01709 53.4891 5.01709C54.1448 5.01709 54.7736 5.26509 55.2372 5.70654C55.7008 6.14799 55.9613 6.74672 55.9613 7.37102C55.9613 7.99532 55.7008 8.59405 55.2372 9.0355V9.0355Z" stroke="#FE8B7B" stroke-width="1.2" stroke-linecap="round" stroke-linejoin="round"/>
<path d="M45.9209 9.0355C47.0931 10.1419 50.579 10.1419 50.579 10.1419C50.579 10.1419 50.579 6.82272 49.417 5.70654C48.9534 5.26509 48.3246 5.01709 47.6689 5.01709C47.0133 5.01709 46.3845 5.26509 45.9209 5.70654C45.4572 6.14799 45.1968 6.74672 45.1968 7.37102C45.1968 7.99532 45.4572 8.59405 45.9209 9.0355V9.0355Z" stroke="#FE8B7B" stroke-width="1.2" stroke-linecap="round" stroke-linejoin="round"/>
<path d="M25.1747 45.4302H7.07702C6.6227 45.4302 6.25439 45.7809 6.25439 46.2135V49.3466C6.25439 49.7792 6.6227 50.1299 7.07702 50.1299H25.1747C25.629 50.1299 25.9973 49.7792 25.9973 49.3466V46.2135C25.9973 45.7809 25.629 45.4302 25.1747 45.4302Z" stroke="#FE8B7B" stroke-width="1.2" stroke-linecap="round" stroke-linejoin="round"/>
<path d="M24.3519 50.1299V57.1794C24.3519 57.3872 24.2652 57.5864 24.1109 57.7333C23.9567 57.8802 23.7474 57.9627 23.5292 57.9627H8.72204C8.50386 57.9627 8.29463 57.8802 8.14035 57.7333C7.98608 57.5864 7.89941 57.3872 7.89941 57.1794V50.1299" stroke="#FE8B7B" stroke-width="1.2" stroke-linecap="round" stroke-linejoin="round"/>
<path d="M16.126 45.4302V57.9627" stroke="#FE8B7B" stroke-width="1.2" stroke-linecap="round" stroke-linejoin="round"/>
<path d="M20.7841 44.3238C19.6118 45.4302 16.126 45.4302 16.126 45.4302C16.126 45.4302 16.126 42.111 17.2879 40.9949C17.7515 40.5534 18.3804 40.3054 19.036 40.3054C19.6917 40.3054 20.3205 40.5534 20.7841 40.9949C21.2477 41.4363 21.5082 42.035 21.5082 42.6593C21.5082 43.2836 21.2477 43.8824 20.7841 44.3238V44.3238Z" stroke="#FE8B7B" stroke-width="1.2" stroke-linecap="round" stroke-linejoin="round"/>
<path d="M11.4677 44.3238C12.64 45.4302 16.1258 45.4302 16.1258 45.4302C16.1258 45.4302 16.1258 42.111 14.9639 40.9949C14.5003 40.5534 13.8715 40.3054 13.2158 40.3054C12.5601 40.3054 11.9313 40.5534 11.4677 40.9949C11.0041 41.4363 10.7437 42.035 10.7437 42.6593C10.7437 43.2836 11.0041 43.8824 11.4677 44.3238V44.3238Z" stroke="#FE8B7B" stroke-width="1.2" stroke-linecap="round" stroke-linejoin="round"/>
</svg>
