<svg width="71" height="71" viewBox="0 0 71 71" fill="none" xmlns="http://www.w3.org/2000/svg">
<path d="M52.8682 29.0242L50.6805 31.222C50.0008 31.9085 49.0738 32.2941 48.108 32.2928H48.1038C46.6317 32.2928 45.3052 31.4051 44.7436 30.0448C44.182 28.6841 44.4959 27.1192 45.5389 26.0809L47.7376 23.8932C48.1068 23.5253 48.108 22.9287 47.7401 22.5591C47.373 22.1903 46.776 22.1886 46.4064 22.5561L44.2086 24.7438C42.6243 26.3214 42.1467 28.6976 43.0002 30.7642C43.8534 32.8308 45.868 34.1784 48.1038 34.1793H48.1101C49.578 34.1818 50.9855 33.5957 52.018 32.5527L54.2057 30.3545C54.4474 30.1161 54.5428 29.7668 54.4554 29.4394C54.3681 29.1115 54.1112 28.8563 53.7833 28.7706C53.4546 28.6841 53.1057 28.7807 52.869 29.0238L52.8682 29.0242Z" fill="#FE8B7B"/>
<path d="M55.1166 16.1235H55.1098C53.6424 16.121 52.2348 16.7066 51.2024 17.7501L49.0155 19.9479C48.654 20.3187 48.6582 20.9107 49.0248 21.2752C49.3911 21.6402 49.9839 21.6419 50.3522 21.2786L52.5403 19.0804C53.22 18.3943 54.1461 18.0083 55.1123 18.01H55.1166C56.5882 18.01 57.9147 18.8973 58.4763 20.258C59.0383 21.6187 58.7244 23.1836 57.681 24.2215L55.4832 26.4092C55.1136 26.7771 55.1123 27.3741 55.4798 27.7437C55.8473 28.1125 56.4448 28.1142 56.8135 27.7467L59.0122 25.5586C60.5965 23.9814 61.0733 21.6043 60.2201 19.5382C59.3674 17.4716 57.3519 16.1235 55.1166 16.1235Z" fill="#FE8B7B"/>
<path d="M47.6218 29.1391C47.9897 29.5075 48.5867 29.5075 48.9555 29.1391L55.5982 22.4964C55.9666 22.1284 55.9666 21.531 55.5982 21.1622C55.2299 20.7939 54.6325 20.7939 54.2641 21.1622L47.6218 27.8054C47.253 28.1738 47.253 28.7708 47.6218 29.1391Z" fill="#FE8B7B"/>
<path d="M51.6104 8.03882C42.5479 8.03629 35.0563 15.1027 34.5301 24.15H8.49239C5.31024 24.1546 2.62385 26.5174 2.21374 29.6734C2.16311 29.8172 2.14919 29.9708 2.17113 30.1214C2.16438 30.2413 2.16016 30.3619 2.16016 30.483V55.7377C2.15847 57.2148 2.67617 58.6452 3.6217 59.7801C3.69512 59.9206 3.80271 60.0405 3.93519 60.1286C5.12628 61.3695 6.77263 62.0712 8.49239 62.0707H46.2208C47.9393 62.0712 49.5835 61.3712 50.7738 60.1329C50.8244 60.0991 50.8712 60.0611 50.9151 60.0189C50.9851 59.9497 51.0446 59.8696 51.0898 59.7822C52.037 58.6473 52.5551 57.2157 52.5534 55.7377V42.2378C61.5522 41.7463 68.7228 34.2706 68.7228 25.1512C68.7122 15.7043 61.0569 8.04937 51.6104 8.03882ZM8.49239 26.0364H34.5217C34.7246 30.0978 36.3739 33.9517 39.1709 36.9026C39.5886 37.3448 40.0286 37.765 40.4902 38.1608L29.8911 47.1507C28.4354 48.3916 26.2938 48.3928 24.8381 47.1528L4.13139 29.6194C4.54614 27.5384 6.37096 26.0398 8.49239 26.0364ZM8.49239 60.1843C7.52998 60.1847 6.59373 59.8721 5.82457 59.2928L19.3308 45.1149C19.5717 44.8748 19.6649 44.5238 19.5751 44.1955C19.4844 43.8681 19.2249 43.6141 18.8954 43.5314C18.5654 43.4487 18.2165 43.5495 17.9823 43.7955L4.58664 57.8604C4.23138 57.2093 4.04531 56.4794 4.04616 55.7377V32.0188L23.6192 48.5924C25.7782 50.4307 28.9531 50.4295 31.1109 48.589L42.0231 39.3346C44.5837 41.0763 47.5743 42.0809 50.667 42.2382V55.7377C50.6683 56.482 50.4809 57.2148 50.1227 57.8675L36.071 43.6183C35.7047 43.2534 35.1132 43.2517 34.7449 43.6141C34.3761 43.9761 34.3676 44.5676 34.7259 44.9402L48.8827 59.297C48.1152 59.8738 47.1807 60.1852 46.2208 60.1843H8.49239ZM51.6104 40.3771C48.3688 40.3902 45.209 39.3578 42.6011 37.4321C42.5614 37.3971 42.5192 37.3654 42.4754 37.3368C41.7834 36.8153 41.1366 36.2364 40.5421 35.6069C35.5816 30.356 34.9934 22.3433 39.1333 16.4237C43.2732 10.5054 51.0024 8.30927 57.6359 11.1678C64.2694 14.0268 67.9811 21.153 66.522 28.227C65.0626 35.301 58.8338 40.3767 51.6104 40.3771Z" fill="#FE8B7B"/>
</svg>
