<svg width="48" height="48" viewBox="0 0 48 48" fill="none" xmlns="http://www.w3.org/2000/svg">
<circle cx="24" cy="24" r="24" fill="#CFCAC4"/>
<path d="M18.9648 34.04L23.7648 24.94H26.7648L21.8448 34.04H18.9648ZM18.9648 35.64V34.04L19.9648 33.26H30.0448V35.64H18.9648ZM25.6048 39V30.04H28.2848V39H25.6048Z" fill="white"/>
<path d="M13.7715 19.1C13.2049 19.1 12.7182 19.0033 12.3115 18.81C11.9115 18.6167 11.5482 18.3267 11.2215 17.94L12.1215 17.04C12.3282 17.3133 12.5682 17.5267 12.8415 17.68C13.1149 17.8267 13.4482 17.9 13.8415 17.9C14.1949 17.9 14.4749 17.83 14.6815 17.69C14.8949 17.55 15.0015 17.3567 15.0015 17.11C15.0015 16.8967 14.9415 16.7233 14.8215 16.59C14.7015 16.4567 14.5415 16.3433 14.3415 16.25C14.1482 16.1567 13.9315 16.0733 13.6915 16C13.4582 15.92 13.2215 15.83 12.9815 15.73C12.7482 15.63 12.5315 15.5067 12.3315 15.36C12.1382 15.2067 11.9815 15.0133 11.8615 14.78C11.7415 14.54 11.6815 14.24 11.6815 13.88C11.6815 13.4533 11.7849 13.09 11.9915 12.79C12.1982 12.49 12.4815 12.26 12.8415 12.1C13.2015 11.94 13.6082 11.86 14.0615 11.86C14.5415 11.86 14.9749 11.95 15.3615 12.13C15.7482 12.31 16.0649 12.5433 16.3115 12.83L15.4115 13.73C15.2049 13.5033 14.9915 13.3367 14.7715 13.23C14.5582 13.1233 14.3149 13.07 14.0415 13.07C13.7282 13.07 13.4815 13.13 13.3015 13.25C13.1215 13.37 13.0315 13.5433 13.0315 13.77C13.0315 13.9633 13.0915 14.12 13.2115 14.24C13.3315 14.36 13.4882 14.4633 13.6815 14.55C13.8815 14.6367 14.0982 14.72 14.3315 14.8C14.5715 14.88 14.8082 14.97 15.0415 15.07C15.2815 15.17 15.4982 15.3 15.6915 15.46C15.8915 15.62 16.0515 15.8267 16.1715 16.08C16.2915 16.3267 16.3515 16.6333 16.3515 17C16.3515 17.6533 16.1215 18.1667 15.6615 18.54C15.2015 18.9133 14.5715 19.1 13.7715 19.1ZM19.5817 19V12.12H20.9517V19H19.5817ZM17.3417 13.18V11.97H23.1917V13.18H17.3417ZM24.8307 19V11.97H26.1907V19H24.8307ZM25.8307 19V17.8H29.7207V19H25.8307ZM25.8307 15.99V14.83H29.3707V15.99H25.8307ZM25.8307 13.17V11.97H29.6707V13.17H25.8307ZM32.5464 16.39V15.28H34.1764C34.3897 15.28 34.583 15.2367 34.7564 15.15C34.9297 15.0633 35.0664 14.94 35.1664 14.78C35.2664 14.6133 35.3164 14.4133 35.3164 14.18C35.3164 13.9533 35.2664 13.7567 35.1664 13.59C35.0664 13.4233 34.9297 13.2967 34.7564 13.21C34.583 13.1233 34.3897 13.08 34.1764 13.08H32.5464V11.97H34.3164C34.763 11.97 35.163 12.06 35.5164 12.24C35.8764 12.42 36.1597 12.6767 36.3664 13.01C36.573 13.3367 36.6764 13.7267 36.6764 14.18C36.6764 14.6333 36.573 15.0267 36.3664 15.36C36.1597 15.6867 35.8764 15.94 35.5164 16.12C35.163 16.3 34.763 16.39 34.3164 16.39H32.5464ZM31.5464 19V11.97H32.9064V19H31.5464Z" fill="white"/>
</svg>
